<svg width="48" height="48" viewBox="0 0 48 48" fill="none" xmlns="http://www.w3.org/2000/svg">
<path d="M15.6068 22.176C15.5952 22.5611 15.6462 22.9455 15.7576 23.3143C15.8678 23.6319 16.0055 23.9394 16.1691 24.2331C16.2275 24.3182 16.2608 24.418 16.2651 24.5211C16.2579 24.6003 16.2317 24.6765 16.1887 24.7434C16.1457 24.8102 16.0872 24.8657 16.0182 24.9051L15.2091 25.44C15.1128 25.5087 14.9982 25.5469 14.8799 25.5497C14.807 25.5485 14.7351 25.532 14.669 25.5013C14.6029 25.4706 14.5439 25.4263 14.4959 25.3714C14.3183 25.1934 14.1618 24.9956 14.0296 24.7817C13.9062 24.5623 13.7828 24.3154 13.6456 24.0274C13.1958 24.5895 12.6233 25.0411 11.9719 25.3477C11.3206 25.6544 10.6077 25.8079 9.88792 25.7965C9.4229 25.8217 8.95757 25.7533 8.51943 25.5955C8.08129 25.4377 7.67924 25.1936 7.33707 24.8777C7.01872 24.5564 6.77125 24.1719 6.61062 23.7491C6.45 23.3263 6.37978 22.8745 6.40449 22.4228C6.38787 21.9258 6.48271 21.4313 6.68204 20.9757C6.88138 20.5201 7.18017 20.1148 7.55649 19.7897C8.45024 19.093 9.56545 18.7424 10.6971 18.8023C11.156 18.8002 11.6144 18.8323 12.0685 18.8983C12.5485 18.9668 13.0285 19.0628 13.5359 19.1725V18.24C13.6092 17.5062 13.3926 16.7728 12.9325 16.1965C12.3396 15.7388 11.5928 15.5275 10.8479 15.6068C10.386 15.609 9.92583 15.6642 9.47649 15.7714C9.0088 15.8824 8.55031 16.0291 8.10507 16.2103L7.65249 16.3748H7.46049C7.26849 16.3748 7.18621 16.2377 7.18621 15.9771V15.3463C7.17405 15.1953 7.20246 15.0437 7.26849 14.9074C7.37053 14.7902 7.49689 14.6966 7.63878 14.6331C8.15225 14.3861 8.68999 14.193 9.24335 14.0571C9.89287 13.8899 10.5612 13.8069 11.2319 13.8103C12.4409 13.7049 13.6429 14.0792 14.5782 14.8525C14.9623 15.2742 15.2545 15.7712 15.4363 16.3118C15.6181 16.8525 15.6855 17.425 15.6342 17.9931L15.6068 22.176ZM10.4228 24.1234C10.8898 24.1241 11.3536 24.0453 11.7942 23.8903C12.2635 23.7301 12.6806 23.4457 13.0011 23.0674C13.2127 22.8386 13.3635 22.5604 13.4399 22.2583C13.5285 21.8948 13.57 21.5214 13.5634 21.1474V20.5714C13.1604 20.4877 12.7528 20.4281 12.3428 20.3931C11.9314 20.3931 11.5336 20.3931 11.1359 20.3931C10.4655 20.3393 9.79697 20.5186 9.24335 20.9005C9.0294 21.0806 8.86081 21.3086 8.75122 21.5659C8.64163 21.8232 8.59411 22.1026 8.61249 22.3817C8.58992 22.6302 8.61976 22.8807 8.70008 23.1169C8.7804 23.3531 8.90942 23.5699 9.07878 23.7531C9.46008 24.0496 9.94342 24.1828 10.4228 24.1234ZM20.6948 25.4948C20.521 25.511 20.3468 25.4675 20.2011 25.3714C20.0618 25.2328 19.9664 25.0564 19.9268 24.864L16.9371 14.9897C16.8763 14.822 16.8394 14.6465 16.8274 14.4685C16.8274 14.2628 16.9233 14.1531 17.1291 14.1531H18.3908C18.5646 14.137 18.7387 14.1805 18.8845 14.2765C19.0181 14.4173 19.1085 14.5934 19.1451 14.784L21.2982 23.3143L23.3142 14.7977C23.3352 14.6051 23.4225 14.4257 23.5611 14.2903C23.7119 14.1942 23.8904 14.1508 24.0685 14.1668H25.0971C25.2795 14.1508 25.4623 14.1941 25.6182 14.2903C25.7468 14.4327 25.8324 14.6086 25.8651 14.7977L27.8536 23.3143L30.0616 14.7565C30.0982 14.566 30.1886 14.3899 30.3222 14.2491C30.468 14.1531 30.6421 14.1095 30.8159 14.1257H32.0091C32.0515 14.1214 32.0944 14.1266 32.1347 14.141C32.1749 14.1553 32.2114 14.1784 32.2416 14.2086C32.2718 14.2388 32.2949 14.2753 32.3092 14.3155C32.3236 14.3557 32.3288 14.3986 32.3245 14.4411C32.3296 14.5096 32.3296 14.5784 32.3245 14.6468C32.3245 14.6468 32.3245 14.8251 32.2422 14.9623L29.1428 24.8365C29.1062 25.0271 29.0158 25.2032 28.8822 25.344C28.7348 25.4363 28.562 25.4795 28.3885 25.4674H27.2913C27.111 25.4866 26.93 25.4377 26.7839 25.3303C26.648 25.1929 26.5613 25.0145 26.5371 24.8228L24.5485 16.5943L22.5736 24.8228C22.5494 25.0145 22.4627 25.1929 22.3268 25.3303C22.1796 25.4353 21.9995 25.484 21.8193 25.4674L20.6948 25.4948ZM37.1519 25.824C36.4874 25.8271 35.8247 25.7535 35.1771 25.6045C34.6673 25.5022 34.1737 25.3316 33.7096 25.0971C33.5456 25.0189 33.4075 24.8951 33.3119 24.7405C33.2586 24.6243 33.2306 24.4981 33.2296 24.3703V23.7257C33.2296 23.4651 33.3256 23.328 33.5176 23.328C33.5994 23.3149 33.6827 23.3149 33.7645 23.328L34.0799 23.4651C34.5195 23.6615 34.9794 23.8087 35.4513 23.904C35.9515 24.0129 36.4618 24.0681 36.9736 24.0685C37.6233 24.109 38.2708 23.9614 38.8388 23.6434C39.045 23.518 39.2145 23.3403 39.3301 23.1284C39.4456 22.9165 39.5032 22.6778 39.4971 22.4365C39.5036 22.2724 39.4765 22.1087 39.4176 21.9555C39.3586 21.8022 39.269 21.6626 39.1542 21.5451C38.783 21.2234 38.3414 20.9932 37.8651 20.8731L36.0136 20.2834C35.2127 20.082 34.4968 19.6304 33.9702 18.9943C33.5561 18.4604 33.3295 17.8048 33.3256 17.1291C33.3181 16.6499 33.4363 16.177 33.6685 15.7577C33.8979 15.3456 34.2109 14.9859 34.5873 14.7017C34.9996 14.3989 35.4647 14.1757 35.9588 14.0434C36.4847 13.8919 37.0298 13.818 37.5771 13.824C37.8601 13.804 38.1443 13.804 38.4273 13.824L39.2639 13.9611L39.9908 14.1668L40.5256 14.3863C40.6691 14.471 40.7986 14.5774 40.9096 14.7017C40.9861 14.83 41.0241 14.9775 41.0193 15.1268V15.7303C41.0193 16.0045 40.9233 16.1417 40.7313 16.1417C40.5571 16.1217 40.389 16.0657 40.2376 15.9771C39.4593 15.6388 38.6177 15.4705 37.7691 15.4834C37.181 15.4549 36.5955 15.5777 36.0685 15.84C35.8728 15.9591 35.7132 16.1293 35.6069 16.3322C35.5006 16.5352 35.4516 16.7633 35.4651 16.992C35.4644 17.161 35.4982 17.3284 35.5642 17.484C35.6302 17.6395 35.7271 17.7801 35.8491 17.8971C36.2539 18.2211 36.7205 18.4591 37.2205 18.5965L39.0308 19.1725C39.7981 19.3761 40.4864 19.8063 41.0056 20.4068C41.3988 20.9223 41.6066 21.5552 41.5953 22.2034C41.6035 22.7161 41.4907 23.2235 41.2662 23.6845C41.0459 24.1261 40.7268 24.5109 40.3336 24.8091C39.9267 25.1362 39.4613 25.3829 38.9622 25.536C38.3636 25.7285 37.7395 25.8302 37.1108 25.8377L37.1519 25.824Z" fill="#F8F4F9"/>
<path fill-rule="evenodd" clip-rule="evenodd" d="M39.5246 32.1326C34.9344 35.2518 29.5085 36.9107 23.9588 36.8914C16.9421 36.9294 10.1638 34.3472 4.95083 29.6503C4.55312 29.2937 4.95083 28.8 5.38969 29.0743C11.1755 32.3893 17.7294 34.1295 24.3977 34.1212C29.3824 34.1009 34.3137 33.0941 38.9074 31.1589C39.6206 30.8572 40.224 31.6252 39.5246 32.1326Z" fill="#F8F4F9"/>
<path fill-rule="evenodd" clip-rule="evenodd" d="M41.28 30.1714C40.7314 29.472 37.7143 29.8423 36.3566 30.0068C35.9451 30.0068 35.8903 29.6914 36.2606 29.4308C38.6606 27.744 42.6103 28.224 43.1177 28.8C43.6251 29.376 42.9943 33.3257 40.7314 35.2183C40.3886 35.5063 40.0594 35.3417 40.2103 34.9714C40.6766 33.6685 41.8148 30.8297 41.28 30.1714Z" fill="#F8F4F9"/>
</svg>
