<svg width="49" height="48" viewBox="0 0 49 48" fill="none" xmlns="http://www.w3.org/2000/svg">
<path d="M44.5625 12.5625L44.675 12.4874C44.45 12.0749 44.1125 11.7 43.775 11.5125L25.6625 1.08745C25.3625 0.899951 24.95 0.824951 24.5 0.824951C24.05 0.824951 23.6375 0.937451 23.3375 1.08745L5.3375 11.5499C4.7 11.9249 4.25 12.8625 4.25 13.575V34.4625C4.25 34.875 4.325 35.325 4.5875 35.7375L4.5125 35.775C4.7 36.075 4.9625 36.3375 5.225 36.4875L23.3 46.95C23.6 47.1375 24.0125 47.2125 24.4625 47.2125C24.9125 47.2125 25.325 47.1 25.625 46.95L43.625 36.4875C44.2625 36.1125 44.7125 35.175 44.7125 34.4625V13.5374C44.75 13.2374 44.7125 12.9 44.5625 12.5625ZM24.5 38.8125C16.325 38.8125 9.6875 32.1749 9.6875 24C9.6875 15.825 16.325 9.18747 24.5 9.18747C30.0125 9.18747 34.8125 12.225 37.3625 16.6875L32.4875 19.5C30.9125 16.6875 27.9125 14.8125 24.5 14.8125C19.4375 14.8125 15.3125 18.9375 15.3125 24C15.3125 29.0625 19.4375 33.1875 24.5 33.1875C27.9125 33.1875 30.9125 31.3125 32.4875 28.5375L37.325 31.3875C34.775 35.8125 29.975 38.8125 24.5 38.8125ZM43.625 23.25H42.425L42.0875 24.75H43.625V26.625H41.75L41.3 28.875H39.4625L39.9125 26.625H38.4875L38.0375 28.875H36.2375L36.6875 26.625H35.75V24.75H37.0625L37.4 23.25H35.75V21.375H37.7375L38.1875 19.125H40.025L39.575 21.375H41L41.45 19.125H43.25L42.8 21.375H43.625V23.25ZM38.8625 24.75H40.2875L40.625 23.25H39.2L38.8625 24.75Z" fill="#F8F4F9"/>
</svg>
