<svg width="49" height="48" viewBox="0 0 49 48" fill="none" xmlns="http://www.w3.org/2000/svg">
<path d="M3.785 0.375L7.55563 42.7061L24.4749 47.4236L41.4414 42.6889L45.215 0.375H3.785ZM37.3816 10.0732L36.1265 24.1751L36.1302 24.2512L36.125 24.4264V24.4249L35.2333 34.2851L35.135 35.1611L24.5 38.1026L24.4918 38.1101L13.8751 35.1521L13.1562 27H18.3624L18.7318 31.1452L24.5015 32.709L24.5 32.712V32.7112L30.2911 31.1254L30.9031 24.375H18.797L18.6931 23.2339L18.4565 20.5605L18.3324 19.125H31.3633L31.8373 13.875H11.99L11.8861 12.7346L11.6499 10.0605L11.5254 8.625H37.5057L37.3816 10.0732Z" fill="#F8F4F9"/>
</svg>
