<svg width="49" height="48" viewBox="0 0 49 48" fill="none" xmlns="http://www.w3.org/2000/svg">
<path d="M47.3 19.5375C45.6875 18.6 43.55 18.4875 41.75 19.0125C41.525 17.0625 40.25 15.375 38.75 14.175L38.15 13.6875L37.625 14.2875C36.6125 15.45 36.3125 17.4 36.4625 18.9C36.575 19.9875 36.9125 21.1125 37.5875 22.0125C37.0625 22.3125 36.5 22.725 35.975 22.9125C34.925 23.2875 33.7625 23.6625 32.6375 23.6625H30.125V18.375H25.25V9H19.625V13.5H10.25V18.375H5.37496V23.625H1.17498L1.09998 24.1875C0.912478 26.5875 1.21248 28.9125 2.22498 31.125L2.63748 31.95L2.67498 32.025C5.63746 37.05 10.8125 39.15 16.475 39.15C27.425 39.15 36.4625 34.2375 40.5875 23.925C43.3625 24.075 46.2125 23.25 47.5625 20.5875L47.9 19.9125L47.3 19.5375ZM11 14.625H14.75V18.75H11V14.625ZM15.9125 31.2C15.9125 31.8375 15.3875 32.3625 14.75 32.3625C14.1125 32.3625 13.5875 31.8375 13.5875 31.2C13.5875 30.5625 14.1125 30.0375 14.75 30.0375C15.3875 30.075 15.9125 30.5625 15.9125 31.2ZM11 19.5H14.75V23.625H11V19.5ZM6.12496 19.5H10.25V23.625H6.12496V19.5ZM16.5125 38.325C10.5875 38.2875 7.39996 36.3 4.77496 33.675C5.56246 33.7125 6.31246 33.75 6.98746 33.75C7.58746 33.75 8.18746 33.75 8.74996 33.7125C10.2125 33.6375 11.4875 33.45 12.5375 33.15C13.4 35.1375 14.975 36.975 17.7875 38.325H16.5125ZM19.625 23.625H15.5V19.5H19.625V23.625ZM19.625 18.75H15.5V14.625H19.625V18.75ZM24.5 23.625H20.375V19.5H24.5V23.625ZM24.5 18.75H20.375V14.625H24.5V18.75ZM24.5 13.875H20.375V9.75H24.5V13.875ZM29.375 23.625H25.25V19.5H29.375V23.625ZM15.05 30.45C14.975 30.4125 14.8625 30.375 14.75 30.375C14.3 30.375 13.925 30.75 13.925 31.2C13.925 31.65 14.3 32.025 14.75 32.025C15.2 32.025 15.575 31.65 15.575 31.2C15.575 31.0875 15.5375 30.975 15.5 30.9C15.425 31.0125 15.35 31.0875 15.2 31.0875C15.0125 31.0875 14.8625 30.9375 14.8625 30.75C14.9 30.6 14.975 30.4875 15.05 30.45Z" fill="#F8F4F9"/>
</svg>
