<svg width="49" height="48" viewBox="0 0 49 48" fill="none" xmlns="http://www.w3.org/2000/svg">
<g clip-path="url(#clip0_206_43)">
<path d="M47.6529 30.5639C46.6711 34.1284 44.8505 37.324 42.1869 40.1464L42.0699 40.2716C38.7436 43.7964 34.8703 45.91 30.4535 46.6212C29.3374 46.8008 28.1883 46.8948 27.0024 46.8948C21.0695 46.8948 15.9961 44.6476 11.7769 40.1464C9.13042 37.3231 7.3227 34.1284 6.34852 30.5639H47.6529ZM48.482 25.2344C48.4423 26.0835 48.3601 26.9133 48.2409 27.7271L48.1996 27.9978H5.80541C5.67848 27.1875 5.58855 26.3616 5.5401 25.5167L5.52551 25.2344H48.482ZM48.1989 19.9048C48.3268 20.7155 48.4171 21.5415 48.4659 22.386L48.4805 22.6682H5.52551C5.56466 21.8195 5.64619 20.9898 5.76458 20.1756L5.80541 19.9048H48.1989Z" fill="#F8F4F9"/>
<path d="M47.6536 17.3381C46.673 13.7638 44.852 10.5542 42.1869 7.71101C38.8434 4.14469 34.942 2.00507 30.4877 1.28514C29.3611 1.10282 28.2006 1.0072 27.0024 1.0072C21.0695 1.0072 15.9957 3.24243 11.7769 7.71101C9.12948 10.5542 7.32089 13.7638 6.34717 17.3381" fill="#F8F4F9"/>
<path d="M4.24814 23.952C4.24814 11.8483 12.7704 1.79137 23.8571 0.0224976C23.582 0.0117175 23.3056 0 23.0279 0C10.5866 0 0.5 10.7238 0.5 23.952C0.5 37.1806 10.5862 47.904 23.0279 47.904C23.3065 47.904 23.5829 47.8928 23.8589 47.882C12.7704 46.1132 4.24814 36.0562 4.24814 23.952Z" fill="#F8F4F9"/>
<path d="M41.621 22.6678C41.549 21.7205 41.3994 20.7967 41.1763 19.9043H12.8302C12.607 20.7963 12.4571 21.7201 12.3851 22.6678H41.621Z" fill="#F8F4F9"/>
<path d="M41.621 25.2344H12.3855C12.4575 26.1816 12.6065 27.1054 12.8302 27.9978H41.1766C41.4001 27.1054 41.549 26.1816 41.621 25.2344Z" fill="#F8F4F9"/>
<path d="M27.0032 39.601C32.8899 39.601 37.9642 35.9015 40.301 30.564H13.7054C16.0422 35.9015 21.1165 39.601 27.0032 39.601Z" fill="#F8F4F9"/>
</g>
<defs>
<clipPath id="clip0_206_43">
<rect width="48" height="48" fill="white" transform="translate(0.5)"/>
</clipPath>
</defs>
</svg>
