<svg width="49" height="48" viewBox="0 0 49 48" fill="none" xmlns="http://www.w3.org/2000/svg">
<path d="M18.9012 12.2475C13.5125 11.265 9.25622 12.2925 7.55747 15.2475C6.28997 17.4413 6.65372 20.3513 8.43497 23.46C8.4712 23.523 8.51946 23.5784 8.57702 23.6227C8.63458 23.6671 8.70032 23.6997 8.77048 23.7187C8.84065 23.7377 8.91385 23.7426 8.98596 23.7333C9.05803 23.724 9.1276 23.7006 9.1906 23.6644C9.25363 23.6282 9.30895 23.5799 9.35331 23.5224C9.39771 23.4648 9.43033 23.3991 9.44931 23.3289C9.46828 23.2587 9.47323 23.1855 9.46393 23.1134C9.4546 23.0414 9.4312 22.9718 9.39497 22.9088C7.78997 20.1075 7.47497 17.595 8.51372 15.7838C9.92372 13.3425 13.7225 12.4088 18.7025 13.3313C18.8467 13.3576 18.9955 13.3256 19.1161 13.2423C19.2367 13.1589 19.3193 13.0311 19.3456 12.8869C19.372 12.7427 19.34 12.5939 19.2566 12.4733C19.1733 12.3527 19.0454 12.2701 18.9012 12.2438V12.2475ZM11.2362 27.2288C13.639 29.8038 16.4211 31.9966 19.4862 33.7313C27.3012 38.2313 35.6112 39.45 39.7362 36.6525C39.857 36.57 39.9402 36.4428 39.9672 36.299C39.9942 36.1552 39.9631 36.0065 39.8806 35.8856C39.7981 35.7648 39.671 35.6817 39.527 35.6546C39.3833 35.6276 39.2345 35.6587 39.1137 35.7413C35.4162 38.25 27.5 37.095 20.0262 32.7713C17.0644 31.0926 14.376 28.972 12.0537 26.4825C11.9543 26.3741 11.8158 26.3097 11.6689 26.3033C11.5219 26.297 11.3784 26.3493 11.27 26.4488C11.1616 26.5482 11.0971 26.6867 11.0908 26.8337C11.0845 26.9806 11.1368 27.1241 11.2362 27.2325V27.2288Z" fill="#F8F4F9"/>
<path d="M38.3975 26.5537C41.9262 22.3875 43.1562 18.195 41.4612 15.2625C40.2162 13.1025 37.58 11.9625 34.0775 11.9175C33.9308 11.9175 33.7901 11.9758 33.6864 12.0795C33.5827 12.1832 33.5244 12.3239 33.5244 12.4706C33.5244 12.6173 33.5827 12.758 33.6864 12.8617C33.7901 12.9655 33.9308 13.0237 34.0775 13.0237C37.2275 13.065 39.4962 14.0475 40.52 15.8175C41.9262 18.255 40.8275 21.9937 37.5688 25.845C37.522 25.9004 37.4866 25.9645 37.4646 26.0336C37.4425 26.1026 37.4343 26.1754 37.4404 26.2477C37.4465 26.3199 37.4668 26.3902 37.5001 26.4547C37.5333 26.5191 37.579 26.5763 37.6344 26.6231C37.6898 26.6699 37.7539 26.7053 37.823 26.7273C37.892 26.7494 37.9648 26.7575 38.0371 26.7515C38.1091 26.7454 38.1796 26.7251 38.2441 26.6918C38.3086 26.6585 38.3656 26.6129 38.4125 26.5575L38.3975 26.5537ZM29.3338 12.4312C25.8714 13.217 22.551 14.5325 19.49 16.3312C11.4238 21 6.15877 27.8587 6.87502 32.8387C6.8856 32.9126 6.91065 32.9837 6.94868 33.0479C6.98674 33.1121 7.03706 33.1681 7.09676 33.2129C7.1565 33.2576 7.22445 33.2902 7.29675 33.3086C7.36905 33.3271 7.44427 33.3312 7.51815 33.3206C7.59199 33.31 7.66305 33.285 7.72725 33.247C7.79145 33.2089 7.84751 33.1586 7.89229 33.0989C7.93702 33.0391 7.96958 32.9712 7.98806 32.8989C8.00655 32.8266 8.0106 32.7514 8.00002 32.6775C7.33627 28.2562 12.3238 21.75 20.0413 17.2912C23.0022 15.5449 26.2151 14.2661 29.5663 13.5C29.6372 13.4847 29.7044 13.4557 29.764 13.4144C29.8237 13.3732 29.8747 13.3206 29.914 13.2596C29.9534 13.1987 29.9804 13.1306 29.9934 13.0592C30.0064 12.9879 30.0053 12.9146 29.99 12.8437C29.9748 12.7728 29.9457 12.7056 29.9044 12.646C29.8632 12.5863 29.8106 12.5353 29.7496 12.496C29.6887 12.4566 29.6206 12.4297 29.5492 12.4166C29.4779 12.4036 29.4047 12.4047 29.3338 12.42V12.4312Z" fill="#F8F4F9"/>
<path d="M16.25 36.2926C18.125 41.4413 21.125 44.625 24.5188 44.625C26.9938 44.625 29.2813 42.9375 31.0663 39.9675C31.1449 39.8427 31.1706 39.6919 31.1379 39.5479C31.1052 39.4043 31.0167 39.2794 30.8919 39.2007C30.7671 39.1223 30.6162 39.0964 30.4723 39.129C30.3285 39.1617 30.2036 39.2502 30.125 39.375C28.52 42.045 26.5513 43.5 24.5225 43.5C21.7025 43.5 19.0138 40.6725 17.3075 35.9101C17.2578 35.7723 17.1554 35.66 17.0228 35.5977C16.8903 35.5355 16.7384 35.5285 16.6006 35.5782C16.4629 35.6279 16.3506 35.7303 16.2883 35.8629C16.2261 35.9955 16.219 36.1473 16.2688 36.2851L16.25 36.2926ZM33.125 35.2838C34.1226 31.9638 34.6168 28.5129 34.5913 25.0463C34.5913 15.8926 31.3888 8.00632 26.825 5.97757C26.7586 5.94802 26.6869 5.93186 26.6142 5.92999C26.5414 5.92815 26.4691 5.94064 26.4012 5.96674C26.3332 5.99287 26.2712 6.0321 26.2184 6.0822C26.1657 6.13234 26.1233 6.19234 26.0938 6.25882C26.0341 6.39307 26.0302 6.54555 26.083 6.68269C26.1357 6.81982 26.2408 6.93037 26.375 6.99007C30.4438 8.79757 33.5 16.2826 33.5 25.0463C33.525 28.4011 33.0472 31.7406 32.0825 34.9538C32.0609 35.023 32.053 35.0958 32.0595 35.168C32.0659 35.2402 32.0866 35.3105 32.1202 35.3747C32.1538 35.439 32.1997 35.496 32.2554 35.5424C32.311 35.5889 32.3752 35.624 32.4444 35.6457C32.5136 35.6674 32.5864 35.6752 32.6586 35.6687C32.7308 35.6623 32.8011 35.6416 32.8653 35.608C32.9295 35.5744 32.9865 35.5285 33.033 35.4729C33.0795 35.4173 33.1146 35.353 33.1363 35.2838H33.125ZM43.5163 34.7438C43.5163 34.2209 43.3614 33.7098 43.0708 33.275C42.7801 32.8403 42.3673 32.5014 41.8843 32.3013C41.4013 32.1012 40.8695 32.0488 40.3569 32.1508C39.8439 32.2529 39.3729 32.5047 39.0031 32.8744C38.6334 33.2441 38.3818 33.7152 38.2794 34.228C38.1774 34.7409 38.2299 35.2725 38.4301 35.7555C38.63 36.2386 38.969 36.6515 39.4036 36.942C39.8386 37.2325 40.3498 37.3876 40.8725 37.3876C41.2198 37.3876 41.5636 37.3192 41.8843 37.1863C42.2049 37.0535 42.4963 36.8587 42.7419 36.6132C42.9875 36.3677 43.1821 36.0763 43.3149 35.7555C43.448 35.4348 43.5163 35.091 43.5163 34.7438ZM42.41 34.7438C42.41 35.0479 42.32 35.3452 42.1509 35.598C41.9821 35.8509 41.7418 36.0479 41.4609 36.1643C41.18 36.2807 40.8706 36.3111 40.5725 36.2518C40.2744 36.1925 40.0003 36.046 39.7854 35.831C39.5705 35.616 39.4239 35.342 39.3646 35.0438C39.3054 34.7455 39.3358 34.4364 39.452 34.1555C39.5683 33.8745 39.7655 33.6344 40.0183 33.4654C40.271 33.2965 40.5684 33.2063 40.8725 33.2063C41.2801 33.2063 41.6713 33.3683 41.9596 33.6566C42.248 33.945 42.41 34.3361 42.41 34.7438ZM8.12751 37.3876C8.65041 37.3876 9.16154 37.2325 9.59631 36.942C10.0311 36.6515 10.3699 36.2386 10.57 35.7555C10.7701 35.2725 10.8225 34.7409 10.7205 34.228C10.6185 33.7152 10.3667 33.2441 9.99693 32.8744C9.62721 32.5047 9.15614 32.2529 8.64329 32.1508C8.13048 32.0488 7.59888 32.1012 7.1158 32.3013C6.63273 32.5014 6.21981 32.8403 5.92934 33.275C5.63883 33.7098 5.48376 34.2209 5.48376 34.7438C5.48376 35.445 5.76231 36.1174 6.2581 36.6132C6.75393 37.109 7.42638 37.3876 8.12751 37.3876ZM8.12751 36.2813C7.82343 36.2813 7.52617 36.1911 7.27334 36.0222C7.02051 35.8533 6.82345 35.6132 6.70705 35.3322C6.59069 35.0513 6.56024 34.7421 6.61956 34.4439C6.67889 34.1456 6.82533 33.8717 7.04035 33.6566C7.25538 33.4416 7.52931 33.2952 7.82759 33.2359C8.12583 33.1766 8.43498 33.207 8.71589 33.3234C8.99684 33.4397 9.23699 33.6368 9.40593 33.8896C9.57486 34.1425 9.66502 34.4397 9.66502 34.7438C9.66502 35.1516 9.50305 35.5427 9.21472 35.831C8.92638 36.1193 8.53529 36.2813 8.12751 36.2813Z" fill="#F8F4F9"/>
<path d="M24.5188 8.67372C25.0417 8.67372 25.5528 8.51869 25.9875 8.22818C26.4223 7.93767 26.7612 7.52479 26.9613 7.04172C27.1614 6.55861 27.2137 6.02704 27.1117 5.51419C27.0097 5.00138 26.7579 4.53031 26.3882 4.16056C26.0184 3.79084 25.5474 3.53904 25.0345 3.43703C24.5217 3.33502 23.9901 3.38737 23.507 3.58747C23.024 3.78758 22.611 4.12643 22.3205 4.56121C22.0301 4.99594 21.875 5.50711 21.875 6.02997C21.875 6.73114 22.1535 7.40359 22.6493 7.89938C23.1451 8.39521 23.8176 8.67372 24.5188 8.67372ZM24.5188 7.56747C24.2147 7.56747 23.9174 7.47732 23.6646 7.30838C23.4117 7.13941 23.2147 6.89929 23.0983 6.61834C22.9819 6.33743 22.9515 6.02828 23.0108 5.73004C23.0701 5.43177 23.2166 5.15783 23.4316 4.94281C23.6466 4.72778 23.9205 4.58134 24.2188 4.52202C24.5171 4.46269 24.8262 4.49314 25.1071 4.60951C25.3881 4.72587 25.6282 4.92297 25.7971 5.17579C25.9661 5.42862 26.0563 5.72588 26.0563 6.02997C26.0563 6.43774 25.8942 6.82883 25.6059 7.11717C25.3176 7.40551 24.9265 7.56747 24.5188 7.56747ZM24.9237 26.9137C24.5541 26.9964 24.1683 26.9675 23.8151 26.8307C23.4619 26.6938 23.1574 26.4552 22.94 26.145C22.7226 25.8349 22.6022 25.4672 22.5941 25.0885C22.5859 24.7098 22.6904 24.3372 22.8942 24.018C23.0981 23.6988 23.3922 23.4473 23.7391 23.2954C24.0861 23.1435 24.4704 23.0981 24.8432 23.1648C25.216 23.2316 25.5606 23.4075 25.8334 23.6704C26.1061 23.9332 26.2946 24.2711 26.375 24.6412C26.4823 25.1349 26.3899 25.651 26.118 26.0768C25.8461 26.5025 25.4168 26.8034 24.9237 26.9137Z" fill="#F8F4F9"/>
</svg>
