<svg width="49" height="48" viewBox="0 0 49 48" fill="none" xmlns="http://www.w3.org/2000/svg">
<g clip-path="url(#clip0_206_52)">
<path d="M48.0013 36.915C46.2913 37.35 45.2338 36.9337 44.285 35.5087C42.155 32.3175 39.8038 29.2725 37.535 26.1712C37.2425 25.77 36.9388 25.3762 36.56 24.8775C33.875 28.5 31.1938 31.95 28.6775 35.5387C27.7775 36.8212 26.8325 37.38 25.1525 36.9262L35.2475 23.3775L25.85 11.1412C27.4663 10.8262 28.5838 10.9875 29.5738 12.435C31.76 15.63 34.1713 18.6712 36.575 21.8887C38.9938 18.6825 41.375 15.6375 43.625 12.4725C44.5288 11.19 45.5 10.7025 47.1238 11.175C45.8938 12.8062 44.69 14.4112 43.4788 16.005C41.8438 18.1537 40.2388 20.3287 38.5438 22.4325C37.94 23.1825 38.0375 23.67 38.5775 24.3787C41.7125 28.5 44.81 32.6625 48.0013 36.915ZM0.998799 23.1525C1.2688 21.7987 1.4488 20.4187 1.8238 19.0912C4.0738 11.055 13.2988 7.71375 19.6363 12.6937C23.3488 15.615 24.2713 19.7325 24.0876 24.375H3.16255C2.84755 32.7037 8.84382 37.7325 16.4863 35.1675C19.1676 34.2675 20.7463 32.1675 21.5375 29.5425C21.9388 28.2262 22.6026 28.02 23.8401 28.395C23.2063 31.68 21.7701 34.425 18.7701 36.1425C14.2701 38.715 7.84628 37.8825 4.46753 34.3087C2.47255 32.2087 1.62505 29.595 1.25005 26.7712C1.1938 26.3212 1.07755 25.8787 0.987549 25.4325C0.995049 24.6725 0.998799 23.9125 0.998799 23.1525ZM3.20005 22.5937H22.1113C21.9876 16.5712 18.2376 12.2925 13.1113 12.255C7.48632 12.21 3.4438 16.3875 3.20005 22.5937Z" fill="#F8F4F9"/>
</g>
<defs>
<clipPath id="clip0_206_52">
<rect width="48" height="48" fill="white" transform="translate(0.5)"/>
</clipPath>
</defs>
</svg>
