<svg width="49" height="48" viewBox="0 0 49 48" fill="none" xmlns="http://www.w3.org/2000/svg">
<g clip-path="url(#clip0_206_61)">
<path d="M47.2764 21.8917L26.6079 1.22399C25.4184 0.0337358 23.4879 0.0337358 22.2965 1.22399L18.005 5.51622L23.4493 10.9605C24.7149 10.5333 26.1654 10.8198 27.1738 11.8282C28.1874 12.843 28.4716 14.3058 28.034 15.5756L33.281 20.823C34.5504 20.3853 36.0155 20.6681 37.0288 21.6836C38.4463 23.1 38.4463 25.3961 37.0288 26.8132C36.6919 27.1503 36.292 27.4176 35.8517 27.6C35.4115 27.7824 34.9397 27.8763 34.4632 27.8763C33.9867 27.8763 33.5149 27.7824 33.0746 27.6C32.6345 27.4176 32.2345 27.1503 31.8976 26.8132C31.3915 26.3068 31.0465 25.662 30.9061 24.96C30.7656 24.2579 30.836 23.53 31.1083 22.8678L26.2153 17.9748L26.2145 30.8527C26.5695 31.0276 26.8936 31.2591 27.1741 31.5382C28.5909 32.9546 28.5909 35.25 27.1741 36.6693C25.757 38.0857 23.4601 38.0857 22.0445 36.6693C20.6278 35.2503 20.6278 32.955 22.0445 31.5382C22.384 31.1983 22.7877 30.9293 23.2321 30.747V17.7498C22.7873 17.5681 22.3835 17.2989 22.0445 16.9582C20.9713 15.8857 20.7129 14.3107 21.2634 12.9922L15.896 7.62484L1.724 21.7961C1.15225 22.368 0.831055 23.1437 0.831055 23.9523C0.831055 24.7611 1.15225 25.5367 1.724 26.1086L22.3929 46.7763C23.5831 47.9666 25.5129 47.9666 26.705 46.7763L47.2768 26.2046C47.8483 25.6325 48.1696 24.8568 48.1693 24.0481C48.1693 23.2394 47.8483 22.4637 47.2764 21.8917Z" fill="#F8F4F9"/>
</g>
<defs>
<clipPath id="clip0_206_61">
<rect width="48" height="48" fill="white" transform="translate(0.5)"/>
</clipPath>
</defs>
</svg>
