<svg width="49" height="48" viewBox="0 0 49 48" fill="none" xmlns="http://www.w3.org/2000/svg">
<path d="M10.4917 21.1336C9.12537 21.7763 5.5091 24.6696 4.81257 25.5268C4.08924 26.384 3.875 25.0447 4.62504 22.8212C5.21424 21.0265 6.71457 18.5887 9.23255 16.4993C10.7058 15.2938 13.9473 13.5526 15.9295 12.5346C16.3314 12.3202 21.5283 10.1236 26.1626 9.02533C26.5645 8.91815 25.6805 9.695 25.5465 10.1236C24.8499 12.1595 10.9469 20.8924 10.9469 20.8924L10.4917 21.1336ZM30.0737 45.6982C30.3147 47.1446 30.1005 47.2518 28.6004 47.4393C27.1002 47.6272 26.0019 47.0643 25.6001 46.6893C25.1982 46.3143 25.118 45.4841 25.5198 44.7341C25.761 44.2518 26.0021 44.0909 26.136 43.5014C26.27 42.9389 26.3771 42.8051 26.4842 42.5909C26.5912 42.4031 26.6182 42.2156 26.6449 40.9031C26.6717 39.5906 26.6449 37.126 26.7789 36.0814C26.9129 35.0099 31.5473 36.5635 31.5473 36.5635C31.5473 36.5635 30.4489 39.2958 30.1543 39.9656C29.8595 40.6353 29.8864 41.9212 29.8864 42.1889C29.8864 42.4567 29.7793 42.9926 29.6988 43.0192C29.6185 43.0462 29.9667 43.7426 29.8059 44.1446C29.6987 44.5196 30.047 45.4841 30.0737 45.6982ZM31.8418 4.73923C31.6809 3.7213 31.8417 1.71199 32.056 1.3907C32.7258 0.479819 36.2618 0.372766 37.0119 1.44423C37.3333 1.92637 37.3065 3.05148 37.253 3.77484C37.1995 4.49803 37.0119 6.05176 36.9851 6.56086C36.9584 6.93594 33.0741 7.52514 32.2168 6.5072C31.9756 6.23945 31.8418 4.73923 31.8418 4.73923ZM39.7175 43.0998C41.3514 44.2784 42.6106 44.4926 43.4409 44.9212C44.2715 45.3502 44.057 46.1804 42.6643 46.4216C41.5389 46.6357 39.7711 46.2071 38.5925 46.2071C37.4137 46.2071 34.7884 46.3413 34.0919 45.8591C33.2883 45.2966 33.6364 44.2518 33.6364 44.2518C33.8508 43.6623 34.3865 42.3498 34.2257 41.2781C34.0651 40.2067 33.8507 39.6176 33.4489 38.6261C33.0471 37.6349 32.7525 35.1974 33.1276 35.0634C33.5027 34.9294 33.3953 35.0634 33.8776 35.1705C34.3598 35.2775 34.8956 35.4384 35.9403 35.4384C36.9851 35.4384 38.1369 35.2775 38.5389 35.1973C38.9405 35.1169 39.2619 35.0365 39.128 35.867C38.9941 36.6974 38.5925 38.2511 38.5655 39.4567C38.5389 40.6619 38.5389 42.0551 38.6191 42.2962C38.6994 42.5373 39.2889 42.8051 39.7175 43.0998Z" fill="#1C2541"/>
<path d="M33.9848 7.41816C31.0382 9.96313 25.3323 10.6595 16.8673 13.9277C14.6975 14.7581 8.91126 17.2494 7.51825 19.8479C12.2062 17.1423 13.9474 20.8658 14.3224 24.6965C14.6705 28.2861 16.4654 30.1614 21.073 30.0541C25.8145 29.947 27.2611 32.7061 28.5736 35.9476C31.1184 23.5445 35.1903 21.1337 37.8154 19.0175C43.3873 14.4902 36.5296 6.50728 33.9848 7.41816Z" fill="#F8F4F9"/>
<path d="M33.9848 7.41809C26.9128 9.88259 19.921 10.4988 11.6972 15.5617C9.74167 16.7672 5.61626 19.4994 4.81256 24.7233C7.81271 21.4014 14.7508 17.2226 23.2427 14.5706C27.5288 13.2311 30.6631 12.3472 34.467 10.8738C34.1992 9.15925 34.1992 8.48958 33.9848 7.41809Z" fill="#F8F4F9"/>
<path d="M43.0123 22.0981C43.0123 22.0981 42.5034 23.8393 41.4853 24.402C41.4853 24.402 40.7353 24.6699 39.2353 23.8395C38.8066 23.5984 38.4853 22.768 38.5119 22.5C38.5389 21.857 38.9405 21.5624 38.9405 21.5624C38.9405 21.5624 39.3691 20.839 39.878 20.8659C40.3873 20.8926 41.2445 20.973 41.5123 20.7319C41.7534 20.464 43.0659 21.214 43.0123 22.0981ZM32.0828 5.24835C32.0828 5.24835 31.9757 6.61466 31.7882 7.47176C31.7614 7.6326 30.9578 7.71285 30.3683 7.95405C31.4935 11.1685 38.2708 11.1417 39.155 9.5613C38.7264 9.2667 37.8691 8.81126 37.4673 8.65054C37.0654 8.4897 37.0922 8.51655 37.0654 7.76651C37.0387 7.01632 36.9851 5.62346 36.9314 5.24835C36.8779 4.87327 32.7256 4.87327 32.0828 5.24835Z" fill="#1C2541"/>
<path d="M32.3507 5.24828C32.3507 5.24828 32.3508 6.02513 32.2704 6.77516C32.2437 7.12343 32.2169 7.33766 32.1633 7.60556C32.1365 7.7664 33.0741 8.40911 33.342 9.82898C34.6278 12.6953 37.6014 11.2755 38.8336 9.90934C38.405 9.61459 37.7085 9.21281 36.9049 8.8914C36.503 8.73056 36.6905 8.38241 36.6638 7.63241C36.637 6.88238 36.5298 5.78393 36.4763 5.38215C36.4225 4.98038 32.9937 4.8732 32.3507 5.24828Z" fill="#F0EFEF"/>
<path d="M32.0828 5.24835C32.0828 5.24835 32.056 5.73064 31.9757 6.29314C32.3239 6.64125 32.7793 7.1235 33.1277 7.41825C33.3688 7.6326 33.9579 7.60578 34.4939 7.60578C34.976 7.60578 35.4046 7.6593 35.5922 7.55227C36.0209 7.33788 36.6369 6.80223 36.9852 6.40031C36.9585 5.91817 36.9317 5.46273 36.905 5.24835C36.8779 4.87327 32.7256 4.87327 32.0828 5.24835Z" fill="#1C2541"/>
<path d="M34.5206 7.28426C34.199 7.28426 33.824 7.25759 33.5294 7.20393C33.3953 7.17723 33.2615 7.09687 33.1543 7.0432C32.9667 6.90918 32.7792 6.74861 32.5651 6.58777C32.1363 6.26636 32.1096 6.07878 32.1096 5.99857C32.2972 4.31084 32.056 2.89111 32.056 2.89111C32.056 2.89111 31.8684 2.16777 32.8864 1.98023C33.9043 1.79269 34.5204 1.76599 34.5204 1.76599C34.5204 1.76599 35.1635 1.76599 36.1545 1.98023C37.1725 2.16777 36.9849 2.89111 36.9849 2.89111C36.9849 2.89111 36.7439 4.31084 36.9314 5.99857C36.9314 6.07878 36.9047 6.26636 36.476 6.58777C36.1009 6.85567 35.8063 7.15027 35.5117 7.20393C35.217 7.25759 34.8419 7.28426 34.5206 7.28426Z" fill="#1C2541"/>
<path d="M34.5206 1.06946C32.7526 1.06946 32.4042 1.5516 31.8953 2.08739C31.7882 2.22127 31.8684 3.02497 32.0561 4.73943H32.2971C32.2971 4.73943 32.1363 4.25714 32.1631 3.69465C32.19 3.13215 32.2971 3.15898 32.2167 3.02497C32.1096 2.86413 31.8953 2.59623 32.3775 2.32846C32.8596 2.06056 33.6097 2.5427 34.5206 2.56953C35.4313 2.5427 36.2082 2.06056 36.6903 2.32846C37.1724 2.59623 36.9582 2.86413 36.8511 3.02497C36.744 3.18568 36.8778 3.13202 36.9047 3.69465C36.9314 4.25714 36.7707 4.73943 36.7707 4.73943H37.0118C37.1724 3.02497 37.2796 2.27493 37.1993 2.14092C36.7439 1.5516 36.2885 1.09615 34.5206 1.06946ZM43.0122 22.1784C43.0122 22.1784 42.5034 23.8125 41.5122 24.375C41.2977 24.268 41.3247 24.1072 41.1372 23.866C41.0836 23.7858 40.8961 23.7321 40.8159 23.6518C40.7352 23.5714 40.7622 23.4375 40.628 23.3304C40.5211 23.2232 40.4405 23.3035 40.3336 23.2232C40.2264 23.1162 40.1994 22.9821 40.1191 22.9019C40.0655 22.8483 39.8514 22.8216 39.7977 22.7679C39.6639 22.6339 38.4852 22.3928 38.5389 22.1249C38.6457 21.723 38.8602 21.4284 38.8602 21.4284C38.8602 21.4284 39.3691 20.6784 39.878 20.7051C40.3869 20.7319 40.8691 20.8391 41.1372 20.598C41.432 20.33 43.0929 21.3212 43.0122 22.1784Z" fill="#1C2541"/>
<path d="M39.53 10.3381C39.53 10.3381 41.2175 9.93623 42.3695 11.0346C43.5215 12.1598 43.4409 13.5527 43.0929 14.4099C43.3872 14.7581 43.9231 15.7224 43.5215 16.8743C45.2892 18.3744 44.5126 20.6783 42.932 22.2052C42.932 22.2052 42.557 20.8122 41.057 20.7318C41.1106 20.1962 39.6639 19.7674 40.3336 18.3744C39.3155 18.1334 39.3425 17.4368 39.1816 16.5797C39.0477 15.7224 39.53 10.3381 39.53 10.3381Z" fill="#1C2541"/>
<path d="M38.9139 11.0881C38.9139 11.0881 40.8691 10.097 42.0211 11.2221C43.1731 12.3473 42.8514 13.5794 42.5034 14.4366C42.7981 14.7848 43.4945 15.7761 43.0659 16.9547C42.9856 17.2226 42.3961 17.2226 41.9675 17.9191C43.0389 17.3028 43.7086 17.4636 43.9498 18.2404C44.3248 19.4459 43.4945 20.8924 42.7711 21.6961C42.7711 21.6693 42.7445 21.6424 42.7445 21.6157C42.6373 22.0176 42.5034 22.7944 41.6998 23.6516C41.2978 24.0802 40.9764 24.0267 40.5208 23.9195C39.9853 23.7855 39.7978 23.5443 39.0478 23.1426C38.6191 22.9016 38.8603 22.6068 38.8603 22.3658C38.8603 22.3122 38.9135 22.2317 38.9941 22.1247C39.0478 21.9907 39.2083 21.7766 39.4494 21.5354C39.4494 21.5354 39.7978 21.0532 40.3066 21.0799C40.8159 21.1068 41.3514 20.9997 41.4856 20.8657C41.4856 19.9281 40.4139 19.9013 40.7889 18.294C40.8159 18.2137 40.9498 18.0797 41.3784 18.0261C40.7353 17.8921 40.4409 17.8653 39.9853 17.4368C39.6639 17.1422 39.4228 16.7671 39.3421 16.285C39.1816 15.4546 38.9139 11.0881 38.9139 11.0881Z" fill="#F0EFEF"/>
<path d="M33.2614 9.40048C33.1007 9.18609 32.2703 8.11464 30.6898 7.68601C30.2343 7.55203 29.9398 7.9271 29.4844 8.195C29.3504 8.11464 28.7611 7.84674 28.4397 8.03416C28.1182 8.22155 27.904 8.40924 27.5824 8.54311C27.4216 8.46275 26.9931 8.46275 26.6449 8.59663C26.2966 8.70384 25.7608 8.94489 25.2518 9.64141C24.9304 10.7933 30.9308 9.93601 30.9308 9.93601L33.2614 9.40048Z" fill="#1C2541"/>
<path d="M33.3152 9.40054C32.4578 9.10579 32.5918 8.11471 30.6899 7.95398C30.3148 7.92717 30.0737 8.22177 29.8058 8.40931C29.9398 8.54329 30.0737 8.75757 30.1541 8.97181C29.913 8.70402 29.4844 8.35564 29.0556 8.27528C28.6539 8.19507 28.386 8.48967 27.9574 8.70402C28.0376 8.78423 28.1181 8.91826 28.2251 9.07909C27.85 8.83804 27.5823 8.75768 27.0733 8.94511C26.725 9.05213 26.0554 9.34688 25.5464 10.0702C25.225 11.2221 30.9576 9.93619 30.9576 9.93619L33.3152 9.40054Z" fill="#F8F4F9"/>
<path d="M38.3514 9.82916C38.3514 9.82916 38.3514 9.53444 38.3244 9.26669C38.3244 9.21314 38.1102 9.07912 38.1102 9.02561L38.0566 8.97194C38.0566 8.97194 38.4853 8.73089 38.8066 8.86488C39.155 8.97194 39.3425 9.42738 39.3425 9.42738C39.9586 9.21314 40.0119 9.45423 40.3066 9.77564C40.9498 9.64162 41.03 9.88271 41.432 10.4722C41.432 10.4722 40.9497 10.3918 40.0122 10.5524C39.1014 10.6863 38.3514 9.80234 38.3514 9.82916Z" fill="#1C2541"/>
<path d="M38.2441 9.69516C38.2441 9.69516 38.405 9.56117 38.351 9.53432C38.6458 9.37363 39.0478 9.18621 39.2353 9.69516C39.8514 9.48081 39.9316 9.77552 40.2264 10.0971C40.9764 9.74882 41.03 10.1773 41.0836 10.3648C40.8425 10.3648 40.4945 10.3917 40.0123 10.4452C39.1014 10.5792 38.2171 9.66834 38.2441 9.69516Z" fill="#F8F4F9"/>
<path d="M29.1362 9.02551C29.1362 9.02551 30.6631 9.56116 31.949 9.4808C33.2348 9.37374 35.4314 9.26656 36.61 9.96309C36.61 9.96309 37.8155 9.53435 38.9405 9.82906C40.0659 10.1237 42.1284 12.0525 41.5122 14.0884C41.4586 14.2224 41.1106 14.4366 40.7086 14.5706C40.7086 14.5706 40.9231 15.4814 40.5481 16.2314C40.1727 16.9547 39.3425 18.3478 39.3155 20.2765C39.2889 20.5979 39.2356 21.2675 39.1816 21.589C37.0923 21.5087 33.8778 20.7317 30.7168 20.7854C30.7434 20.4373 30.7703 20.2229 30.7971 19.8746H30.8774C30.7166 18.9906 30.6631 18.5352 30.5022 17.8655C29.4843 17.2226 28.4127 16.4726 27.5021 15.0527C26.6181 13.6329 29.1362 9.02551 29.1362 9.02551ZM39.4764 23.4911C39.4764 23.4911 41.1372 29.4381 39.1816 31.9294C39.1816 31.9294 39.4764 33.0812 38.8066 34.3135C38.6994 34.8492 38.5655 35.3315 38.4852 35.8671C38.1369 38.0907 37.5476 39.0282 37.3869 42.591L35.7795 42.564C35.7795 42.564 35.5919 39.9927 35.0294 38.6262C34.7081 37.8495 33.4489 36.8047 33.5027 35.7601C33.5562 34.9564 33.7169 34.2867 35.0832 33.2151C35.1903 31.6615 33.6366 30.188 33.8778 24.4018L39.4764 23.4911Z" fill="#1C2541"/>
<path d="M38.9941 23.2499C39.4227 25.9823 40.4139 30.0273 38.6191 32.0095C38.7252 32.5121 38.7342 33.0304 38.6457 33.5364C38.5925 33.8578 38.4852 34.2061 38.3514 34.5811C38.0832 35.224 37.9762 36.1616 37.8958 36.7241C37.5476 38.9476 37.5476 39.0548 37.3869 42.6177L35.7795 42.5907C35.7795 42.5907 35.5919 40.0189 35.0294 38.6532C34.7081 37.8762 34.0383 37.2065 33.9848 36.1617C33.9313 35.3582 34.4938 33.7509 35.8332 33.8044C35.7529 30.5631 34.2527 31.2059 33.8509 24.4554L38.9941 23.2499ZM29.1362 9.02551C29.1362 9.02551 29.7255 9.21305 30.3684 9.26656C31.0113 9.32011 31.7079 9.26656 32.3239 9.23975C33.6097 9.13269 35.4314 8.99866 36.6368 9.69519C36.6368 9.69519 37.3065 9.4808 38.03 9.53435C38.3514 9.56116 38.6727 9.82906 39.0477 9.93624C40.2264 10.2308 41.3514 12.1864 40.8425 13.9545C40.7889 14.0885 40.4139 13.9545 39.9852 14.0885C40.0655 14.4636 40.1191 15.3208 39.6905 16.2315C39.2352 17.1424 38.6457 18.3211 38.753 20.5713C35.9402 20.4373 34.6812 20.2499 31.8951 20.1158C31.6541 19.1246 31.4932 18.1335 31.4665 17.6246C31.8416 17.437 32.0557 17.2764 32.3506 16.9548C31.547 17.0889 31.2255 17.0352 30.7432 16.7673C30.261 16.4994 29.4038 15.6422 28.9752 15.0797C28.9217 15.026 28.6271 15.91 27.9574 15.937C27.7162 15.5887 28.7342 14.5974 28.5466 14.2225C27.8771 12.8562 29.1362 9.02551 29.1362 9.02551Z" fill="#F0EFEF"/>
<path d="M39.2082 21.0265C39.2082 21.0265 39.2619 21.9909 39.2619 22.2319C39.2619 22.4998 39.4764 23.3034 39.503 23.6785C39.2082 24.1874 37.9225 25.3394 35.592 25.768C33.2882 26.2501 30.2344 22.6339 30.2344 22.6339C30.3147 22.2856 30.5826 21.2675 30.7702 20.7319C30.797 20.6783 30.8505 20.5443 30.8505 20.4908C31.0917 20.1425 39.2082 21.0265 39.2082 21.0265Z" fill="#1C2541"/>
<path d="M38.6191 21.1069C38.6191 21.7766 38.7264 22.2589 38.8066 22.6875C38.9405 23.4643 39.1546 23.9733 39.1546 24.4823C39.1546 26.0359 37.1189 25.768 35.4044 25.8216C33.1006 26.3039 31.1451 22.6875 31.1451 22.6875C31.3058 22.0713 31.413 21.3749 31.6541 20.7855C31.6808 20.4641 31.7344 20.0623 31.7611 19.8748C35.0293 19.8748 37.333 20.0623 38.6724 20.1961C38.7264 20.4908 38.6728 20.9997 38.6191 21.1069Z" fill="#F0EFEF"/>
<path d="M36.0473 24.5625C36.0473 24.5625 34.6276 21.4015 30.3682 22.3393C29.3504 25.2055 27.9841 28.5005 28.8682 32.0633C27.9841 33.2688 26.9662 33.9386 26.9662 36.1619C26.9662 38.3854 27.0733 38.7604 27.0733 38.7604L30.2075 38.9213C30.2075 38.9213 31.2254 37.6088 31.6272 36.1888C31.7344 35.7869 31.8416 35.0637 31.7612 34.2333C31.8683 34.0726 32.3237 33.6976 32.3774 32.9743C32.3774 32.9743 33.9043 32.1708 34.7884 30.2152C35.6189 28.4469 35.4045 26.92 36.0473 24.5625Z" fill="#1C2541"/>
<path d="M36.0474 24.5626C35.9672 24.268 34.8956 21.3749 30.9309 22.232C28.6004 28.4469 29.4576 31.0185 29.8058 32.1435C28.2252 34.1526 27.502 34.5812 27.8236 38.6532H29.9131C30.8774 37.1262 31.0917 36.5636 31.1453 34.5545C31.1453 34.4741 30.8507 34.7152 30.6363 34.9831C30.7971 34.1527 31.2525 33.992 31.6007 33.483C31.7614 33.2687 31.8953 32.9472 31.8953 32.5186C33.7705 31.2596 34.467 29.6791 34.8687 28.045C35.1903 26.92 35.5653 25.0715 36.0474 24.5626Z" fill="#F0EFEF"/>
<path d="M29.4308 20.2498C29.4308 20.2498 30.1541 20.2765 30.7972 20.4908C31.4133 20.705 31.4133 20.8389 31.6544 21.107C31.8954 21.375 32.4848 21.7766 32.3777 22.1784C32.324 22.3928 32.1902 22.4463 32.0026 22.6339C31.9223 22.7142 31.3328 23.3571 31.1989 23.4374C31.1186 23.491 31.0114 23.5714 30.931 23.625L30.5293 23.8929C30.2614 24.0269 30.0738 24.1072 29.7792 24.0804C29.7792 24.0804 29.1095 24.0536 28.6808 23.5983C28.6808 23.5983 28.6273 23.3839 28.7344 23.2769C28.7344 23.2769 28.1718 22.7946 28.0111 22.4732C27.8503 22.1519 27.8503 21.6964 27.9576 21.4553C28.0111 21.214 29.0557 20.5444 29.4308 20.2498ZM30.1006 46.3144L30.0203 46.9841C30.0203 46.9841 29.7792 47.2789 27.9844 47.2523C26.1628 47.2253 25.6807 46.6628 25.5199 46.368L25.4129 45.6716C25.4129 45.6716 25.7611 45.1628 25.8415 45.1628C26.4308 45.2164 28.44 46.02 29.833 46.2341C29.9666 46.2341 29.9933 46.2878 30.1006 46.3144ZM33.9848 44.9483C33.9848 45.243 33.958 45.243 33.958 45.5378C34.2794 45.7789 35.0833 45.9128 36.61 45.8858C38.8333 45.8321 40.8961 46.5555 43.4143 46.1269L43.4409 45.6446L43.1998 45.618L34.2794 44.8946L33.9848 44.9483Z" fill="#1C2541"/>
<path d="M35.9404 45.8858H36.61C38.0566 45.8325 39.4228 46.1539 40.8961 46.2342C41.6731 46.2072 42.6373 46.0197 42.557 45.4572L34.9493 44.8144C34.4938 45.3233 34.8419 45.7519 35.9404 45.8858ZM27.2074 34.6081C27.4485 34.7689 29.0826 35.7333 31.7346 35.5993C31.6809 36.1082 31.7078 37.0995 30.5291 38.8407C29.9398 39.6979 29.4307 41.1979 29.3237 43.0999C29.3505 43.5285 29.5916 43.9035 29.2701 44.466C29.3772 44.8144 29.8058 45.5108 30.0202 45.9394C30.2344 46.368 30.3416 46.8503 28.9217 46.8773C27.4752 46.9039 25.1446 46.743 25.4662 45.618C25.627 45.0289 26.0823 44.4128 26.136 44.1713C26.1895 43.9305 26.1895 43.2072 26.6448 42.7249C27.0467 41.3854 26.9127 40.0999 26.8325 38.8943C26.6985 37.635 26.6716 35.6261 27.2074 34.6081ZM29.6987 12.7758C31.6007 10.2309 29.9933 8.19513 26.9397 8.81114C25.7073 9.05223 24.4752 9.90955 24.3947 11.4632C23.9929 11.5167 23.0822 11.5702 22.6267 13.2311C22.2786 14.517 22.0911 14.758 21.4748 15.4009C21.073 15.8563 21.5016 16.7939 21.7962 17.4637C22.7875 19.7675 25.8413 19.9817 27.904 21.723C28.6004 21.5355 29.3237 20.7587 29.5381 20.2497C27.7968 18.1869 28.1717 17.3833 27.4752 16.3119C28.2254 16.0439 29.9398 14.9992 29.6987 12.7758Z" fill="#1C2541"/>
<path d="M29.3236 12.615C29.4307 12.4542 29.6182 12.1061 29.6987 11.9721C29.7255 11.9453 30.0201 12.4542 30.047 12.4275C30.7702 11.2487 30.9577 9.53431 30.1272 9.37359C29.9397 9.34674 29.5915 9.26652 29.2968 9.1592C28.7612 8.97166 28.279 8.97166 27.4217 9.1325C26.243 9.34673 25.0644 10.204 25.0644 11.4363C25.0644 11.5166 25.8946 11.7577 26.1358 12.7489C25.7339 12.1863 25.0374 11.5701 24.207 12.1059C23.3229 12.6684 23.7784 13.9543 22.5998 15.2936C22.1978 15.7491 22.2515 16.2849 22.68 17.3564C23.3765 19.0441 26.6715 19.9548 28.4663 21.5621C28.8949 21.3746 29.1895 20.9459 29.4039 20.6245C28.1984 19.3655 27.7161 18.1867 27.368 17.3295C26.9394 16.3384 26.4571 15.7759 25.5195 15.0256C26.0018 15.2132 26.3769 15.4007 26.591 15.5614C26.832 15.7221 27.1803 15.749 27.5019 15.6418C28.6539 15.2402 29.2701 13.6329 29.3236 12.615Z" fill="#F0EFEF"/>
<path d="M40.9764 13.0436C40.8961 14.0616 40.1461 13.5526 39.7441 13.3651C38.9405 13.0168 38.1369 12.7757 37.1993 12.7757C36.2618 12.7757 35.0562 12.8561 34.0116 13.124C32.5651 13.5258 32.1363 13.4991 31.4935 13.1775C30.8507 12.8293 29.7257 11.972 29.7257 11.972C29.7257 11.972 29.6989 12.2399 29.9667 12.5882C30.3149 13.0168 31.0919 13.5526 32.1365 13.9007C32.6454 14.0616 33.0474 13.9543 33.5028 13.8472C35.8869 13.2579 38.405 13.1507 40.5211 14.4365C40.6284 14.4901 41.0034 14.3294 41.1643 14.0883C41.3784 13.7402 40.9764 13.0436 40.9764 13.0436Z" fill="#1C2541"/>
<path d="M36.5296 2.00697C36.4492 1.7659 35.8598 1.33716 34.4937 1.33716C33.0203 1.33716 32.5918 1.7926 32.5651 2.03367C32.5651 2.11402 32.4579 2.97138 32.431 3.3195C32.431 3.3195 32.431 3.74811 32.4577 4.39094C32.4846 4.81957 32.5918 5.06066 32.6453 5.62327C32.6988 6.21247 32.8597 6.58754 33.1543 7.06979C33.2882 7.15004 33.3953 7.23052 33.5293 7.25737C34.0651 7.36439 35.0027 7.39124 35.5117 7.25737C35.8063 7.17701 36.1813 6.66802 36.2617 6.21258C36.3688 5.65008 36.4759 5.24819 36.5028 4.90004C36.5563 4.55193 36.5831 3.77493 36.6098 3.56057C36.6903 2.97138 36.5563 2.0605 36.5296 2.00697Z" fill="#F0EFEF"/>
<path d="M33.7169 35.1171C33.7169 35.1171 35.1368 35.7332 38.6461 35.1974C38.6461 35.1974 37.6549 40.1801 38.1103 42.6713C38.1103 42.6713 38.5655 43.3144 41.9409 44.5463C41.9409 44.5463 43.4413 44.9216 43.3876 45.6716C43.3876 45.6716 43.4413 45.8325 41.6195 45.7785C39.7981 45.7249 38.0836 45.4035 36.8781 45.4035C35.6726 45.4035 34.3867 45.4571 34.1725 45.1091C33.9314 44.7878 34.226 43.9571 34.5743 43.4749C34.9495 42.966 34.8422 42.5906 34.8155 41.6801C34.7349 39.2959 32.9132 36.8315 33.7169 35.1171Z" fill="#1C2541"/>
<path d="M33.4222 35.5725C33.2346 35.8404 33.4489 36.8582 33.7168 37.8495C33.9847 38.8406 34.5741 39.4301 34.708 41.064C34.8419 42.6713 34.8687 42.8858 34.4133 43.8229C33.9578 44.7604 33.8239 45.618 35.4044 45.6446C36.9848 45.6716 37.8422 45.618 39.4494 45.8591C41.0566 46.1003 41.6191 46.1805 42.5034 46.0466C43.3873 45.9128 43.5748 45.618 43.1998 45.3503C42.8248 45.0821 41.2711 44.7877 40.6014 44.2515C39.9583 43.7696 38.1369 42.9656 38.1103 42.7515C38.03 42.0281 38.003 39.4031 38.1369 38.5459C38.2708 37.6886 38.4583 36.4563 38.5119 36.1348C38.5655 35.8134 38.8333 35.4919 38.378 35.5991C37.9226 35.7061 36.2082 35.9473 34.9224 35.867C33.6365 35.7867 33.5027 35.492 33.4222 35.5725Z" fill="#F8F4F9"/>
<path opacity="0.3" d="M34.3331 43.8498C34.7884 44.0643 35.4582 44.2248 35.9672 44.2248C35.9672 44.2248 35.7795 45.1091 36.0742 45.6446C36.3688 46.1805 33.9312 45.8591 33.9312 45.8591L33.8241 43.9571L34.3331 43.8498ZM41.432 46.1538C41.8606 46.0196 42.1554 45.5377 41.807 45.0821C41.432 44.6268 41.1106 44.5466 41.5925 44.5196C42.0748 44.493 43.8429 45.5643 43.8429 45.5643L42.932 46.3946L41.432 46.1538ZM33.3419 36.6171C33.958 36.8314 34.8956 36.885 35.6993 36.8581C36.5029 36.8314 37.7083 36.7241 38.4853 36.4564C39.2619 36.1885 38.9405 36.751 38.9405 36.751L38.5119 37.1529C38.5119 37.1529 37.4941 37.5547 35.8333 37.5281C33.8778 37.5011 33.2883 37.2869 33.2883 37.2869L33.3419 36.6171ZM33.3954 37.9567C34.0117 38.1708 34.9491 38.2245 35.7528 38.1975C36.5564 38.1708 37.628 38.1708 38.405 37.8761C38.7264 37.7692 38.5389 38.2245 38.5389 38.2245L38.405 38.4656C38.405 38.4656 37.3601 38.8406 35.726 38.8136C33.7705 38.787 33.4222 38.6261 33.4222 38.6261L33.3954 37.9567Z" fill="#1C2541"/>
<path d="M31.6273 19.1782C31.6273 19.3658 33.7169 20.4104 34.8687 20.6248C36.0207 20.839 38.4316 20.6248 38.8066 20.5444L38.753 20.9195C38.753 20.9195 35.8866 21.3481 33.6901 20.7588C31.4934 20.1695 31.7346 20.0355 31.7346 20.0355L31.6273 19.1782Z" fill="#1C2541"/>
<path d="M27.1538 42.0284C27.4752 42.1889 28.6272 42.4837 29.3772 42.3228C29.4843 42.2962 29.3772 40.4745 29.6719 39.6442C30.1005 38.4922 30.797 37.5547 31.1183 35.5189C29.9932 35.4117 28.7075 35.117 28.0377 34.9026C27.1806 37.5281 27.4753 39.7781 27.1538 42.0284ZM28.9487 43.7159C29.1363 43.7696 29.2701 43.9837 29.3238 43.8502C29.4309 43.6087 29.1363 43.1535 29.1094 42.8321V42.8055C28.8684 42.591 27.2343 42.5643 27.3414 42.6712C27.1539 43.0196 26.8593 42.966 26.7523 43.6623C26.6987 44.0107 27.1273 43.716 27.529 43.6893C26.8058 44.1712 25.9754 44.7877 25.8414 45.3232C25.6807 46.0732 25.9486 46.2877 26.7523 46.6897C27.4488 46.8502 28.2792 46.8772 28.922 46.8502C29.6454 46.7163 29.7793 46.3683 29.565 45.8861C29.2433 45.1627 29.029 44.2248 28.9487 43.7159Z" fill="#F0EFEF"/>
<path d="M29.2433 8.91821C30.1273 9.42716 31.3596 9.29329 31.8149 9.26648C31.9221 9.26648 32.9937 9.0789 33.0473 9.1056C33.1543 9.13245 33.1543 9.21281 33.1543 9.21281C33.1543 9.21281 32.7525 9.42705 31.8418 9.48056C30.9845 9.53411 29.9666 9.48056 29.4041 9.21281C28.7343 8.91821 29.2433 8.91821 29.2433 8.91821ZM38.3514 9.42716C38.5119 9.53423 39.5566 9.93615 40.0122 10.4183C40.4139 10.847 40.1997 10.8202 40.1191 10.713C40.0122 10.579 39.1816 10.0165 38.8602 9.8826C38.5389 9.74873 38.1369 9.50753 38.1369 9.45401C38.1369 9.40046 38.3514 9.42716 38.3514 9.42716Z" fill="#1C2541"/>
<path d="M29.1092 20.5443C29.8861 20.4908 30.6898 20.6783 31.1987 21.214C31.4666 21.4819 31.8953 21.7765 31.8417 22.0444C31.8417 22.1247 31.6809 22.3391 31.5471 22.4998C31.4668 22.6068 31.2257 22.8479 31.1452 22.9284C31.0382 23.0088 30.6631 23.3035 30.5827 23.357C30.5024 23.4107 30.3952 23.5447 30.3148 23.5714C30.047 23.7054 29.7523 23.5982 29.4844 23.4644C29.2167 23.3303 29.5381 23.3035 29.2434 23.0892C28.5202 22.5803 28.1182 22.2319 28.413 21.2408C28.4397 21.0533 28.7343 20.8389 29.1092 20.5443Z" fill="#F0EFEF"/>
<path opacity="0.4" d="M22.2785 14.4099C19.8675 15.3743 13.7329 18.4282 11.9918 19.3658C13.4383 20.2765 14.108 22.4731 14.3224 24.6965C14.3491 24.9109 14.3759 25.0984 14.4027 25.3127C14.4294 25.5002 14.4563 25.6341 14.483 25.7146C14.483 25.7414 14.483 25.795 14.5098 25.8217C16.0904 21.5088 21.7425 16.9548 21.9569 16.6066C22.064 16.4459 21.8229 15.7494 22.1979 15.0798C22.6802 14.2223 23.6179 13.8472 22.2785 14.4099ZM28.0111 34.635C29.2433 32.1705 29.2701 29.813 29.2433 27.0538C29.2433 25.9019 30.0737 24.2678 29.6452 24.7232C28.0378 26.5179 23.9929 29.8934 21.073 30.0808C25.1715 29.9469 26.7788 32.0096 28.0111 34.635Z" fill="#1C2541"/>
<path d="M9.63434 21.6426C11.1612 20.5444 19.0638 16.3388 20.9658 15.7493C22.8676 15.1331 22.2783 14.4098 22.2783 14.4098C22.2783 14.4098 14.5633 17.7315 9.95575 20.5979" fill="#1C2541"/>
<path opacity="0.4" d="M32.1364 13.9009C31.5202 13.6598 31.0381 14.3831 31.1988 15.0796C31.3597 15.7761 32.8062 16.5529 32.7257 19.0978C32.6722 21.1874 32.2168 22.0444 32.2168 22.0444L31.1988 20.7587C31.1988 20.7587 31.0381 17.8655 30.6898 17.4369C30.3417 17.0083 29.2433 16.2314 28.8147 15.8297C28.3861 15.4277 29.2968 14.8921 29.2433 14.1419C29.1898 13.4187 29.6987 11.9722 29.6987 11.9722L32.1364 13.9009ZM35.86 25.3125C35.8065 27.3215 36.2619 30.2951 36.4493 31.715C36.6369 33.1347 36.8779 33.2419 36.4493 33.8848C36.0207 34.501 35.4582 35.5189 35.4582 35.5189L33.6098 35.3581C33.6098 35.3581 35.0831 33.4829 35.1634 33.1347C35.2437 32.7865 34.4133 30.1345 34.4133 30.1345L35.86 25.3125ZM32.2972 6.56095C32.6723 7.3912 33.1276 7.76627 33.8508 8.00747C34.2794 8.1682 35.9671 8.38255 36.6368 7.6324C36.9314 7.28413 36.7439 6.34656 36.7439 6.34656L35.217 7.57873L33.1543 7.20377L32.9132 6.58765L32.2972 6.56095Z" fill="#1C2541"/>
<path d="M32.4578 8.4093C33.1543 8.86474 34.8956 9.29336 35.3777 9.37373C35.8598 9.48075 36.6367 8.86474 37.0118 8.70401C37.4137 8.51648 38.1103 8.4093 38.9139 9.13264C38.9941 9.213 38.7264 9.56126 38.7264 9.56126C38.6994 9.53441 38.5385 9.53441 38.3244 9.42724C38.1103 9.32018 37.9225 9.2397 37.6011 9.26651C36.2616 9.42724 36.0474 9.88268 34.8687 9.61466C33.6901 9.34661 33.3953 9.13253 32.2435 9.18604" fill="#F8F4F9"/>
<path d="M32.4578 8.4093C33.1543 8.86474 34.8956 9.29336 35.3777 9.37373C35.8598 9.48075 36.6367 8.86474 37.0118 8.70401C37.4137 8.51648 38.1103 8.4093 38.9139 9.13264C38.9941 9.213 38.7264 9.56126 38.7264 9.56126C38.6994 9.53441 38.5385 9.53441 38.3244 9.42724C38.1103 9.32018 37.9225 9.2397 37.6011 9.26651C36.2616 9.42724 36.0474 9.88268 34.8687 9.61466C33.6901 9.34661 33.3953 9.13253 32.2435 9.18604" stroke="#1C2541" stroke-miterlimit="10" stroke-linejoin="round"/>
<path d="M32.2167 8.48975C33.1007 8.86482 34.8152 9.2666 35.2973 9.37377C35.7794 9.48098 36.5563 8.9987 36.9314 8.75765C37.6012 8.32902 38.4582 8.67728 38.8602 9.13272C39.128 9.42732 39.2352 9.61486 39.2352 9.69522C39.2352 9.80225 38.9139 9.69522 38.9139 9.69522C38.7264 9.61486 38.5119 9.58816 38.3514 9.48083C38.1369 9.37377 37.9226 9.21308 37.6013 9.23978C36.2618 9.40062 35.994 9.85591 34.8421 9.58801C33.6903 9.32011 33.3956 9.07906 32.1634 9.15927" fill="#F8F4F9"/>
<path d="M28.0646 33.5097C28.0111 33.4562 28.1182 33.4026 28.0646 33.4026C27.7165 33.4026 27.2343 33.1348 26.9662 32.7597C25.8144 31.0989 24.1267 30.0006 21.0729 30.081C16.492 30.188 14.6704 28.313 14.3223 24.7234C14.1347 22.7679 13.5989 20.8659 12.5006 19.7943L11.8577 20.1962C13.0898 21.2677 13.4918 23.009 13.7597 25.3931C14.1883 28.9827 17.0813 30.6436 20.4567 30.6971C23.966 30.7507 25.225 31.474 26.5375 33.2421C26.9661 33.8046 27.4484 33.9921 27.8233 34.0725L28.0646 33.5097Z" fill="#1C2541"/>
<path opacity="0.4" d="M40.4941 16.285C40.5747 16.6868 40.7889 17.4637 41.2175 17.8386C41.405 18.0262 41.432 18.0797 41.2711 18.0797C41.1102 18.0797 39.9316 18.0262 39.9316 18.0262L39.6102 17.4637L40.4941 16.285Z" fill="#1C2541"/>
</svg>
