<svg width="49" height="48" viewBox="0 0 49 48" fill="none" xmlns="http://www.w3.org/2000/svg">
<path d="M2.32629 24.2775C2.32703 25.5589 2.70771 26.8115 3.42019 27.8766C4.13267 28.9417 5.14497 29.7717 6.32911 30.2616C7.51325 30.7515 8.81604 30.8792 10.0728 30.6288C11.3295 30.3783 12.4838 29.7609 13.3897 28.8545C14.2955 27.9481 14.9123 26.7935 15.162 25.5366C15.4118 24.2797 15.2832 22.9769 14.7927 21.7931C14.3021 20.6092 13.4715 19.5974 12.406 18.8856C11.3405 18.1737 10.0878 17.7938 8.80629 17.7938C7.08796 17.7967 5.44089 18.4809 4.22621 19.6963C3.01151 20.9117 2.32827 22.5592 2.32629 24.2775ZM41 1.5C37.4375 1.5 35.315 4.36875 35.315 9.1725V38.685C35.315 43.4888 37.4338 46.3575 40.9925 46.3575C44.5512 46.3575 46.6775 43.4888 46.6775 38.685V9.19125C46.6737 4.3875 44.5512 1.5 41 1.5Z" fill="#F8F4F9"/>
<path d="M31.0438 2.14124H7.76382C6.29963 2.19457 4.91325 2.8137 3.89627 3.86839C2.8793 4.92308 2.31104 6.33109 2.31104 7.79625C2.31104 9.26138 2.8793 10.6694 3.89627 11.7241C4.91325 12.7788 6.29963 13.3979 7.76382 13.4512V13.5H19.6776V24.2775C19.6776 27.1617 18.5318 29.9278 16.4924 31.9673C14.4529 34.0067 11.6868 35.1525 8.80257 35.1525H8.51007L8.48007 35.19C8.31882 35.19 8.15757 35.1637 7.99257 35.1637C7.24819 35.1642 6.51124 35.3113 5.82375 35.5966C5.13623 35.882 4.51167 36.2999 3.98568 36.8265C2.92341 37.8904 2.32719 39.3322 2.32818 40.8356C2.32918 42.339 2.92731 43.7801 3.99099 44.8425C5.05467 45.9049 6.49677 46.5011 8.00007 46.5C8.16882 46.5 8.34132 46.5 8.50632 46.4738V46.4925H8.80257C14.6961 46.4906 20.3482 44.1502 24.518 39.9851C28.6879 35.8203 31.0349 30.1711 31.0438 24.2775V24.0713V20.4338V20.3925V2.14124Z" fill="#F8F4F9"/>
</svg>
