<svg width="49" height="48" viewBox="0 0 49 48" fill="none" xmlns="http://www.w3.org/2000/svg">
<g clip-path="url(#clip0_206_111)">
<path d="M1.25 0.375V47.25H48.125V0.375H1.25ZM26.0446 40.3174C25.3528 41.7233 24.032 42.6469 22.5016 43.0928C20.15 43.6328 17.9007 43.3249 16.2275 42.3206C15.1077 41.6336 14.2333 40.5761 13.6396 39.3578L17.2096 37.1715C17.2407 37.1846 17.3345 37.3541 17.4598 37.5731C17.915 38.3359 18.3076 38.8759 19.0794 39.255C19.8376 39.5138 21.5023 39.6791 22.145 38.3449C22.5376 37.6661 22.4127 35.4844 22.4127 33.0705C22.4124 29.2774 22.43 25.5 22.43 21.75H26.8209C26.8209 25.875 26.8434 29.7818 26.8209 33.807C26.8303 36.2745 27.0444 38.4743 26.0446 40.3174ZM44.2599 39.0769C42.7336 44.2976 34.2241 44.4671 30.8236 41.0179C30.1051 40.206 29.6547 39.7819 29.2261 38.8447C31.0332 37.8052 31.0332 37.8052 32.7916 36.7879C33.7467 38.256 34.6299 39.0634 36.2188 39.3938C38.3743 39.657 40.5429 38.9164 40.0565 36.627C39.5566 34.7572 35.6428 34.3024 32.9791 32.3029C30.275 30.4867 29.6413 26.0737 31.8635 23.5522C32.6041 22.6196 33.8671 21.9236 35.1924 21.5891L36.5754 21.4103C39.2307 21.3566 40.8905 22.0579 42.1089 23.4184C42.4479 23.7619 42.7246 24.1324 43.2421 24.9353C41.8276 25.8368 41.8321 25.8281 39.806 27.1399C39.3733 26.2076 38.6551 25.6226 37.8961 25.3684C36.7179 25.0114 35.2321 25.3995 34.9239 26.6445C34.817 27.0281 34.8391 27.3851 35.009 28.0189C35.4864 29.1075 37.0884 29.5807 38.5254 30.2411C42.662 31.9189 44.0589 33.7178 44.4024 35.859C44.7331 37.7025 44.3225 38.8984 44.2599 39.0769Z" fill="#F8F4F9"/>
</g>
<defs>
<clipPath id="clip0_206_111">
<rect width="48" height="48" fill="white" transform="translate(0.5)"/>
</clipPath>
</defs>
</svg>
