<svg width="49" height="48" viewBox="0 0 49 48" fill="none" xmlns="http://www.w3.org/2000/svg">
<path d="M18.3564 36.7949C11.1594 38.8057 22.7353 42.9596 31.8995 39.0333C30.3984 38.4498 29.3218 37.7767 29.3218 37.7767C25.2354 38.5492 23.3398 38.61 19.6303 38.1862C16.5688 37.8356 18.3564 36.7949 18.3564 36.7949ZM30.8023 32.8725C25.3858 33.9146 22.2571 33.8812 18.2945 33.4724C15.2304 33.1556 17.2363 31.6706 17.2363 31.6706C9.30988 34.3016 21.6489 37.287 32.7271 34.0466C31.5496 33.6318 30.8023 32.8725 30.8023 32.8725ZM35.0469 10.1568C35.0469 10.1568 19.0228 14.1577 26.6758 22.977C28.9348 25.5776 26.0833 27.9157 26.0833 27.9157C26.0833 27.9157 31.8166 24.9566 29.1841 21.2493C26.7245 17.7937 24.839 16.077 35.0469 10.1568ZM38.7961 40.5858C38.7961 40.5858 40.1195 41.6771 37.3381 42.5205C32.0499 44.1225 15.3234 44.6054 10.6775 42.5846C9.00876 41.8578 12.1396 40.8502 13.1248 40.6376C14.1519 40.4152 14.7384 40.4557 14.7384 40.4557C12.8814 39.1481 2.73351 43.0244 9.58513 44.1363C28.268 47.1648 43.6415 42.7724 38.7961 40.5858ZM32.375 29.211C33.2731 28.5982 34.5136 28.0661 34.5136 28.0661C34.5136 28.0661 30.9796 28.698 27.4588 28.9938C23.1485 29.3553 18.5251 29.4266 16.2043 29.1161C10.7098 28.3814 19.2166 26.3606 19.2166 26.3606C19.2166 26.3606 15.9121 26.1371 11.8501 28.1021C7.04563 30.4252 23.7343 31.4842 32.375 29.211ZM34.4784 34.8903C34.4379 34.9991 34.3029 35.1213 34.3029 35.1213C46.0302 32.0385 41.7185 24.2542 36.1111 26.2244C35.6191 26.3984 35.3611 26.8031 35.3611 26.8031C35.3611 26.8031 35.672 26.6778 36.3654 26.5331C39.2 25.9424 43.2612 30.3277 34.4784 34.8903ZM24.5679 26.2758C22.8376 22.365 16.9704 18.9435 24.5705 12.9412C34.0471 5.46108 29.1845 0.595093 29.1845 0.595093C31.1458 8.32308 22.2654 10.6575 19.0599 15.4702C16.877 18.7496 20.1313 22.2735 24.5679 26.2758ZM34.7956 45.6813C27.6005 47.0358 18.7254 46.8779 13.463 46.0091C13.463 46.0091 14.5408 46.9016 20.0803 47.2582C28.5088 47.7971 41.4552 46.9582 41.7612 42.9697C41.7612 42.9697 41.1725 44.4817 34.7956 45.6813Z" fill="#F8F4F9"/>
</svg>
