<svg width="49" height="48" viewBox="0 0 49 48" fill="none" xmlns="http://www.w3.org/2000/svg">
<path d="M4.10939 12.0678C-0.026485 18.0119 0.48839 25.7463 3.64777 32.0628C3.72277 32.2143 3.80152 32.3632 3.87914 32.5121L4.02689 32.7967L4.11914 32.9606L4.28378 33.2553C4.38203 33.4282 4.48253 33.6003 4.58528 33.7724L4.75741 34.0559C4.87141 34.2401 4.98803 34.4219 5.10728 34.6034L5.25653 34.8337C5.42116 35.0793 5.58953 35.3246 5.76353 35.5654L5.77816 35.5841L5.86366 35.6996C6.01403 35.9069 6.16891 36.1117 6.32566 36.3142L6.49966 36.5354C6.63953 36.7113 6.78165 36.8861 6.9264 37.0601L7.08953 37.2551C7.28412 37.4848 7.48242 37.7111 7.68428 37.9346L7.69665 37.947L7.71953 37.9725C7.91791 38.1877 8.11943 38.4 8.32403 38.6096L8.5179 38.805C8.67653 38.9647 8.83778 39.1219 9.00053 39.2782L9.19815 39.4657C9.41565 39.6709 9.6354 39.8719 9.85965 40.0684L9.87015 40.0766L9.98528 40.1749C10.1829 40.3459 10.3839 40.5157 10.5864 40.6822L10.8354 40.8806C11.0008 41.0134 11.168 41.1439 11.3364 41.2721L11.6042 41.4757C11.7902 41.6126 11.9773 41.7472 12.1663 41.8789L12.371 42.024L12.4273 42.0641C12.6065 42.1875 12.7899 42.3064 12.9733 42.4252L13.2095 42.5827C13.4908 42.7605 13.7758 42.9364 14.0642 43.1062L14.3004 43.2394C14.5123 43.3616 14.7257 43.4816 14.9417 43.599C15.0587 43.662 15.1787 43.7216 15.2964 43.782C15.449 43.8619 15.6005 43.9429 15.7558 44.0205L15.8619 44.0719L16.0498 44.1626C16.2902 44.2774 16.5324 44.3902 16.7773 44.499L16.931 44.568C17.2117 44.6906 17.4946 44.8084 17.7797 44.9209L17.9863 45.0022C18.2503 45.1039 18.518 45.2044 18.7869 45.2989L18.8874 45.3337C19.1825 45.4369 19.4803 45.5325 19.7803 45.6259L19.9959 45.6904C20.3012 45.7822 20.603 45.8921 20.9177 45.9502C40.9198 49.5979 46.73 33.9303 46.73 33.9303C41.8502 40.2877 33.1884 41.9647 24.9815 40.0976C24.6707 40.0275 24.3692 39.9304 24.0658 39.8407L23.8374 39.7714C23.5418 39.6806 23.2478 39.585 22.9554 39.4845L22.8343 39.4406C22.5735 39.3484 22.3143 39.2524 22.0565 39.1522L21.8383 39.0664C21.5563 38.955 21.2758 38.8387 20.9987 38.7172L20.831 38.643C20.5937 38.5357 20.3575 38.4259 20.1227 38.3134L19.9179 38.2151C19.7338 38.1255 19.5515 38.0302 19.37 37.9365C19.2485 37.8724 19.1248 37.812 19.0044 37.7452C18.7834 37.6264 18.5645 37.5034 18.3478 37.3769L18.1262 37.2532C17.8383 37.0833 17.5532 36.9086 17.2712 36.7293L17.0405 36.5756C16.8354 36.4441 16.6325 36.3092 16.4319 36.1709L16.2362 36.0333C16.0429 35.8967 15.8512 35.7581 15.6609 35.6174L15.4063 35.4247C15.2314 35.2918 15.0584 35.1566 14.8873 35.0189L14.6559 34.8333C14.4379 34.6547 14.2224 34.473 14.0094 34.2884L13.9385 34.2288C13.709 34.0263 13.4825 33.8204 13.259 33.6112L13.0674 33.4271C12.902 33.2696 12.7393 33.1109 12.5792 32.9482L12.3879 32.7573C12.1847 32.5494 11.9849 32.3381 11.7887 32.1236L11.759 32.0921C11.5522 31.8653 11.3495 31.6348 11.1512 31.4006L10.9922 31.2116C10.8439 31.0333 10.698 30.853 10.5545 30.6708L10.3944 30.4714C10.2228 30.2495 10.0544 30.0252 9.88928 29.7986C5.33303 23.5833 3.69576 15.0116 7.3374 7.97207M16.9483 7.05932C13.9569 11.3636 14.1197 17.1258 16.4529 21.6779C16.8434 22.4432 17.2854 23.181 17.7759 23.8863C18.224 24.5287 18.7209 25.2929 19.3157 25.8089C19.5331 26.0472 19.757 26.2795 19.9869 26.5057L20.1639 26.6801C20.3872 26.8978 20.6158 27.1101 20.8494 27.3168L20.8772 27.3408L20.8839 27.3476C21.1452 27.5751 21.4121 27.7961 21.6845 28.0102L21.8664 28.1519C22.1403 28.363 22.4195 28.5669 22.7038 28.7636L22.7282 28.7819C22.8542 28.8689 22.9824 28.95 23.1103 29.034L23.2914 29.1536C23.4954 29.2844 23.702 29.4119 23.912 29.5342L24.0002 29.5852C24.1813 29.6894 24.3647 29.7922 24.5488 29.8919L24.7442 29.9936C24.8713 30.0599 24.9984 30.1278 25.1278 30.1923L25.1859 30.2186C25.4495 30.3483 25.7154 30.4736 25.9869 30.5917L26.1639 30.6644C26.381 30.7567 26.6004 30.8467 26.8202 30.9307L27.1014 31.0339C27.3013 31.1081 27.5019 31.1756 27.704 31.2434L27.9767 31.3309C28.2643 31.4201 28.5485 31.5329 28.8482 31.5828C44.2918 34.1414 47.8573 22.2506 47.8573 22.2506C44.6435 26.8792 38.4193 29.0879 31.7777 27.3637C31.484 27.2865 31.1923 27.2022 30.9028 27.1109L30.6399 27.0258C30.4347 26.9595 30.2308 26.8892 30.0283 26.8151L29.7523 26.7123C29.5313 26.6275 29.3118 26.539 29.0938 26.4468L28.9164 26.3718C28.6448 26.2537 28.3763 26.1287 28.1109 25.9972C27.9748 25.9308 27.8409 25.8607 27.7067 25.7917L27.4734 25.6717C27.3013 25.5785 27.1309 25.4822 26.9623 25.383L26.84 25.3136C26.6311 25.1918 26.4247 25.0657 26.2209 24.9356L26.0342 24.8111C25.8996 24.7241 25.766 24.6357 25.6333 24.5459C25.3502 24.3492 25.0718 24.1456 24.7985 23.9354L24.6107 23.7873C21.7037 21.4923 19.3989 18.3551 18.3035 14.7982C17.1553 11.1097 17.4028 6.96895 19.3922 3.60822M27.7464 3.31759C25.9832 5.91257 25.8099 9.13532 27.0335 12.0011C28.3239 15.0434 30.9677 17.4296 34.0535 18.5617C34.1807 18.6086 34.3082 18.6506 34.4368 18.6944L34.6059 18.7481C34.7878 18.8051 34.9682 18.8714 35.156 18.9071C43.6835 20.5548 45.9965 14.5312 46.6119 13.6443C44.5862 16.5614 41.1812 17.2616 37.0033 16.2476C36.6733 16.1677 36.3107 16.0484 35.9927 15.9356C35.5841 15.7904 35.1834 15.6241 34.7923 15.4372C34.05 15.0799 33.3451 14.6498 32.6878 14.1532C28.9494 11.3163 26.627 5.90545 29.0664 1.49884" fill="#F8F4F9"/>
</svg>
