<svg width="49" height="48" viewBox="0 0 49 48" fill="none" xmlns="http://www.w3.org/2000/svg">
<path fill-rule="evenodd" clip-rule="evenodd" d="M34.4342 21.4808C34.2954 19.6845 33.8732 17.9524 33.2859 16.2555C32.0694 12.4665 30.1172 9.11327 27.3673 6.22802C26.6721 5.49827 25.8988 4.82965 25.4139 3.9214C25.1072 3.34688 24.8151 2.7645 24.5162 2.1855L24.3268 1.70813C24.2949 1.81763 24.2747 1.85663 24.2736 1.896C24.2492 2.83988 23.7144 3.48001 23.0484 4.0774C22.2996 4.74977 21.6024 5.47952 20.8828 6.18415L18.6699 9.09527C18.0729 10.1921 17.4767 11.289 16.8804 12.3859L15.6842 15.6173L15.6482 15.6675C14.9897 17.8305 14.6649 20.0543 14.5052 22.3005C14.4452 23.1446 14.5134 24.0011 14.5611 24.8498C14.6289 26.0629 14.8397 27.2554 15.1558 28.4291C16.3041 32.6936 18.6343 36.231 21.8199 39.2362C22.4121 39.7946 23.0196 40.3024 23.6376 40.8337C23.7433 40.4719 23.8277 40.11 23.9237 39.7481C24.0197 39.3877 24.1168 39.0292 24.1817 38.6677C24.1164 39.0292 24.0433 39.3877 23.9709 39.7481L23.6612 40.8337L23.9379 41.7716L24.1944 43.2281L24.3167 44.748C24.3156 45.0566 24.3032 45.366 24.3219 45.6742C24.3264 45.753 24.4299 45.8257 24.4877 45.9015L25.0037 46.0826L25.5414 46.2919L25.4492 44.9407L25.4451 43.6102L25.6307 41.5834L25.7653 41.142L26.1504 40.4595C26.6259 40.077 27.1363 39.7297 27.5694 39.3041C28.3532 38.5339 29.1351 37.7539 29.8363 36.9105C30.7491 35.8174 31.5284 34.6194 32.1579 33.342C32.5787 32.4855 32.9747 31.6118 33.3024 30.7166C33.5912 29.9276 33.7701 29.0985 33.9977 28.287C34.0179 28.2285 34.0449 28.1712 34.0577 28.1115C34.5279 25.9212 34.6071 23.7086 34.4342 21.4808Z" fill="#F8F4F9"/>
</svg>
