<svg width="49" height="48" viewBox="0 0 49 48" fill="none" xmlns="http://www.w3.org/2000/svg">
<path d="M21.2187 1.55622C21.0949 1.59747 20.4312 1.81122 19.7337 2.03997C15.9837 3.26622 13.3287 4.68748 12.6687 5.81248C12.4174 6.24373 12.3687 6.59248 12.5187 6.94123C12.6837 7.33498 12.9874 7.63123 13.8199 8.21998C14.2099 8.49373 14.8737 9.06748 15.3049 9.49873C17.3674 11.5575 18.3687 14.0812 18.2562 16.935C18.1287 20.145 16.6249 23.355 13.7449 26.5687C12.7399 27.69 11.7087 28.6237 9.72869 30.21C8.07869 31.53 7.18244 32.385 6.57119 33.2137C4.69994 35.7637 5.19869 38.0362 8.05619 39.9337C10.5762 41.61 15.0162 43.005 20.2474 43.7625C22.0024 44.0175 23.9862 44.1787 24.4624 44.1075L24.7962 44.0587L25.3212 43.1137C27.9762 38.3325 29.3187 33.825 29.4799 29.16C29.5512 27.0787 29.2887 24.615 28.8424 23.175C28.7599 22.9162 28.6999 22.695 28.7112 22.6875C28.7187 22.68 29.4612 22.4587 30.3612 22.1887C35.0899 20.7787 39.665 19.6687 43.445 19.0125C44.18 18.885 44.81 18.7537 44.8437 18.72C45.0462 18.5212 44.4575 17.6025 43.5012 16.6162C39.965 12.9675 33.7174 10.1887 26.3862 9.00748C24.9724 8.77873 24.7999 8.69623 24.2749 8.00248C23.4424 6.89998 22.6587 5.01373 21.5899 1.56372C21.5562 1.45872 21.5224 1.45872 21.2187 1.55622ZM21.7062 2.85372C22.1187 3.97498 22.3699 4.85623 22.3699 5.16748V5.41123L22.0212 5.36998C20.1312 5.15248 17.1162 4.68373 16.4749 4.51123C16.3099 4.46623 16.2162 4.40248 16.2462 4.35373C16.2949 4.27498 16.9362 3.96748 18.8412 3.10122C20.6187 2.29497 21.2937 1.99497 21.3462 1.99122C21.3687 1.99122 21.5299 2.37747 21.7062 2.85372ZM17.7087 5.21998C20.0149 5.70373 21.6949 6.00748 22.0662 6.00748C22.4262 6.00748 22.3849 6.03748 20.6899 7.07248C19.3812 7.86748 19.2312 7.94248 18.9012 7.94248H18.5412L17.5737 6.95998C16.3999 5.77123 15.6049 4.90123 15.6049 4.80373C15.6049 4.76248 15.6274 4.75123 15.6612 4.76998C15.6912 4.78498 16.6174 4.99123 17.7087 5.21998ZM16.0062 6.31123C16.5724 6.97123 17.0112 7.52623 16.9887 7.55248C16.9399 7.60123 15.3237 7.19998 14.3337 6.89623C13.4712 6.62998 13.3662 6.53998 13.5949 6.24748C13.7449 6.05248 14.8587 5.12248 14.9412 5.11873C14.9637 5.11498 15.4399 5.64748 16.0062 6.31123ZM23.3637 7.67998C23.5887 8.21623 23.7612 8.65123 23.7537 8.65873C23.7424 8.66623 20.7124 8.19748 20.4462 8.14498C20.3899 8.13373 20.9037 7.78498 21.5937 7.36498C22.2837 6.94498 22.8724 6.62623 22.9024 6.65998C22.9324 6.68623 23.1387 7.14373 23.3637 7.67998ZM16.7562 8.69623C16.8162 8.75623 17.5399 11.0812 17.5062 11.1112C17.4949 11.1225 17.1499 10.725 16.7412 10.2187C16.3287 9.71248 15.7099 9.00373 15.3537 8.63248L14.7124 7.96123L15.7137 8.30623C16.2612 8.49748 16.7337 8.67373 16.7562 8.69623ZM19.6512 9.00748C20.9074 9.18748 21.9499 9.34873 21.9687 9.36748C21.9837 9.38623 21.2262 9.97498 20.2812 10.68C19.3362 11.3812 18.5562 11.9475 18.5449 11.9362C18.5337 11.925 18.4399 11.6325 18.3349 11.2837C18.2299 10.935 17.9599 10.2112 17.7387 9.66748C17.5174 9.12373 17.3449 8.68123 17.3524 8.68123C17.3599 8.68123 18.3949 8.83123 19.6512 9.00748ZM22.8087 10.0125C23.0862 10.6612 23.1949 11.2837 23.2399 12.525C23.2624 13.1925 23.2662 13.7362 23.2437 13.7362C23.2212 13.7362 22.8237 13.5975 22.3624 13.4325C21.4399 13.0987 19.6324 12.5025 19.4187 12.4612C19.3249 12.4425 19.7599 12.0262 20.9037 11.04C21.7962 10.2712 22.5537 9.64498 22.5874 9.64498C22.6249 9.64873 22.7224 9.81373 22.8087 10.0125ZM26.0487 10.17C27.4399 10.455 28.6549 10.71 28.7524 10.7325C28.8912 10.7662 28.5574 10.9762 27.0874 11.7825C26.0749 12.3375 24.9274 12.9675 24.5374 13.1887C24.1437 13.41 23.8212 13.5787 23.8137 13.5712C23.8062 13.5637 23.8474 13.3575 23.9037 13.11C24.1137 12.21 23.9824 11.085 23.5624 10.1887C23.4387 9.92998 23.3374 9.70123 23.3374 9.68248C23.3374 9.61873 23.5887 9.66373 26.0487 10.17ZM29.8399 11.8687C29.7687 12.1837 29.6149 12.72 29.4912 13.0687C29.2249 13.8337 28.2537 15.8175 28.1224 15.87C28.0699 15.8925 27.6124 15.6787 27.1137 15.4012C26.6149 15.1237 25.8912 14.7562 25.5124 14.5875L24.8224 14.28L27.3687 12.6487C29.4799 11.295 29.9187 11.04 29.9412 11.16C29.9562 11.235 29.9112 11.5537 29.8399 11.8687ZM31.6999 11.2875C34.3399 12.045 37.1262 13.0687 36.9649 13.2225C36.9312 13.2525 36.5862 13.3687 36.1999 13.4775C34.2087 14.0437 31.4374 15 30.1399 15.57C29.7387 15.7462 29.3899 15.8775 29.3712 15.8587C29.3524 15.84 29.5099 15.255 29.7237 14.565C30.1399 13.2037 30.6237 11.3662 30.6237 11.13C30.6237 11.025 30.6612 10.9912 30.7549 11.0175C30.8224 11.0362 31.2462 11.1562 31.6999 11.2875ZM20.3487 14.025C20.9524 14.2237 21.6537 14.49 21.9124 14.6212C22.3812 14.8575 22.3849 14.8612 22.2499 15.0075C22.0099 15.2737 19.3887 17.715 19.3137 17.7412C19.2762 17.7562 19.2462 17.385 19.2462 16.8487C19.2424 15.9187 19.1374 14.2425 19.0587 13.8675C18.9987 13.5937 19.0474 13.5975 20.3487 14.025ZM37.1112 14.5087C36.5337 15.4612 35.5849 16.8187 34.8987 17.6737C34.1974 18.5512 32.7162 20.2012 32.6299 20.2012C32.5962 20.2012 32.3824 19.935 32.1537 19.605C31.3099 18.4012 30.3312 17.3587 29.4724 16.7512C29.3899 16.695 29.3412 16.6312 29.3599 16.6125C29.3787 16.5937 30.7887 16.0762 32.4837 15.4612C35.9187 14.2162 37.4299 13.71 37.5237 13.7775C37.5312 13.7887 37.3474 14.115 37.1112 14.5087ZM39.26 14.3475C41.63 16.0012 43.2425 17.34 43.8275 18.1387C43.9737 18.3412 44.0825 18.5137 44.0675 18.525C44.0525 18.5362 43.2912 18.6225 42.3687 18.7125C38.69 19.0762 36.0687 19.4437 34.6812 19.7962C34.3099 19.89 33.9987 19.9612 33.9949 19.9575C33.9874 19.95 34.2312 19.65 34.5424 19.2787C36.1474 17.355 37.5949 15.3525 38.135 14.3137C38.2775 14.04 38.4162 13.815 38.4462 13.815C38.4725 13.8112 38.8362 14.0512 39.26 14.3475ZM25.9737 16.3987C26.4274 16.6425 26.7762 16.8675 26.7574 16.905C26.7237 16.9725 22.7224 19.1625 22.6887 19.1325C22.6812 19.125 22.8874 18.4687 23.1499 17.6662C23.4124 16.8637 23.6674 15.9937 23.7162 15.7275L23.8062 15.24L24.4812 15.6C24.8562 15.7987 25.5199 16.155 25.9737 16.3987ZM22.6249 16.5262C22.2387 17.865 21.4549 19.59 21.0987 19.89C21.0162 19.9575 20.8549 19.8637 20.3262 19.4362C19.9549 19.1362 19.5762 18.84 19.4749 18.7725C19.3774 18.705 19.3062 18.6337 19.3212 18.615C19.5949 18.3412 22.7824 15.7725 22.7974 15.8137C22.8087 15.84 22.7299 16.1625 22.6249 16.5262ZM29.8699 18.855C30.4737 19.2562 31.8087 20.4525 31.7374 20.5275C31.7187 20.5462 30.3612 20.9887 28.7262 21.5025C27.0912 22.02 25.2687 22.605 24.6762 22.8037C24.0799 23.0025 23.5924 23.16 23.5887 23.1525C23.5812 23.145 23.9974 22.6725 24.5112 22.0987C25.8499 20.6062 27.2262 19.005 27.7137 18.375L28.1337 17.8312L28.6849 18.1275C28.9812 18.2925 29.5212 18.6225 29.8699 18.855ZM26.7724 17.9962C26.7349 18.045 26.3749 18.5025 25.9699 19.0162C25.5649 19.5262 24.5974 20.7712 23.8099 21.78L22.3812 23.6175L22.3324 23.3062C22.2424 22.7025 21.9199 21.5287 21.7362 21.1275L21.5524 20.7262L22.4599 20.2725C23.3974 19.8037 25.3512 18.7425 26.2662 18.21C26.8437 17.8725 26.8812 17.8575 26.7724 17.9962ZM19.1937 20.2162C19.5649 20.4075 19.9137 20.655 19.9137 20.7337C19.9137 20.8537 17.4949 22.7212 17.4312 22.65C17.4162 22.635 17.6337 22.2037 17.9149 21.69C18.1999 21.1762 18.4849 20.6025 18.5524 20.4075C18.6199 20.2125 18.7249 20.055 18.7774 20.055C18.8374 20.055 19.0249 20.13 19.1937 20.2162ZM21.2562 22.515C21.4249 22.8412 21.5974 23.76 21.5074 23.8425C21.4699 23.8762 20.4724 24.3487 19.2837 24.8925C18.0949 25.4362 16.5537 26.1675 15.8449 26.52C15.1399 26.8725 14.6037 27.12 14.6562 27.075C14.7087 27.0262 15.4849 26.3775 16.3849 25.6275C18.1249 24.18 20.1087 22.4512 20.4724 22.0687L20.6899 21.84L20.9037 22.0462C21.0237 22.1587 21.1812 22.3687 21.2562 22.515ZM19.3024 22.4962C19.1299 22.65 18.1999 23.4637 17.2399 24.2962C16.2799 25.125 15.1249 26.13 14.6749 26.5237C13.7674 27.315 13.7674 27.315 14.9262 25.8037C15.8224 24.6337 16.2912 24.1987 17.5774 23.3362C18.2037 22.9162 19.4487 22.215 19.5687 22.215C19.5949 22.2112 19.4749 22.3425 19.3024 22.4962ZM28.3137 23.2912C28.3624 23.535 28.4187 24.3 28.4449 24.9825L28.4899 26.2275L28.2012 26.0925C27.2037 25.6312 24.4024 24.0525 24.5074 24.0112C25.1187 23.7675 28.1449 22.7625 28.1787 22.7962C28.2049 22.8225 28.2649 23.0437 28.3137 23.2912ZM25.9362 25.5187C27.1024 26.205 28.0662 26.775 28.0812 26.7862C28.0962 26.7975 27.9424 26.925 27.7512 27.0675C27.3799 27.3412 23.4237 29.385 23.3712 29.3325C23.3562 29.3175 23.4087 28.9762 23.4874 28.5825C23.6487 27.7875 23.7949 25.4175 23.7237 24.6637C23.7012 24.3975 23.7087 24.21 23.7462 24.2325C23.7874 24.255 24.7699 24.8325 25.9362 25.5187ZM22.7112 25.0162C22.8012 25.755 22.6924 27.24 22.4937 28.0125C22.2574 28.92 22.1224 29.2987 22.0212 29.3325C21.8824 29.3812 21.0199 28.5937 20.4912 27.9375C19.9587 27.2775 19.2612 26.0325 19.3662 25.9312C19.4299 25.8712 22.5124 24.6 22.6062 24.5962C22.6362 24.5925 22.6849 24.7837 22.7112 25.0162ZM18.9312 26.8725C19.2574 27.5475 20.0037 28.5225 20.8212 29.3475C21.3462 29.8762 21.4774 30.0487 21.3949 30.1012C21.0274 30.3487 19.3887 31.1175 18.3537 31.5225C17.0974 32.0175 15.4662 32.58 15.4287 32.535C15.4137 32.52 15.7887 31.8375 16.2612 31.02C17.2849 29.2425 18.5787 26.73 18.5787 26.5237C18.5787 26.2612 18.6874 26.3662 18.9312 26.8725ZM16.9962 26.9137C16.9774 26.9662 16.8199 27.3562 16.6512 27.7875C15.9237 29.6325 14.5099 32.1375 14.1949 32.1375C13.9512 32.1375 13.5912 30.6787 13.4899 29.2762L13.4374 28.5712L15.1662 27.6975C16.1187 27.2175 16.9249 26.8237 16.9662 26.8237C16.9999 26.82 17.0149 26.8612 16.9962 26.9137ZM28.5387 28.62C28.5462 29.6812 28.0999 32.25 27.8637 32.5087C27.7662 32.6175 26.6674 32.2125 25.6812 31.7025C24.7962 31.245 23.3412 30.3412 23.3412 30.2512C23.3412 30.225 23.5624 30.1125 23.8399 29.9962C24.3649 29.775 26.8062 28.47 27.8412 27.8587L28.4374 27.5062L28.4899 27.7762C28.5087 27.9225 28.5349 28.3087 28.5387 28.62ZM12.2524 29.8462C12.3537 30.6862 12.6124 31.7137 12.9349 32.5312C13.0662 32.865 13.1599 33.1537 13.1449 33.1687C13.0174 33.285 7.82369 34.7137 7.13744 34.8225L6.81119 34.875L6.85994 34.6237C6.93119 34.2675 7.43369 33.24 7.80869 32.685C8.27369 31.995 9.42494 30.84 10.1862 30.3037C10.7524 29.9025 12.1174 29.1075 12.1587 29.1525C12.1624 29.1562 12.2074 29.4675 12.2524 29.8462ZM24.0349 31.6162C25.6399 32.385 26.2474 32.6512 27.0162 32.9175L27.6049 33.12L27.2337 33.3075C25.1299 34.3725 21.4099 35.8912 20.4462 36.0787C20.2324 36.12 20.2024 36.1087 20.2437 36.0037C20.4087 35.5725 22.6287 30.9862 22.6699 30.9862C22.6962 30.9825 23.3149 31.2712 24.0349 31.6162ZM21.2112 31.4437C21.0987 31.9837 20.4874 33.735 20.1312 34.53C19.8237 35.22 19.1112 36.5662 18.9837 36.6937C18.9274 36.75 17.6599 36.0337 17.0599 35.6062C16.3849 35.1262 14.9074 33.7012 14.9487 33.57C14.9637 33.5212 15.8637 33.1762 16.9474 32.8012C19.2312 32.0137 20.5099 31.5375 20.8812 31.3462C21.2412 31.1587 21.2712 31.17 21.2112 31.4437ZM27.5974 33.8625C27.5749 34.02 27.4474 34.71 27.3087 35.4075C26.8737 37.5937 26.3449 39.0862 26.0074 39.0862C25.5424 39.0862 22.3587 38.3137 21.3312 37.95C20.6337 37.7025 20.0299 37.4212 19.8312 37.245C19.7074 37.1362 19.7712 37.0987 20.6862 36.7237C23.6299 35.5237 27.0237 33.9937 27.3912 33.7012C27.6049 33.5325 27.6387 33.555 27.5974 33.8625ZM12.7024 34.53C12.3687 35.1262 11.6824 36.1125 10.3774 37.875L9.26369 39.375L8.92994 39.135C8.46119 38.8012 7.71869 37.9912 7.40744 37.4775C7.07369 36.9262 6.84494 36.2475 6.81869 35.73L6.79619 35.3287L7.34744 35.2725C8.09369 35.1975 10.1787 34.7662 11.6674 34.3762C12.3424 34.2 12.9049 34.065 12.9199 34.0762C12.9312 34.0912 12.8337 34.2937 12.7024 34.53ZM15.9387 36.0712C16.3099 36.3375 16.8199 36.675 17.0824 36.8287L17.5587 37.1062L17.3449 37.1962C17.2249 37.245 15.4962 37.875 13.4974 38.5987C10.0849 39.8325 9.85994 39.9037 9.76619 39.7762C9.70994 39.7012 9.67244 39.6225 9.67994 39.5962C9.68744 39.57 10.6099 38.3812 11.7312 36.945L13.7674 34.3387L14.5174 34.965C14.9374 35.3137 15.5674 35.805 15.9387 36.0712ZM16.7787 39.99C16.0324 41.1037 15.4024 42.045 15.3799 42.075C15.3237 42.15 14.1312 41.8687 13.2387 41.5725C12.3012 41.2575 11.1462 40.6725 10.6962 40.2862L10.3699 40.005L11.1049 39.8062C14.1162 38.985 18.0987 37.9312 18.1174 37.9462C18.1324 37.95 17.5249 38.8762 16.7787 39.99ZM20.3637 38.3025C21.9574 38.85 23.4124 39.1612 25.2987 39.3637L25.8199 39.42L24.4137 39.9262C20.9037 41.1937 18.0612 42.0825 16.6287 42.36C16.2274 42.4387 15.8599 42.5025 15.8187 42.5025C15.7774 42.5025 16.0662 42.1087 16.4599 41.6325C17.5324 40.3237 18.6949 38.835 19.0024 38.3775C19.1524 38.1562 19.3024 37.9687 19.3362 37.9687C19.3699 37.9725 19.8274 38.1187 20.3637 38.3025ZM25.5949 41.2575C24.9912 42.8175 24.5487 43.7662 24.3912 43.8262C24.0912 43.9425 19.9474 43.3312 18.6837 42.99C17.8437 42.7612 17.3074 42.54 17.4649 42.4837C17.5249 42.4612 18.1249 42.3225 18.8037 42.1687C20.9974 41.6737 24.3424 40.6575 25.7262 40.065C25.9062 39.99 26.0637 39.9337 26.0749 39.945C26.0824 39.9562 25.8687 40.545 25.5949 41.2575Z" fill="#F8F4F9"/>
</svg>
