<svg width="49" height="48" viewBox="0 0 49 48" fill="none" xmlns="http://www.w3.org/2000/svg">
<g clip-path="url(#clip0_206_6)">
<path d="M44.3555 36.6776C41.7819 36.6075 39.8165 36.8471 38.1361 37.5555C37.6588 37.7569 36.8968 37.7625 36.8188 38.3606C37.0813 38.6355 37.1222 39.0465 37.3307 39.3847C37.7319 40.0335 38.4091 40.9042 39.0136 41.3602C39.6744 41.859 40.355 42.3919 41.063 42.8235C42.3222 43.5911 43.7281 44.0299 44.9405 44.799C45.6553 45.2527 46.3651 45.8239 47.0623 46.3354C47.4073 46.5885 47.6386 46.9819 48.0868 47.1405V47.0677C47.8513 46.7677 47.7905 46.356 47.5745 46.0429L46.6231 45.0915C45.6931 43.857 44.5122 42.7725 43.2571 41.8721C42.2562 41.1536 40.0164 40.1831 39.599 39.0187L39.5259 38.9456C40.2354 38.8654 41.066 38.6089 41.7211 38.433C42.8214 38.1382 43.8046 38.2144 44.9405 37.9211L46.4769 37.482V37.1895C45.9028 36.6004 45.4933 35.8204 44.8674 35.2871C43.2286 33.8921 41.4406 32.4982 39.5994 31.3357C38.5779 30.6915 37.316 30.2726 36.2334 29.7262C35.8693 29.5421 35.2295 29.4465 34.9892 29.1405C34.4203 28.416 34.1109 27.4972 33.6725 26.6531C32.7542 24.8842 31.8523 22.9526 31.0385 21.0915C30.4835 19.8225 30.1209 18.5715 29.4287 17.433C26.1062 11.9704 22.5302 8.67373 16.9903 5.43298C15.8113 4.74373 14.3919 4.47186 12.8919 4.11561C12.0875 4.06723 11.2824 4.01811 10.4777 3.96898C9.98604 3.76423 9.47529 3.1631 9.01441 2.87135C7.17916 1.71185 2.47142 -0.810027 1.11242 2.50572C0.254042 4.59861 2.39529 6.64011 3.16067 7.70098C3.69842 8.44423 4.38654 9.27861 4.77054 10.1152C5.02329 10.6654 5.06679 11.217 5.28316 11.7986C5.81454 13.2319 6.27766 14.7911 6.96579 16.1152C7.31341 16.7857 7.69666 17.4915 8.13654 18.0907C8.40579 18.4586 8.86816 18.6206 8.94091 19.1884C8.48941 19.8206 8.46354 20.8024 8.20966 21.6034C7.06591 25.209 7.49754 29.691 9.16104 32.3595C9.67104 33.1792 10.8737 34.9361 12.5267 34.2619C13.9727 33.6731 13.6498 31.8476 14.0634 30.2374C14.1568 29.8725 14.0994 29.604 14.2828 29.3595V29.4326L15.6002 32.0666C16.5752 33.6367 18.3047 35.2774 19.7709 36.3844C20.531 36.9585 21.1295 37.9507 22.1124 38.2867V38.2132H22.0393C21.8488 37.9166 21.5507 37.7936 21.3077 37.5551C20.735 36.9937 20.0983 36.2959 19.625 35.6527C18.2915 33.8426 17.1133 31.8615 16.0397 29.7994C15.5267 28.8142 15.0808 27.7282 14.6488 26.7259C14.4823 26.3396 14.4845 25.755 14.1373 25.5551C13.6637 26.2894 12.9665 26.8834 12.6005 27.7504C12.0152 29.1364 11.9398 30.8269 11.7227 32.5796C11.5944 32.6254 11.6514 32.5939 11.576 32.6524C10.5568 32.4067 10.199 31.3579 9.81991 30.4575C8.86216 28.1812 8.68404 24.5167 9.52704 21.8966C9.74529 21.2182 10.7308 19.0837 10.3318 18.4571C10.1413 17.8324 9.51279 17.4709 9.16141 16.9935C8.72604 16.4032 8.29179 15.6262 7.98991 14.9445C7.20616 13.1704 6.84016 11.178 6.01479 9.38398C5.61991 8.52636 4.95279 7.65823 4.40491 6.89623C3.79854 6.05136 3.11904 5.42923 2.64879 4.40811C2.48154 4.04511 2.25467 3.46385 2.50217 3.09072C2.58092 2.8391 2.69267 2.7341 2.94129 2.65197C3.36579 2.3246 4.54779 2.76072 4.98954 2.9441C6.16291 3.4316 7.14241 3.89586 8.13654 4.55436C8.61316 4.87086 9.09616 5.48248 9.67291 5.65198H10.3314C11.3615 5.88861 12.5154 5.72511 13.478 6.01761C15.179 6.53436 16.7034 7.33873 18.0875 8.21286C22.3048 10.8761 25.7533 14.6666 28.112 19.1887C28.4915 19.917 28.6558 20.6115 28.9899 21.384C29.6642 22.9414 30.5135 24.5437 31.1844 26.067C31.8542 27.5865 32.5067 29.1199 33.4532 30.3844C33.9508 31.0489 35.8723 31.4055 36.746 31.7749C37.358 32.0332 38.3611 32.3032 38.9413 32.6524C40.0486 33.3206 41.1219 34.116 42.161 34.848C42.6796 35.2136 44.276 36.0165 44.3555 36.6776ZM11.6484 8.79973C11.1118 8.78961 10.7323 8.85823 10.331 8.94561V9.01873H10.4042C10.6603 9.54448 11.1122 9.88348 11.4283 10.3361C11.672 10.8487 11.9162 11.3606 12.1603 11.8725L12.233 11.8001C12.6864 11.4802 12.8938 10.9699 12.8912 10.1899C12.7097 9.99898 12.683 9.75973 12.5255 9.53173C12.317 9.22761 11.9124 9.05473 11.6484 8.79973Z" fill="#F8F4F9"/>
</g>
<defs>
<clipPath id="clip0_206_6">
<rect width="48" height="48" fill="white" transform="translate(0.5)"/>
</clipPath>
</defs>
</svg>
