<svg width="49" height="48" viewBox="0 0 49 48" fill="none" xmlns="http://www.w3.org/2000/svg">
<path d="M42.7891 11.3752L26.2528 1.77338C25.2099 1.17938 23.852 1.17938 22.8009 1.77338L6.08788 11.3752C5.01163 11.9944 4.25 13.158 4.25 14.4026V33.5809C4.25 34.8255 5.0315 35.9895 6.10775 36.612L10.5234 39.12C12.6339 40.1595 13.3798 40.1595 14.3401 40.1595C17.465 40.1595 19.25 38.2699 19.25 34.974V16.0402C19.25 15.7729 19.1109 15.375 18.8484 15.375H16.7397C16.4727 15.375 15.875 15.7729 15.875 16.0399V34.9736C15.875 36.4346 14.5535 37.8885 12.0837 36.6536L7.52112 34.0237C7.36212 33.9375 7.25 33.7639 7.25 33.5809V14.4026C7.25 14.2219 7.45813 14.0404 7.61825 13.9477L24.2772 4.36237C24.4329 4.27425 24.6616 4.27425 24.8169 4.36237L41.2726 13.9455C41.4301 14.0404 41.3746 14.2162 41.3746 14.4026V33.5809C41.3746 33.7639 41.4432 33.942 41.2876 34.0301L24.7554 43.6211C24.6136 43.7062 24.4377 43.7062 24.2825 43.6211L20.0424 41.0902C19.9145 41.016 19.7626 40.9894 19.64 41.058C18.4603 41.7266 18.2427 41.8155 17.1361 42.1991C16.8639 42.294 16.4622 42.4586 17.2899 42.9225L22.8391 46.2052C23.3689 46.5112 23.9699 46.6725 24.5818 46.6725C25.1975 46.6725 25.8005 46.5127 26.3319 46.2052L42.7887 36.612C43.865 35.985 44.375 34.8255 44.375 33.5809V14.4026C44.375 13.158 43.865 11.9974 42.7891 11.3752ZM29.7163 30.5419C25.319 30.5419 24.3504 29.3287 24.0275 27.1421C23.99 26.9066 23.7901 26.625 23.5505 26.625H21.4014C21.1355 26.625 20.9218 26.9475 20.9218 27.2122C20.9218 30.012 22.4439 33.4042 29.7166 33.4042C34.9813 33.4042 37.9996 31.3586 37.9996 27.7384C37.9996 24.1489 35.5745 23.2069 30.4689 22.5311C25.3081 21.849 24.7839 21.5044 24.7839 20.2954C24.7839 19.2986 25.2279 17.9692 29.0491 17.9692C32.4635 17.9692 33.722 18.702 34.2399 21.0034C34.2841 21.2197 34.4817 21.375 34.7049 21.375H36.8626C36.9954 21.375 37.1221 21.3214 37.2151 21.2265C37.3051 21.1245 37.3527 20.9966 37.3407 20.8594C37.0066 16.8964 34.3737 15.0495 29.0487 15.0495C24.3121 15.0495 21.4865 17.0497 21.4865 20.4026C21.4865 24.0394 24.2979 25.0444 28.8447 25.494C34.2841 26.0272 34.7071 26.8222 34.7071 27.8921C34.7071 29.7502 33.2154 30.5419 29.7163 30.5419Z" fill="#F8F4F9"/>
</svg>
