<svg width="49" height="48" viewBox="0 0 49 48" fill="none" xmlns="http://www.w3.org/2000/svg">
<g clip-path="url(#clip0_206_17)">
<path fill-rule="evenodd" clip-rule="evenodd" d="M48.3039 26.8573C49.9835 13.8001 40.697 1.8628 27.5714 0.19491C14.4458 -1.47298 2.37599 7.74808 0.69629 20.7814C-0.983407 33.8148 8.30293 45.7759 21.4286 47.4678C34.5782 49.1355 46.5999 39.9145 48.3039 26.8573ZM18.0692 25.9042L21.6803 25.13L20.7806 26.0234L19.9168 26.8811C19.8912 26.9065 19.8725 26.9318 19.8606 26.9608L12.2795 34.4887C12.2386 34.4988 12.1995 34.5204 12.1662 34.5534L10.1026 36.6025C9.98262 36.6978 9.93462 36.8408 9.91062 36.9838C9.88662 37.3412 10.1266 37.6509 10.4865 37.6747L15.4056 38.0083C15.5016 38.0083 15.5736 37.9607 15.6216 37.8654C15.6576 37.7939 15.6531 37.7225 15.6183 37.6611C15.6427 37.6512 15.6678 37.6399 15.6936 37.6271C15.9815 37.4603 16.1255 37.1267 16.0535 36.817L15.6456 35.1253C19.9408 33.0047 23.3962 30.7888 25.9397 28.5729L26.1077 28.4299C26.1409 28.4079 26.1639 28.3859 26.1791 28.3616C31.381 23.4774 34.3864 20.1301 34.4342 17.4933C34.4462 17.0756 34.3679 16.6638 34.2084 16.285C34.7051 16.4953 35.2518 16.6117 35.826 16.6117C36.5412 16.6117 37.2564 16.4135 37.865 16.0593C37.8717 16.0573 37.8791 16.0548 37.8874 16.0518L37.8995 16.0473L37.9136 16.042C37.9341 16.0342 37.958 16.0251 37.9856 16.016C38.2734 15.8493 38.5374 15.6348 38.7774 15.3965C40.361 13.7763 40.361 11.203 38.7534 9.60657L38.6814 9.55895L38.6806 9.55803L38.6758 9.55342C37.9085 8.81829 36.8792 8.41521 35.826 8.41521C33.5464 8.41521 31.6987 10.2499 31.6987 12.5134C31.6987 13.1167 31.8299 13.6895 32.0656 14.2052C30.3786 13.3143 28.0772 14.3224 19.9888 22.354C19.9788 22.364 19.9698 22.3745 19.9619 22.3854C19.9547 22.3905 19.9477 22.396 19.9408 22.4017L17.4933 24.832C17.3733 24.9511 17.3013 25.1179 17.3013 25.2847C17.3013 25.6421 17.5653 25.9281 17.9252 25.9281C17.9492 25.9281 17.9732 25.9221 17.9972 25.9161C18.0212 25.9102 18.0452 25.9042 18.0692 25.9042Z" fill="#F8F4F9"/>
</g>
<defs>
<clipPath id="clip0_206_17">
<rect width="48" height="48" fill="white" transform="translate(0.5)"/>
</clipPath>
</defs>
</svg>
