<svg width="49" height="48" viewBox="0 0 49 48" fill="none" xmlns="http://www.w3.org/2000/svg">
<path d="M24.2716 4.59301C22.6884 4.60051 21.1771 4.73514 19.8466 4.97064C15.9279 5.66289 15.2169 7.11189 15.2169 9.78451V13.3136H24.4768V14.49H11.7414C9.05039 14.49 6.69389 16.1074 5.95664 19.1854C5.10614 22.7123 5.06864 24.9135 5.95664 28.5964C6.61476 31.338 8.18676 33.291 10.8781 33.291H14.0623V29.0603C14.0623 26.0036 16.7064 23.3078 19.847 23.3078H29.0964C31.6711 23.3078 33.7261 21.1875 33.7261 18.6023V9.78489C33.7261 7.27501 31.6089 5.38989 29.0964 4.97101C27.5049 4.70626 25.8545 4.58589 24.2716 4.59301ZM19.2639 7.43139C20.2201 7.43139 21.0016 8.22526 21.0016 9.20176C21.0016 10.1741 20.2205 10.9605 19.2639 10.9605C18.3039 10.9605 17.5265 10.1741 17.5265 9.20176C17.5261 8.22526 18.3039 7.43139 19.2639 7.43139Z" fill="#F8F4F9"/>
<path d="M34.8808 14.4899V18.6022C34.8808 21.7897 32.1778 24.4728 29.096 24.4728H19.8467C17.3132 24.4728 15.2169 26.6414 15.2169 29.1787V37.9968C15.2169 40.506 17.3987 41.9824 19.8467 42.702C22.7777 43.5634 25.5887 43.7194 29.096 42.702C31.427 42.0266 33.7258 40.6683 33.7258 37.9968V34.4673H24.4768V33.2906H38.3563C41.0473 33.2906 42.0508 31.4137 42.9868 28.5959C43.9535 25.6953 43.9119 22.9057 42.9868 19.1849C42.3215 16.5056 41.0514 14.4896 38.3563 14.4896L34.8808 14.4899ZM29.6784 36.8201C30.6388 36.8201 31.4162 37.6065 31.4162 38.5796C31.4162 39.5553 30.6384 40.3492 29.6784 40.3492C28.7222 40.3492 27.941 39.5553 27.941 38.5796C27.941 37.6065 28.7222 36.8201 29.6784 36.8201Z" fill="#F8F4F9"/>
</svg>
