<svg width="49" height="48" viewBox="0 0 49 48" fill="none" xmlns="http://www.w3.org/2000/svg">
<path d="M24.5 28.275C26.861 28.275 28.775 26.361 28.775 24C28.775 21.6389 26.861 19.725 24.5 19.725C22.1389 19.725 20.225 21.6389 20.225 24C20.225 26.361 22.1389 28.275 24.5 28.275Z" fill="#F8F4F9"/>
<path d="M40.7375 16.95C39.9125 16.65 39.05 16.35 38.15 16.0875C38.375 15.1875 38.5625 14.2875 38.7125 13.425C39.5 8.47498 38.6375 4.98748 36.2375 3.63748C35.525 3.22497 34.7375 3.03748 33.8375 3.03748C31.2125 3.03748 27.875 4.98748 24.5 8.24998C21.125 4.98748 17.7875 3.03748 15.1625 3.03748C14.2625 3.03748 13.475 3.22497 12.7625 3.63748C10.3625 5.02498 9.49996 8.51248 10.2875 13.425C10.4375 14.2875 10.625 15.1875 10.85 16.0875C9.94996 16.35 9.08746 16.6125 8.26246 16.95C3.57496 18.75 1.02496 21.225 1.02496 24C1.02496 26.775 3.61246 29.25 8.26246 31.05C9.08746 31.35 9.94996 31.65 10.85 31.9125C10.625 32.8125 10.4375 33.7125 10.2875 34.575C9.49996 39.525 10.3625 43.0125 12.7625 44.3625C13.475 44.775 14.2625 44.9625 15.1625 44.9625C17.825 44.9625 21.1625 43.0125 24.5 39.75C27.875 43.0125 31.2125 44.9625 33.8375 44.9625C34.7375 44.9625 35.525 44.775 36.2375 44.3625C38.6375 42.975 39.5 39.4875 38.7125 34.575C38.5625 33.7125 38.375 32.8125 38.15 31.9125C39.05 31.65 39.9125 31.3875 40.7375 31.05C45.425 29.25 47.975 26.775 47.975 24C47.975 21.225 45.425 18.75 40.7375 16.95ZM35.1875 5.51248C36.725 6.41248 37.25 9.18748 36.6125 13.125C36.5 13.9125 36.3125 14.7375 36.0875 15.6C34.1375 15.15 32.075 14.85 29.9 14.6625C28.625 12.8625 27.3125 11.25 26 9.78748C28.775 7.04998 31.5875 5.17498 33.875 5.17498C34.3625 5.17498 34.8125 5.28748 35.1875 5.51248ZM30.9875 27.75C30.3125 28.95 29.525 30.15 28.7 31.35C27.3125 31.4625 25.925 31.5 24.5 31.5C23.0375 31.5 21.65 31.4625 20.3 31.35C19.475 30.15 18.725 28.95 18.05 27.75C17.3375 26.5125 16.6625 25.2375 16.0625 24C16.6625 22.7625 17.3375 21.4875 18.05 20.25C18.725 19.05 19.5125 17.85 20.3375 16.65C21.725 16.5375 23.1125 16.5 24.5375 16.5C26 16.5 27.3875 16.5375 28.7375 16.65C29.5625 17.85 30.3125 19.05 30.9875 20.25C31.7 21.4875 32.375 22.7625 32.975 24C32.3375 25.2375 31.7 26.475 30.9875 27.75ZM34.1 26.5125C34.6625 27.825 35.1125 29.1 35.525 30.375C34.25 30.675 32.9 30.9 31.475 31.0875C31.925 30.375 32.4125 29.625 32.825 28.8375C33.275 28.05 33.6875 27.2625 34.1 26.5125ZM24.5 36.675C23.6 35.7 22.7375 34.65 21.9125 33.5625C22.775 33.6 23.6375 33.6375 24.5 33.6375C25.3625 33.6375 26.225 33.6 27.0875 33.5625C26.2625 34.65 25.4 35.7 24.5 36.675ZM17.525 31.05C16.1 30.8625 14.75 30.6375 13.475 30.3375C13.8875 29.1 14.3375 27.7875 14.9 26.475C15.3125 27.225 15.725 28.0125 16.175 28.7625C16.625 29.5875 17.075 30.3 17.525 31.05ZM14.9 21.4875C14.3375 20.175 13.8875 18.9 13.475 17.625C14.75 17.325 16.1 17.1 17.525 16.9125C17.075 17.625 16.5875 18.375 16.175 19.1625C15.725 19.95 15.3125 20.7375 14.9 21.4875ZM24.5 11.325C25.4 12.3 26.2625 13.35 27.0875 14.4375C26.225 14.4 25.3625 14.3625 24.5 14.3625C23.6375 14.3625 22.775 14.4 21.9125 14.4375C22.7375 13.35 23.6 12.3 24.5 11.325ZM32.825 19.2L31.475 16.95C32.9 17.1375 34.25 17.3625 35.525 17.6625C35.1125 18.9 34.6625 20.2125 34.1 21.525C33.6875 20.7375 33.275 19.95 32.825 19.2ZM12.3875 13.125C11.75 9.18748 12.275 6.41248 13.8125 5.51248C14.1875 5.28748 14.6375 5.17498 15.125 5.17498C17.375 5.17498 20.1875 7.01248 23 9.78748C21.6875 11.2125 20.375 12.8625 19.1 14.6625C16.925 14.85 14.8625 15.1875 12.9125 15.6C12.6875 14.7375 12.5375 13.9125 12.3875 13.125ZM3.12496 24C3.12496 22.2375 5.26246 20.3625 9.01246 18.975C9.76246 18.675 10.5875 18.4125 11.4125 18.1875C12.0125 20.0625 12.7625 22.05 13.6625 24.0375C12.7625 26.025 11.975 27.975 11.4125 29.85C6.23746 28.35 3.12496 26.1 3.12496 24ZM13.8125 42.4875C12.275 41.5875 11.75 38.8125 12.3875 34.875C12.5 34.0875 12.6875 33.2625 12.9125 32.4C14.8625 32.85 16.925 33.15 19.1 33.3375C20.375 35.1375 21.6875 36.75 23 38.2125C20.225 40.95 17.4125 42.825 15.125 42.825C14.6375 42.825 14.1875 42.7125 13.8125 42.4875ZM36.6125 34.875C37.25 38.8125 36.725 41.5875 35.1875 42.4875C34.8125 42.7125 34.3625 42.825 33.875 42.825C31.625 42.825 28.8125 40.9875 26 38.2125C27.3125 36.7875 28.625 35.1375 29.9 33.3375C32.075 33.15 34.1375 32.8125 36.0875 32.4C36.3125 33.2625 36.4625 34.0875 36.6125 34.875ZM39.9875 29.025C39.2375 29.325 38.4125 29.5875 37.5875 29.8125C36.9875 27.9375 36.2375 25.95 35.3375 23.9625C36.2375 21.975 37.025 20.025 37.5875 18.15C42.7625 19.65 45.875 21.9 45.875 24C45.875 25.7625 43.7 27.6375 39.9875 29.025Z" fill="#F8F4F9"/>
</svg>
