<svg width="49" height="48" viewBox="0 0 49 48" fill="none" xmlns="http://www.w3.org/2000/svg">
<g clip-path="url(#clip0_206_19)">
<path fill-rule="evenodd" clip-rule="evenodd" d="M40.655 7.27685L41.6667 8.60896C41.9322 8.96052 41.8659 9.46448 41.5145 9.7301L40.4401 10.5465C40.6355 11.0661 40.7604 11.6208 40.8114 12.1873L42.0339 12.3552C42.4715 12.4139 42.776 12.8201 42.7175 13.2576L42.491 14.9179C42.4325 15.3554 42.026 15.6641 41.5887 15.6015L40.2526 15.4179C40.0141 15.9375 39.7096 16.4141 39.35 16.8399L40.1004 17.8243C40.3659 18.1759 40.2954 18.6798 39.944 18.9455L38.612 19.9573C38.2603 20.2229 37.7563 20.1526 37.4907 19.8049L36.6743 18.7306C36.1508 18.926 35.6 19.051 35.0296 19.1018L34.8616 20.3245C34.803 20.762 34.3968 21.0667 33.9593 21.0081L32.299 20.7815C31.8615 20.7229 31.5567 20.3167 31.6154 19.8791L31.799 18.5431C31.2833 18.3048 30.8028 18.0001 30.377 17.6446L29.3926 18.3908C29.041 18.6564 28.5371 18.59 28.2714 18.2384L27.2596 16.9063C26.994 16.5547 27.0604 16.0508 27.412 15.7851L28.4863 14.9687C28.2909 14.4452 28.1659 13.8944 28.1152 13.328L26.8924 13.16C26.4549 13.1014 26.1463 12.6951 26.2088 12.2576L26.4354 10.5974C26.4979 10.1598 26.9002 9.85512 27.3378 9.9137L28.6738 10.0973C28.9121 9.58167 29.2168 9.10118 29.5723 8.67537L28.8261 7.69092C28.5605 7.34326 28.6269 6.83933 28.9785 6.57368L30.3106 5.5619C30.6622 5.29625 31.1661 5.36266 31.4318 5.71426L32.2482 6.78852C32.7678 6.59322 33.3225 6.4682 33.8889 6.41742L34.0569 5.1947C34.1155 4.75715 34.5218 4.44856 34.9593 4.50713L36.6196 4.73371C37.0571 4.79232 37.3657 5.1986 37.3032 5.63611L37.1196 6.97212C37.6391 7.21043 38.1159 7.51512 38.5456 7.87452L39.53 7.12838C39.8814 6.85883 40.3854 6.92525 40.655 7.27685ZM12.0908 30.7196V24.2739H15.4113C16.0285 24.2739 16.4973 24.3247 16.8215 24.4341C17.1458 24.5396 17.4114 24.7349 17.6067 25.0201C17.806 25.3091 17.9075 25.6568 17.9075 26.067C17.9075 26.4225 17.8294 26.735 17.6771 26.9928C17.5247 27.2546 17.3137 27.4655 17.0481 27.6257C16.8801 27.7272 16.6457 27.8132 16.3488 27.8796C16.5871 27.9617 16.759 28.0359 16.8645 28.1179C16.9387 28.1726 17.0442 28.2859 17.1809 28.4578C17.3177 28.6296 17.4114 28.7664 17.4583 28.8601L18.4271 30.7235H16.1769L15.1144 28.7586C14.9777 28.5047 14.8605 28.3367 14.755 28.2624C14.6105 28.1648 14.4464 28.114 14.2667 28.114H14.0909V30.7235H12.0908V30.7196ZM19.1146 41.943H15.3957L14.8605 43.6931H11.5087L15.5051 33.0713H19.099L23.0797 43.6931H19.642L19.1146 41.943ZM18.4193 39.642L17.259 35.8215L16.0949 39.642H18.4193ZM23.8532 33.0713H29.3144C30.5059 33.0713 31.3966 33.3526 31.9865 33.919C32.5763 34.4855 32.8733 35.2941 32.8733 36.3371C32.8733 37.4114 32.549 38.2511 31.9045 38.8568C31.2599 39.4624 30.2715 39.7631 28.9472 39.7631H27.1463V43.6931H23.8532V33.0713ZM27.1463 37.6106H27.955C28.5917 37.6106 29.041 37.5011 29.2988 37.2786C29.5566 37.0598 29.6856 36.7746 29.6856 36.4348C29.6856 36.1028 29.5723 35.8176 29.3496 35.5871C29.1269 35.3566 28.705 35.2394 28.0878 35.2394H27.1463V37.6106ZM34.2014 33.0713H37.4946V43.6931H34.2014V33.0713ZM14.0909 26.8913H14.9308C15.0206 26.8913 15.1964 26.86 15.4582 26.8014C15.591 26.7741 15.7004 26.7077 15.7824 26.5983C15.8684 26.4889 15.9074 26.3639 15.9074 26.2233C15.9074 26.0162 15.841 25.8521 15.7082 25.7427C15.5754 25.6295 15.3293 25.5748 14.966 25.5748H14.0909V26.8913ZM18.8099 24.2739H24.1423V25.649H20.81V26.6764H23.9001V27.989H20.81V29.2586H24.2399V30.7157H18.8099V24.2739ZM24.7126 28.5867L26.6033 28.4695C26.6424 28.7781 26.7284 29.0086 26.8533 29.1687C27.0604 29.4266 27.3534 29.5594 27.7323 29.5594C28.0136 29.5594 28.2362 29.493 28.3886 29.3601C28.541 29.2274 28.6191 29.0711 28.6191 28.8953C28.6191 28.7273 28.5449 28.5789 28.4003 28.446C28.2558 28.3132 27.9159 28.1921 27.3807 28.071C26.5096 27.8757 25.8885 27.614 25.5134 27.2897C25.1384 26.9655 24.9509 26.5514 24.9509 26.0475C24.9509 25.7154 25.0486 25.4029 25.24 25.1099C25.4314 24.8169 25.7205 24.5825 26.1072 24.4146C26.4939 24.2466 27.0213 24.1646 27.6932 24.1646C28.5175 24.1646 29.1426 24.3169 29.5762 24.6255C30.0059 24.9341 30.2637 25.4185 30.3458 26.0904L28.4746 26.2037C28.4238 25.9107 28.3183 25.6959 28.162 25.567C28.0019 25.4342 27.7792 25.3677 27.5018 25.3677C27.2714 25.3677 27.0956 25.4185 26.9784 25.5162C26.8612 25.6139 26.8026 25.7349 26.8026 25.8756C26.8026 25.9772 26.8533 26.067 26.9471 26.153C27.0409 26.235 27.2596 26.317 27.6112 26.3912C28.4824 26.5787 29.1074 26.7702 29.4824 26.9616C29.8574 27.153 30.1348 27.3913 30.3028 27.6765C30.4746 27.9577 30.5606 28.2781 30.5606 28.6296C30.5606 29.0437 30.4473 29.4227 30.2168 29.7704C29.9903 30.118 29.6699 30.3837 29.2598 30.5634C28.8496 30.7431 28.3339 30.8329 27.7089 30.8329C26.6151 30.8329 25.8533 30.6219 25.4314 30.2001C25.0095 29.7704 24.7712 29.2352 24.7126 28.5867ZM30.8497 24.2739H36.9086V25.8678H34.8773V30.7196H32.885V25.8678H30.8497V24.2739ZM24.1462 8.97616C23.4313 8.92148 22.7086 8.92928 21.9937 8.9996C19.7944 9.21053 17.6575 10.0114 15.8918 11.3825C13.8487 12.9647 12.2978 15.332 11.7001 18.4689L11.5126 19.4494L10.536 19.6213C9.5789 19.7893 8.72341 20.0198 7.97334 20.3127C7.24674 20.594 6.59829 20.9417 6.03185 21.3519C5.5787 21.68 5.18803 22.0472 4.856 22.4457C3.82858 23.6762 3.35199 25.2193 3.36371 26.7819C3.37543 28.3679 3.89108 29.9696 4.84426 31.2861C5.19976 31.7744 5.60994 32.2236 6.07873 32.6142C6.55531 33.0088 7.09047 33.3369 7.69209 33.5831C8.03195 33.7237 8.39525 33.8409 8.77419 33.9347V36.8606C7.99288 36.72 7.27407 36.509 6.60219 36.2316C5.71542 35.8644 4.93021 35.3918 4.23876 34.8136C3.58247 34.2667 3.00822 33.6456 2.51991 32.9697C1.21905 31.1728 0.515886 28.9773 0.50026 26.7897C0.484634 24.5786 1.17218 22.3793 2.65664 20.5979C3.13713 20.0198 3.70357 19.4885 4.35204 19.0197C5.10601 18.4728 5.96934 18.0119 6.94595 17.6329C7.61787 17.3712 8.33664 17.1524 9.09451 16.9766C9.95394 13.5624 11.7861 10.9333 14.1417 9.10898C16.345 7.40183 18.9974 6.40568 21.7281 6.14397C23.1617 6.00725 24.6149 6.06972 26.0369 6.33537C26.0057 6.4643 25.9783 6.59322 25.9627 6.72601L25.9588 6.74948C25.9314 6.97212 25.9197 7.1948 25.9314 7.42137C25.6306 7.53856 25.3494 7.69876 25.0955 7.89406L25.0837 7.90186C24.7048 8.18705 24.3845 8.55425 24.1462 8.97616ZM44.8153 16.4766C45.0343 16.6758 45.245 16.8829 45.452 17.1056C45.8701 17.5548 46.2646 18.0626 46.6359 18.6291C47.8857 20.5511 48.5266 23.1176 48.4993 25.6295C48.4719 28.0944 47.8077 30.5477 46.4484 32.3525C45.5615 33.5284 44.4249 34.4894 43.0614 35.2511C42.1276 35.7746 41.0769 36.2082 39.9324 36.5598V33.5323C40.5496 33.3018 41.1238 33.044 41.651 32.751C42.6785 32.1767 43.5185 31.4775 44.1474 30.6376C45.1239 29.3367 45.6046 27.4968 45.6241 25.61C45.6474 23.6294 45.1629 21.641 44.2216 20.1956C43.952 19.7776 43.655 19.4025 43.3426 19.0666C43.2215 18.9377 43.1004 18.8166 42.9755 18.6994C42.995 18.504 43.0029 18.3048 42.9909 18.1056C43.292 17.9884 43.5733 17.8282 43.8271 17.6329L43.8387 17.6251C44.2411 17.3165 44.5771 16.9259 44.8153 16.4766ZM34.9085 9.49962C36.7094 9.74573 37.9673 11.406 37.7212 13.2069C37.4751 15.0078 35.8148 16.2696 34.0139 16.0235C32.213 15.7773 30.9512 14.1171 31.2013 12.3162C31.4513 10.5153 33.1076 9.25351 34.9085 9.49962Z" fill="#F8F4F9"/>
</g>
<defs>
<clipPath id="clip0_206_19">
<rect width="48" height="48" fill="white" transform="translate(0.5)"/>
</clipPath>
</defs>
</svg>
