<svg width="49" height="48" viewBox="0 0 49 48" fill="none" xmlns="http://www.w3.org/2000/svg">
<path d="M31.6625 30.1875C29.9 30.15 28.3625 31.4625 28.175 33.225C28.175 33.3 28.2125 33.3375 28.2875 33.3375H35.0375C35.1125 33.3375 35.15 33.3 35.15 33.225C35 31.425 33.4625 30.075 31.6625 30.1875Z" fill="#F8F4F9"/>
<path d="M46.1375 7.46246L31.7375 23.5875C31.5875 23.775 31.2875 23.775 31.1 23.625L31.0625 23.5875L23.7875 16.05C23.6375 15.9 23.6375 15.675 23.75 15.4875L26.1875 12.375C26.3375 12.1875 26.6 12.1125 26.7875 12.2625C26.825 12.3 26.8625 12.3 26.8625 12.3375L30.9875 16.875C31.1375 17.0625 31.4375 17.0625 31.625 16.9125L31.6625 16.875L43.175 1.23746C43.2875 1.08746 43.25 0.899963 43.1 0.787463C43.0625 0.749963 42.9875 0.749963 42.9125 0.712463H2.63752C2.45002 0.749963 2.30002 0.899963 2.30002 1.08746V46.9125C2.30002 47.1 2.45002 47.25 2.63752 47.25H46.3625C46.55 47.25 46.7 47.1 46.7 46.9125V7.68746C46.7 7.49996 46.55 7.38746 46.4 7.38746C46.2875 7.34996 46.2125 7.38746 46.1375 7.46246ZM14.7125 42.15C11.825 42.2625 9.0125 41.2875 6.875 39.375C6.725 39.225 6.6875 39 6.8375 38.8125L8.525 36.4125C8.675 36.225 8.9375 36.1875 9.125 36.3L9.1625 36.3375C10.7375 37.8 12.7625 38.5875 14.9 38.5875C17.15 38.5875 18.2375 37.5375 18.2375 36.45C18.2375 33.0375 7.175 35.4 7.175 28.1625C7.175 24.975 9.95004 22.3125 14.45 22.3125C17.0375 22.2375 19.5875 23.1 21.6125 24.75C21.7625 24.9 21.8 25.1625 21.65 25.3125L19.8875 27.6375C19.7375 27.825 19.475 27.8625 19.2875 27.7125C17.7875 26.5125 15.95 25.875 14.0375 25.9125C12.275 25.9125 11.3 26.7 11.3 27.825C11.3 30.8625 22.325 28.8375 22.325 36C22.3625 39.4875 19.85 42.15 14.7125 42.15ZM38.825 35.475C38.825 35.7 38.6375 35.85 38.45 35.85H28.3625C28.2875 35.85 28.25 35.8875 28.25 35.9625C28.5875 37.9125 30.35 39.2625 32.3375 39.15C33.6125 39.1125 34.8125 38.7375 35.825 37.9875C35.975 37.875 36.2375 37.875 36.35 38.0625L36.3875 38.1L37.625 39.9C37.7375 40.05 37.7 40.275 37.55 40.425C35.9375 41.625 33.95 42.225 31.9625 42.15C27.6125 42.15 24.35 39.225 24.35 34.65C24.2375 30.6375 27.3875 27.3 31.4 27.1875H31.7375C35.975 27.1875 38.9 30.375 38.9 35.025L38.825 35.475Z" fill="#F8F4F9"/>
</svg>
