<svg width="49" height="48" viewBox="0 0 49 48" fill="none" xmlns="http://www.w3.org/2000/svg">
<g clip-path="url(#clip0_206_27)">
<path d="M24.3154 9.60077C17.9649 9.60077 13.9973 12.7995 12.4084 19.1996C14.7891 16.0005 17.5682 14.8009 20.7426 15.6008C22.555 16.056 23.8503 17.3805 25.2847 18.8483C27.6192 21.2359 30.3214 24 36.2224 24C42.5726 24 46.5406 20.8009 48.1294 14.3993C45.7484 17.6003 42.9696 18.7999 39.7949 18C37.9828 17.5444 36.689 16.2203 35.2527 14.7525C32.9197 12.3649 30.2183 9.60077 24.3154 9.60077ZM12.4084 24C6.05829 24 2.0903 27.1991 0.501457 33.6008C2.88211 30.3998 5.6609 29.2001 8.83559 30C10.6481 30.4556 11.9433 31.7798 13.3777 33.2475C15.7122 35.6351 18.4144 38.3992 24.3154 38.3992C30.6655 38.3992 34.6335 35.2005 36.2224 28.8004C33.8414 31.9995 31.0626 33.1991 27.8879 32.3993C26.0758 31.944 24.782 30.6195 23.3457 29.1518C21.0127 26.7641 18.3113 24 12.4084 24Z" fill="#F8F4F9"/>
</g>
<defs>
<clipPath id="clip0_206_27">
<rect width="48" height="48" fill="white" transform="translate(0.5)"/>
</clipPath>
</defs>
</svg>
