<svg width="49" height="48" viewBox="0 0 49 48" fill="none" xmlns="http://www.w3.org/2000/svg">
<g clip-path="url(#clip0_206_33)">
<mask id="mask0_206_33" style="mask-type:luminance" maskUnits="userSpaceOnUse" x="0" y="0" width="49" height="48">
<path d="M48.5 0H0.5V48H48.5V0Z" fill="white"/>
</mask>
<g mask="url(#mask0_206_33)">
<path d="M0.516329 0.672173C0.4164 0.267627 0.791606 -0.0935276 1.19204 0.0217612L12.86 3.38101C12.9645 3.38064 13.0678 3.4104 13.1561 3.46629L36.1679 10.0915C36.2632 10.0935 36.3572 10.1205 36.439 10.1695L48.1078 13.5291C48.5086 13.6446 48.6342 14.1508 48.3335 14.44L13.1211 48.3116C12.8205 48.6007 12.3197 48.456 12.2197 48.051L6.37861 24.4047C6.37081 24.3805 6.36466 24.3557 6.36028 24.3305L0.516329 0.672173ZM10.5112 36.6178L13.0462 46.8802L20.6801 39.537L10.5112 36.6178ZM18.3745 28.502L10.9835 35.6262L20.8296 38.4529L18.3745 28.502ZM19.4716 28.4259L21.9189 38.3452L29.2897 31.2551L19.4716 28.4259ZM7.646 25.0183L10.1039 34.9695L17.4862 27.8539L7.646 25.0183ZM27.0905 20.0912L19.5809 27.3298L29.5884 30.2137L27.0905 20.0912ZM28.1427 19.8337L30.6406 29.9558L38.1706 22.7124L28.1427 19.8337ZM15.4713 16.7323L7.94562 23.9773L17.9714 26.8661L15.4713 16.7323ZM16.5196 16.4591L18.9746 26.4096L26.3656 19.2854L16.5196 16.4591ZM4.697 13.0798L7.19562 23.1956L14.7159 15.9559L4.697 13.0798ZM35.8579 11.6754L28.467 18.7995L38.3131 21.6262L35.8579 11.6754ZM36.9142 11.4336L39.404 21.5259L46.9055 14.3103L36.9142 11.4336ZM24.1906 8.33873L16.8328 15.4219L26.6324 18.2349L24.1906 8.33873ZM25.2406 8.07263L27.6991 18.0353L35.0923 10.9089L25.2406 8.07263ZM12.5633 4.965L5.17235 12.0892L15.0183 14.9159L12.5633 4.965ZM13.6205 4.72706L16.0694 14.6528L23.4425 7.55494L13.6205 4.72706ZM1.79265 1.32181L4.29069 11.4347L11.7948 4.2015L1.79265 1.32181Z" fill="#F8F4F9"/>
</g>
</g>
<defs>
<clipPath id="clip0_206_33">
<rect width="48" height="48" fill="white" transform="translate(0.5)"/>
</clipPath>
</defs>
</svg>
