<svg width="49" height="48" viewBox="0 0 49 48" fill="none" xmlns="http://www.w3.org/2000/svg">
<g clip-path="url(#clip0_206_50)">
<path d="M1.25 23.9662V47.4037H48.125V0.528748H1.25V23.9662ZM39.0238 22.0912C40.1465 22.3518 41.1669 22.939 41.9563 23.7787C42.3909 24.2312 42.7685 24.7349 43.0813 25.2787C43.0813 25.3387 41.0563 26.7075 39.8225 27.4725C39.7775 27.5025 39.5975 27.3075 39.3988 27.0112C39.1734 26.6226 38.8535 26.2974 38.4688 26.0659C38.0836 25.8344 37.6464 25.7043 37.1975 25.6875C35.7763 25.59 34.8613 26.3362 34.8688 27.5625C34.857 27.8678 34.9269 28.1707 35.0713 28.44C35.3825 29.0887 35.9638 29.475 37.7863 30.2625C41.1425 31.7062 42.5787 32.6587 43.4712 34.0125C44.4687 35.5125 44.69 37.935 44.015 39.7275C43.265 41.6775 41.4275 43.0012 38.8287 43.44C37.6418 43.5761 36.4426 43.5634 35.2588 43.4025C33.4521 43.1092 31.7855 42.2494 30.5 40.9462C30.0688 40.47 29.2287 39.2287 29.2812 39.1387C29.4182 39.0371 29.5623 38.9456 29.7125 38.865L31.4375 37.875L32.7837 37.095L33.065 37.5112C33.5396 38.1904 34.1437 38.7686 34.8425 39.2137C36.3425 40.0012 38.39 39.8925 39.4025 38.9812C39.7426 38.6475 39.9545 38.2046 40.0017 37.7306C40.049 37.2564 39.9286 36.7807 39.6613 36.3862C39.2863 35.865 38.5362 35.4262 36.44 34.5112C34.0212 33.4687 32.9787 32.8237 32.0262 31.7962C31.4316 31.1182 30.9926 30.3183 30.74 29.4525C30.5516 28.4634 30.5237 27.4504 30.6575 26.4525C31.1562 24.1162 32.9075 22.485 35.465 22.0012C36.6494 21.8547 37.8491 21.8876 39.0238 22.0987V22.0912ZM28.0212 24.0562V25.9762H21.935V43.3125H17.6188V25.9725H11.5175V24.0975C11.5011 23.452 11.5187 22.8061 11.57 22.1625C11.5925 22.1325 15.32 22.1175 19.82 22.125H27.9988L28.0212 24.0562Z" fill="#F8F4F9"/>
</g>
<defs>
<clipPath id="clip0_206_50">
<rect width="48" height="48" fill="white" transform="translate(0.5)"/>
</clipPath>
</defs>
</svg>
