<svg width="49" height="48" viewBox="0 0 49 48" fill="none" xmlns="http://www.w3.org/2000/svg">
<g clip-path="url(#clip0_206_29)">
<path d="M1.87097 16.8912C1.87097 16.8912 0.735841 16.0696 2.09972 14.9738L5.27521 12.1261C5.27521 12.1261 6.18496 11.1664 7.14609 12.0031L36.4617 34.2511V44.9198C36.4617 44.9198 36.4471 46.5953 34.3028 46.4108L1.87097 16.8912Z" fill="#F8F4F9"/>
<path d="M9.42838 23.7671L1.871 30.6532C1.871 30.6532 1.09475 31.2318 1.871 32.2676L5.37951 35.4652C5.37951 35.4652 6.21276 36.3633 7.44501 35.3422L15.4546 29.253L9.42838 23.7671ZM22.694 23.8241L36.5514 13.2172L36.4618 2.60585C36.4618 2.60585 35.87 0.289851 33.8956 1.49622L15.4546 18.3191L22.694 23.8241Z" fill="#F8F4F9"/>
<path d="M34.3024 46.4239C35.1068 47.25 36.0826 46.9789 36.0826 46.9789L46.8815 41.6456C48.2641 40.7006 48.0706 39.5288 48.0706 39.5288V7.67434C48.0706 6.27371 46.6411 5.79034 46.6411 5.79034L37.2807 1.26748C35.2358 0.000350431 33.8956 1.49623 33.8956 1.49623C33.8956 1.49623 35.6179 0.25235 36.4617 2.60623V44.7251C36.4617 45.015 36.4002 45.2989 36.2772 45.5554C36.0312 46.0549 35.4949 46.5191 34.2132 46.3245L34.3024 46.4239Z" fill="#F8F4F9"/>
</g>
<defs>
<clipPath id="clip0_206_29">
<rect width="48" height="48" fill="white" transform="translate(0.5)"/>
</clipPath>
</defs>
</svg>
