<svg width="276" height="561" viewBox="0 0 276 561" fill="none" xmlns="http://www.w3.org/2000/svg">
<mask id="mask0_1_25" style="mask-type:alpha" maskUnits="userSpaceOnUse" x="0" y="0" width="276" height="561">
<rect x="190.492" y="463" width="71" height="67" transform="rotate(50.2226 190.492 463)" fill="#D9D9D9"/>
<rect x="159.82" width="71" height="54.4906" transform="rotate(33.178 159.82 0)" fill="#D9D9D9"/>
<rect x="114.012" y="39" width="71" height="67" transform="rotate(48.2836 114.012 39)" fill="#D9D9D9"/>
<rect x="0.883179" y="146.009" width="71" height="67" transform="rotate(-33.0516 0.883179 146.009)" fill="#D9D9D9"/>
<rect x="82.8881" y="198" width="71" height="67" transform="rotate(22.7301 82.8881 198)" fill="#D9D9D9"/>
<rect x="130" y="300.602" width="71" height="67" transform="rotate(-58.6003 130 300.602)" fill="#D9D9D9"/>
<rect x="190" y="339.928" width="63.383" height="59.8121" transform="rotate(-19.2803 190 339.928)" fill="#D9D9D9"/>
<rect x="213.271" y="406" width="64" height="60" transform="rotate(11.8014 213.271 406)" fill="#D9D9D9"/>
</mask>
<g mask="url(#mask0_1_25)">
<path d="M64.0001 181.178L67.0001 181.178L64.0001 181.178ZM183.357 542.121C184.528 543.293 186.428 543.293 187.599 542.121L206.691 523.029C207.863 521.858 207.863 519.958 206.691 518.787C205.52 517.615 203.62 517.615 202.448 518.787L185.478 535.757L168.507 518.787C167.336 517.615 165.436 517.615 164.265 518.787C163.093 519.958 163.093 521.858 164.265 523.029L183.357 542.121ZM181.044 291.653L182.613 289.096L182.515 289.036L182.413 288.983L181.044 291.653ZM182.478 0C182.478 30.1829 175.033 48.66 164.209 61.4163C153.282 74.2957 138.666 81.6778 123.409 89.226C108.33 96.6858 92.5741 104.327 80.7258 117.831C68.7527 131.478 61 150.798 61.0001 181.178L67.0001 181.178C67 151.902 74.4321 134.103 85.2361 121.788C96.1649 109.331 110.779 102.169 126.069 94.6038C141.181 87.1274 156.935 79.2641 168.785 65.2981C180.738 51.2091 188.478 31.241 188.478 0H182.478ZM241 420.687C241 449.903 227.158 464.394 212.597 479.237C197.96 494.158 182.478 509.517 182.478 540H188.478C188.478 512.153 202.257 498.346 216.881 483.439C231.581 468.454 247 452.453 247 420.687H241ZM61.0001 181.178C61.0001 194.965 62.514 206.108 66.4131 215.78C70.3317 225.501 76.571 233.519 85.6746 241.195C94.7271 248.827 106.668 256.167 122.044 264.536C137.425 272.907 156.444 282.414 179.676 294.323L182.413 288.983C159.093 277.03 140.206 267.59 124.912 259.266C109.614 250.939 98.1129 243.834 89.5422 236.607C81.0227 229.424 75.4578 222.169 71.978 213.537C68.4787 204.857 67.0001 194.568 67.0001 181.178L61.0001 181.178ZM179.476 294.21C235.676 328.682 241 387.668 241 420.687H247C247 387.304 241.683 325.328 182.613 289.096L179.476 294.21Z" fill="#F8F4F9"/>
</g>
</svg>
