<?xml version="1.0" encoding="UTF-8"?><svg id="Layer_2" xmlns="http://www.w3.org/2000/svg" viewBox="0 0 1462.29 1111.6"><defs><style>.cls-1{fill:#c8d9e8;}.cls-1,.cls-2,.cls-3,.cls-4,.cls-5,.cls-6{stroke-width:0px;}.cls-2{fill:#b8d1e5;}.cls-3{fill:#fed05c;}.cls-4{fill:#1c2541;}.cls-5{fill:#e86273;}.cls-6{fill:#f8f4f9;}</style></defs><g id="Layer_2-2"><path class="cls-2" d="m1462.29,72.68C1462.45,21.26,1430.65-.1,1388.79,0,950.21.93,511.61.56,73,.56c-5.7,0-11.45-.22-17.12.16C30.1,2.43,7.93,19.6,2.14,43.74-.07,53.01.2,63,.2,72.68c-.13,340.59-.15,681.16-.2,1021.75,0,9.38,7.53,17.1,16.91,17.15h.17c475.9.03,951.78.03,1427.68,0h.17c9.37-.05,16.9-7.77,16.9-17.15-.06-340.59-.61-681.18.46-1021.75Zm-117.95,887.27c0,25.62-8.93,34.2-35.46,34.2-193.02.03-386.04,0-579.09,0s-383.77.03-575.65,0c-28.58,0-36.66-8.04-36.66-36.43V152.47c0-23.53,11.81-35.57,35.45-35.59,385.5-.04,770.97-.04,1156.47.02,22.88,0,34.94,12.11,34.94,34.39.02,269.55.02,539.11,0,808.66Z"/><path class="cls-4" d="m1309.4,116.9c-385.5-.06-770.97-.06-1156.47-.02-23.64.02-35.45,12.06-35.45,35.59v805.25c0,28.39,8.08,36.43,36.66,36.43,191.88.03,383.77,0,575.65,0s386.07.03,579.09,0c26.53,0,35.46-8.58,35.46-34.2.02-269.55.02-539.11,0-808.66,0-22.28-12.06-34.39-34.94-34.39Zm-256.5,586.09c.28-.02.57-.04.85-.04.04-.01.08-.01.12,0,.24-.01.49-.02.73-.02.57-.01,1.14-.01,1.71-.01h40.99c6.41,0,12.81-.07,19.22-.11,3.22-.02,6.44-.03,9.66,0,.9,0,1.8,0,2.69.02.93,0,1.85,0,2.78.03,1.39.02,2.77.04,4.16.08h.04c1.38.03,2.76.07,4.13.12.53.02,1.05.05,1.57.1,1.04.08,2.06.21,3.06.39.5.09,1,.18,1.49.3.98.21,1.94.47,2.88.77.46.15.93.31,1.38.48.46.17.91.34,1.35.54.44.18.88.38,1.31.6.43.2.85.41,1.27.64,0,.01,0,0,0,0,.83.45,1.64.94,2.41,1.46,1.2.81,2.33,1.69,3.38,2.65.31.28.62.57.91.86.33.32.65.65.95.99.29.3.55.62.81.93.23.25.44.51.63.78.22.28.43.56.64.85.21.27.4.55.59.83.25.37.49.75.72,1.14.17.28.33.57.5.86.19.35.38.7.55,1.06.12.25.24.5.36.75.02.03.03.06.04.09.04.05.06.12.07.17t.01.02c.13.28.25.56.36.84.3.7.56,1.42.78,2.14.05.18.11.36.16.54.12.37.22.74.3,1.11.09.35.17.7.24,1.05.02.05.03.1.03.14.4,1.98.59,4.03.56,6.14,0,.22,0,.45-.02.68,0,.28-.01.56-.04.84-.02.39-.06.78-.1,1.16-.04.44-.1.88-.18,1.32-.02.18-.05.36-.09.54,0,.03,0,.06-.01.09-.03.24-.08.47-.13.7,0,.08-.03.17-.05.25-.03.19-.08.37-.13.55,0,.03,0,.06-.02.09-.08.38-.18.76-.29,1.14-.17.65-.37,1.28-.6,1.91-.05.16-.11.32-.17.47-.46,1.22-1,2.41-1.61,3.55-.2.36-.4.72-.62,1.08-.41.69-.85,1.36-1.32,2.01-.12.16-.23.33-.35.49-.01.01-.01.02-.02.02-.2.27-.4.53-.62.79-.56.71-1.16,1.38-1.79,2.02-.32.32-.64.64-.97.94-.3.29-.61.56-.93.83-.44.37-.88.73-1.34,1.06-.3.24-.6.46-.91.67-.35.25-.7.49-1.07.7-.04.03-.08.06-.12.08-.37.24-.75.46-1.14.67-.4.23-.81.45-1.22.65-1.97.98-4.1,1.75-6.35,2.26-.14.04-.28.07-.42.1-.36.08-.73.16-1.11.22-.15.03-.31.06-.46.08-.83.14-1.68.24-2.55.31-.15.01-.3.02-.45.03-.42.03-.84.05-1.27.06-3.72.09-7.45.17-11.17.24-7.41.14-14.82.22-22.23.27-7.08.04-14.16.04-21.24,0-1.72,0-3.44-.02-5.17-.04-1.12,0-2.23-.01-3.34-.03-1.57-.01-3.15-.03-4.72-.05-.12.01-.24,0-.35,0-3.02-.03-6.03-.08-9.04-.13-.37-.01-.74-.02-1.11-.02-3.47-.06-6.93-.13-10.4-.21-2.05-.04-4.03-.29-5.93-.72-.47-.09-.93-.21-1.38-.33-.04-.02-.09-.03-.14-.04-.42-.11-.83-.23-1.23-.37-.02-.01-.04-.01-.06-.02-.45-.13-.88-.29-1.31-.46-.44-.16-.87-.34-1.3-.53-.43-.18-.86-.38-1.27-.59-.42-.2-.82-.41-1.22-.64-.34-.18-.67-.38-1-.59-.11-.06-.21-.12-.31-.19-.27-.15-.53-.33-.79-.51-.02-.01-.04-.03-.06-.04-.29-.2-.58-.41-.87-.63-.08-.04-.15-.1-.22-.15-.35-.26-.69-.53-1.02-.81-.13-.1-.26-.2-.39-.32-.33-.28-.65-.56-.96-.85-.3-.28-.59-.57-.87-.85-.32-.32-.63-.65-.92-.99-.61-.67-1.17-1.37-1.71-2.09-.27-.36-.53-.73-.77-1.11-.25-.36-.48-.74-.71-1.12-.16-.26-.31-.52-.45-.79-.12-.22-.24-.44-.36-.66-.2-.38-.39-.76-.57-1.14-.14-.3-.28-.61-.41-.91-.04-.09-.08-.19-.12-.29-.14-.33-.26-.65-.39-.98-.51-1.37-.92-2.79-1.22-4.25-.08-.39-.16-.79-.22-1.2-.08-.45-.14-.92-.19-1.38,0-.03,0-.06,0-.08-.05-.4-.08-.8-.11-1.21-.04-.51-.06-1.02-.07-1.53-.29-15.76,12.13-28.14,29.4-29.3Zm-486.56-416.46c-13.28-13.65-13.78-30.55-2.06-42.54,11.58-11.84,29.37-11.81,42.79,1.11,18.9,18.19,37.55,36.71,55.65,55.72,13.6,14.28,13.29,29.34-.66,43.86-17.78,18.51-35.98,36.63-54.4,54.53-14.49,14.06-31.78,14.4-43.88,1.68-11.65-12.22-11.04-28.68,2.52-42.49,11.52-11.72,23.85-22.63,37.61-35.6-13.97-13.42-26.12-24.48-37.57-36.27Zm-32.28,182.6c6.74-.02,13.49-.03,20.24-.04,5.35-.01,10.7-.02,16.05-.02,24.71-.03,49.42-.02,74.14.02,9.52.01,19.05.03,28.58.05,8.38.01,16.77.03,25.15.05,1.25,0,2.48.05,3.67.15,2.39.17,4.66.53,6.79,1.05.53.12,1.05.26,1.57.42.52.15,1.03.3,1.53.48,1,.33,1.96.71,2.89,1.12.93.4,1.82.85,2.68,1.34h.01c.43.25.85.5,1.26.77.41.25.81.52,1.2.81.39.27.78.55,1.15.86.37.28.74.59,1.09.91.35.31.7.63,1.03.96.35.34.69.7,1.02,1.07.21.23.41.45.6.69.11.13.22.26.33.4.24.29.47.58.68.88.21.29.41.57.61.87.18.27.36.54.53.81.04.06.08.13.12.2.48.8.93,1.63,1.32,2.49.06.12.12.24.17.36.09.21.18.42.27.63.06.14.12.28.17.42.1.27.21.54.3.81.13.34.24.69.35,1.04.15.46.28.93.4,1.4.12.47.22.95.32,1.44.1.48.18.97.25,1.46.07.47.12.95.17,1.43.05.46.08.91.1,1.37.02.26.03.52.03.78.01.46.02.93.01,1.4v.42c-.02.8-.07,1.58-.14,2.35-.03.38-.08.76-.13,1.14,0,.07-.01.15-.03.22-.04.28-.08.56-.13.84,0,.05-.01.11-.03.17-.07.43-.16.85-.25,1.27-.06.28-.12.55-.2.82-.08.31-.16.61-.24.91-.08.3-.17.6-.28.89-.05.17-.11.35-.17.52.01.01,0,.02-.01.03-.13.39-.26.77-.42,1.15-.18.45-.37.9-.57,1.33-.06.13-.11.25-.19.38.01.02,0,.03-.02.05-.24.51-.51,1.02-.79,1.52-.27.5-.56.99-.88,1.46-.27.43-.55.84-.86,1.25-.17.23-.34.47-.53.69-.08.12-.18.25-.28.36-.15.19-.31.38-.46.56-.11.13-.21.25-.33.37-.2.23-.39.44-.6.66-.28.29-.56.58-.85.86-1.08,1.05-2.25,2.02-3.51,2.9-.31.22-.63.43-.96.64-.09.07-.19.13-.29.18-.37.24-.75.48-1.14.69,0,.01-.01.01-.01.01-.44.25-.88.49-1.34.72-.4.2-.8.4-1.22.59-.16.08-.32.15-.48.21-.37.17-.75.33-1.14.48-1.33.54-2.72,1-4.18,1.38-.26.07-.52.14-.79.2-.76.19-1.55.35-2.35.49-.35.07-.7.12-1.06.18-.65.1-1.3.18-1.96.26-.06.01-.13.02-.19.02-.02.01-.04.01-.06,0h-.01c-.36.04-.72.07-1.08.1-.07.02-.15.02-.23.02-.29.03-.59.04-.89.06h-.01c-.31.02-.62.03-.93.04-.05.01-.1.01-.15.01-.06.01-.11.01-.17,0h-.01c-.35.01-.7.02-1.05.02-7.86.07-15.72.12-23.59.15-13.87.05-27.73.04-41.59.03-15.94-.02-31.87-.06-47.82-.06-21.49,0-42.97.03-64.45.02-8.09,0-16.18-.01-24.27-.02-7.77-.01-15.53-.03-23.3-.07h-.97c-.9,0-1.78-.03-2.65-.08-.87-.05-1.73-.12-2.58-.21h-.01c-.85-.09-1.68-.21-2.51-.35h-.01c-.82-.14-1.63-.31-2.42-.49-1.2-.28-2.37-.62-3.5-1.02-.75-.27-1.48-.56-2.2-.87-.36-.15-.72-.32-1.07-.49-.7-.34-1.38-.71-2.05-1.11-.34-.2-.67-.41-.99-.63-1.29-.86-2.5-1.82-3.62-2.9-.05-.04-.09-.08-.13-.12-.14-.14-.27-.27-.39-.4-.03-.02-.05-.03-.05-.05-.19-.19-.38-.39-.56-.59-.19-.2-.37-.4-.54-.61-1.25-1.46-2.36-3.09-3.32-4.91-.09-.17-.18-.34-.27-.52-.72-1.41-1.34-2.93-1.87-4.57-.29-.88-.54-1.76-.76-2.64-.11-.44-.22-.88-.31-1.32-.1-.43-.18-.87-.26-1.31-.03-.18-.07-.35-.09-.52-.04-.18-.06-.35-.08-.53-.05-.3-.09-.58-.13-.88-.04-.35-.08-.7-.11-1.05-.02-.21-.04-.41-.05-.62-.02-.2-.03-.4-.04-.6-.02-.23-.03-.46-.03-.69-.04-1.11-.02-2.2.07-3.27.03-.38.07-.75.12-1.13.01-.13.02-.25.04-.37.05-.34.1-.68.16-1.02.04-.26.09-.51.15-.77.13-.63.28-1.25.46-1.86.06-.24.14-.47.22-.71.07-.23.15-.47.24-.7.08-.23.16-.46.26-.69.8-2.02,1.88-3.93,3.27-5.71.21-.26.41-.52.63-.77.23-.28.47-.55.72-.81.11-.12.23-.25.35-.37.18-.19.38-.39.57-.57,1.17-1.13,2.49-2.2,3.97-3.18,5.75-3.82,13.68-6.05,20.64-6.09,10.59-.06,21.18-.11,31.77-.15s21.18-.08,31.77-.1Zm30.97,172.95c-.59.21-1.2.4-1.82.57-.36.1-.73.2-1.11.29-.37.09-.75.18-1.13.26-1.41.32-2.89.56-4.42.73-.34.04-.68.07-1.03.1-.14.02-.28.03-.42.04-.27.02-.55.04-.82.06-.38.03-.77.05-1.17.06-.39.02-.79.03-1.18.04-.4.01-.8.02-1.21.02-54.41.15-108.83.19-163.26.12-4.12,0-8.25,0-12.37-.01-16.22-.02-32.44-.05-48.66-.09-.71,0-1.4-.02-2.09-.05-.54-.02-1.08-.06-1.6-.09-.12-.01-.25-.02-.38-.04-.53-.03-1.05-.09-1.56-.15-.58-.06-1.15-.14-1.71-.23-.61-.09-1.21-.2-1.81-.32-1.15-.23-2.25-.5-3.33-.81-.99-.28-1.96-.61-2.9-.97-.22-.08-.43-.17-.64-.26-.21-.07-.42-.16-.63-.26-.14-.05-.29-.11-.43-.18-.49-.21-.97-.44-1.44-.68-.93-.47-1.83-.97-2.69-1.51-.43-.27-.85-.55-1.26-.84-.82-.58-1.6-1.2-2.34-1.84-.37-.33-.73-.66-1.08-1-.67-.64-1.28-1.31-1.86-2-.1-.12-.19-.23-.29-.35-.17-.2-.33-.41-.48-.62-.04-.04-.07-.08-.09-.12-.02-.01-.03-.02-.02-.03-.16-.21-.32-.43-.47-.64-.13-.16-.24-.33-.35-.5-.09-.13-.18-.26-.26-.4-.17-.26-.34-.52-.49-.78-.12-.21-.24-.41-.35-.62-.14-.23-.26-.46-.38-.7-.12-.21-.23-.43-.33-.65-.07-.13-.14-.26-.19-.4-.02-.02-.03-.05-.03-.07-.08-.16-.16-.32-.23-.49-.36-.82-.68-1.66-.96-2.53-.06-.18-.11-.35-.16-.53-.12-.39-.23-.78-.33-1.18-.11-.4-.2-.8-.28-1.21-.02-.06-.03-.12-.04-.18-.07-.35-.14-.7-.19-1.05-.01-.04-.02-.09-.02-.13-.03-.15-.05-.3-.07-.46-.14-.96-.24-1.94-.29-2.95-.03-.53-.04-1.07-.04-1.61,0-.23.01-.46.01-.69.01-.53.03-1.07.07-1.58v-.05c.03-.43.06-.85.11-1.26.06-.62.14-1.22.24-1.81.16-1.01.37-1.99.62-2.94.1-.38.2-.75.33-1.12.01-.04.02-.09.04-.13.04-.13.08-.26.13-.39,0-.05.03-.1.05-.15.07-.24.16-.49.25-.72.2-.53.41-1.06.64-1.56.39-.86.82-1.7,1.29-2.5.47-.8.99-1.57,1.55-2.31.56-.74,1.16-1.44,1.8-2.12.08-.09.16-.17.24-.25.25-.25.5-.5.75-.73.16-.16.33-.31.5-.45.47-.44.97-.85,1.48-1.23.15-.12.31-.24.47-.35.38-.29.77-.56,1.17-.81.22-.15.43-.29.66-.41.21-.15.42-.28.64-.39.27-.17.55-.32.83-.47.03-.02.07-.04.11-.06.1-.06.2-.11.3-.15.49-.27.98-.51,1.49-.73.32-.15.63-.29.96-.42.5-.21,1-.41,1.52-.59.36-.13.73-.26,1.1-.37.01-.01.02-.01.03-.01.29-.1.58-.19.88-.27.27-.09.53-.17.8-.24.17-.04.35-.09.53-.13.03-.02.05-.02.08-.02.13-.04.25-.07.38-.09.09-.04.18-.06.27-.07.16-.04.33-.09.5-.12.13-.04.25-.06.38-.08.4-.1.81-.18,1.23-.25.05-.02.1-.03.15-.03.03,0,.06-.02.1-.02.45-.09.9-.16,1.36-.23.81-.12,1.64-.22,2.49-.3.39-.04.79-.08,1.19-.1.04-.01.09-.02.14-.01,1.26-.1,2.56-.15,3.89-.16,37.67-.19,75.34-.05,113.01-.05,27.96-.01,55.92-.08,83.89-.03,3.3,0,6.61.01,9.92.02,4.56,0,9.13.01,13.69.04,1.26.01,2.52.02,3.78.02.51,0,1.01.01,1.51.02.49.02.99.04,1.47.06.41.03.81.05,1.21.07,1.7.13,3.34.32,4.9.59.37.06.73.13,1.08.2.09.01.19.03.28.06.37.07.74.15,1.1.23.43.1.86.2,1.28.31.54.14,1.07.29,1.59.46,1.16.35,2.27.76,3.32,1.21.32.13.63.27.94.41,0,0,.01,0,.01.01.11.05.22.1.33.16.05.01.09.04.14.06.23.11.46.22.68.34.04.02.09.04.13.07l.39.21s.07.03.1.05c.36.19.7.39,1.04.6.42.25.84.52,1.24.79.3.21.6.42.89.64.2.14.39.29.58.44.61.48,1.2.99,1.75,1.52l.1.1c.07.06.13.12.2.19.27.26.53.53.77.8.32.34.62.7.92,1.06.29.36.58.72.85,1.1.27.38.53.76.78,1.16.25.39.49.79.72,1.2.16.3.32.59.47.9.03.04.05.09.07.14.07.12.13.25.19.38.2.41.38.83.56,1.26.16.4.32.82.47,1.24.16.44.3.89.44,1.35.01.04.02.09.04.15.13.44.25.89.35,1.35.12.49.23.98.32,1.49.42,2.26.61,4.67.56,7.23-.02,1.1-.09,2.17-.21,3.22-.05.53-.12,1.04-.21,1.55-.07.51-.16,1.01-.27,1.5-.09.5-.21.99-.34,1.47-.12.48-.26.95-.41,1.42-.14.47-.3.93-.47,1.38-.17.46-.35.9-.55,1.34-.18.44-.38.87-.6,1.29-.21.42-.43.84-.66,1.24-.01,0-.01.01-.01.01-.19.34-.39.67-.6.99-.1.17-.21.33-.32.48-.14.23-.3.45-.46.67-.09.13-.19.26-.29.39-.18.25-.37.49-.57.73-.63.8-1.32,1.55-2.06,2.26-.33.33-.68.65-1.04.96-.35.31-.72.62-1.1.91-.68.52-1.39,1.03-2.14,1.49-.27.18-.55.35-.83.5-.02.02-.04.04-.07.05-.31.18-.63.36-.95.53-.77.42-1.57.8-2.4,1.16-.83.35-1.68.67-2.56.96Zm-178.53-280.84c17.94-36.21,35.86-72.42,54.19-108.42,7.32-14.35,19.26-20.83,35.44-16.31,13.99,3.89,19.39,14.65,21.39,29.31-2.09,5.45-4.02,12.01-7.02,18.08-17.12,34.7-34.41,69.34-51.83,103.89-10.24,20.28-26.44,27.41-42.61,19.24-16.33-8.27-19.92-24.9-9.56-45.79Zm-172.1-60.56c18.1-18.97,36.66-37.48,55.58-55.6,13.58-13.04,30.91-12.97,42.63-1,11.58,11.81,11.15,29.03-1.98,42.63-11.06,11.47-22.96,22.1-37.41,35.89,13.75,12.97,25.6,23.53,36.71,34.82,14.26,14.49,15.13,31.62,3.02,43.88-12.26,12.45-29.28,11.9-43.91-2.29-18.37-17.85-36.54-35.98-54.28-54.47-13.65-14.26-13.88-29.71-.36-43.86Zm62.68,226.97c-.97-.01-1.93-.02-2.9-.03-.97-.01-1.94-.03-2.9-.05-1.94-.04-3.87-.1-5.8-.18-2.37-.09-4.64-.36-6.8-.79-.39-.07-.78-.16-1.16-.25-.04-.01-.08-.02-.11-.03-.35-.08-.69-.17-1.03-.26-.11-.02-.22-.05-.33-.09-.28-.08-.56-.16-.83-.24-.01.01-.03,0-.04-.01-.39-.12-.77-.24-1.16-.37-.37-.12-.74-.25-1.1-.4-.28-.1-.56-.21-.84-.33-.34-.13-.68-.27-1.01-.42-.44-.2-.87-.4-1.3-.62-.9-.44-1.76-.93-2.59-1.45-.37-.23-.73-.47-1.09-.71-.14-.1-.28-.2-.42-.3-.3-.21-.59-.43-.88-.65-.37-.28-.72-.57-1.07-.87-.28-.24-.56-.48-.83-.74-.18-.16-.36-.33-.53-.5-.25-.23-.49-.48-.74-.74-.08-.09-.17-.18-.25-.27-.2-.2-.39-.41-.56-.62-.13-.14-.25-.29-.37-.43-.55-.64-1.06-1.31-1.54-2.01-.2-.29-.39-.58-.58-.88l-.21-.33c-.22-.36-.43-.73-.64-1.1-.45-.82-.86-1.67-1.23-2.54-.14-.32-.27-.65-.39-.99-.1-.26-.19-.51-.27-.77-.18-.51-.35-1.04-.49-1.57-.17-.6-.32-1.2-.45-1.82-.05-.25-.11-.5-.15-.76-.04-.2-.07-.4-.1-.6-.05-.27-.08-.55-.12-.82-.1-.69-.17-1.4-.2-2.12-.03-.33-.04-.67-.05-1.01-.03-.56-.03-1.14-.01-1.72-.01-.22,0-.43.01-.65.04-.99.12-1.95.23-2.89.03-.28.07-.56.12-.83.05-.4.12-.8.2-1.19.04-.28.1-.55.17-.82.03-.21.08-.41.13-.61.07-.32.15-.64.24-.95.11-.39.22-.78.35-1.16.06-.22.13-.43.21-.64.4-1.16.87-2.27,1.41-3.32.06-.13.13-.25.2-.37.21-.42.44-.82.68-1.21.19-.32.39-.63.59-.93.25-.38.51-.75.78-1.1.2-.28.42-.56.65-.83.23-.28.47-.56.72-.83.7-.8,1.46-1.54,2.27-2.23.36-.31.74-.62,1.12-.91.33-.26.66-.51,1-.74.05-.04.11-.07.16-.11.37-.26.75-.51,1.14-.73.34-.22.69-.43,1.04-.61.06-.04.12-.08.19-.11.1-.07.2-.12.31-.16.27-.16.55-.3.83-.43.12-.07.25-.13.38-.18.36-.18.72-.35,1.1-.5.45-.2.91-.39,1.39-.56.54-.2,1.1-.4,1.66-.58.02,0,.04,0,.07-.02.48-.15.96-.29,1.46-.42.29-.08.58-.16.88-.23.21-.06.43-.11.65-.15.31-.08.62-.14.94-.2.47-.1.95-.19,1.43-.27.29-.05.58-.1.88-.14.47-.07.95-.14,1.43-.19.57-.07,1.15-.12,1.74-.17.58-.05,1.18-.08,1.78-.11h.07c.58-.03,1.17-.04,1.77-.05,19.91-.22,39.83-.29,59.73-.17,3.98.02,7.95.05,11.92.09,3.41.04,6.82.08,10.23.12.36,0,.73.01,1.09.03.36.01.72.03,1.07.05.72.04,1.42.1,2.12.19.69.08,1.38.17,2.05.29.27.04.55.09.81.14.73.13,1.45.29,2.16.48.27.07.54.14.8.21.37.09.74.2,1.1.32.28.09.56.18.83.27.33.11.67.22.99.35.33.11.65.24.97.38.22.09.44.18.66.28.39.17.78.34,1.16.53.87.41,1.72.87,2.53,1.35.33.2.64.39.95.6.01,0,.02.01.03.02.2.13.4.26.6.41.2.13.4.26.59.42.14.09.29.2.43.31.19.14.38.28.56.44.18.13.36.28.53.42.16.13.32.26.48.42.19.15.37.32.55.48.22.2.44.41.66.63.13.12.26.25.39.39.59.6,1.16,1.22,1.69,1.88.29.35.56.7.82,1.06.03.03.06.07.09.12.21.28.41.58.6.87.11.15.21.31.31.48.13.19.26.4.37.6.07.1.14.21.2.32.23.39.44.79.65,1.19.18.36.36.72.52,1.08.09.18.17.36.24.54.05.11.1.22.14.34.09.22.18.44.27.66.12.3.23.6.32.91.09.25.17.51.25.77.11.31.2.62.28.94.08.3.16.59.22.89.02.06.04.12.04.19.04.15.08.31.11.46.03.14.06.27.08.42.07.34.13.7.19,1.05.01.07.02.13.02.21.06.39.11.78.15,1.17.01.01.01.02,0,.03.04.38.08.78.1,1.17.03.37.04.75.04,1.13.01.17.01.33.01.5,0,.44,0,.88-.02,1.32.01.01.01.02,0,.03.01.01,0,.02,0,.02-.01.21-.02.43-.03.63-.01.39-.04.77-.09,1.15-.02.15-.03.3-.05.44-.04.37-.09.74-.14,1.1,0,.06-.01.13-.03.19-.03.27-.08.54-.14.81-.04.31-.11.62-.19.92-.05.28-.11.54-.18.81-.1.41-.21.81-.33,1.2-.06.21-.12.42-.19.63-.25.79-.54,1.56-.86,2.32-.36.84-.76,1.66-1.2,2.46-.03.06-.06.11-.1.17-.38.7-.8,1.39-1.26,2.05-.13.2-.27.4-.41.59,0,.01,0,.02-.02.03-.14.2-.28.4-.44.6-.27.37-.55.72-.85,1.07-.19.23-.38.45-.58.67-.42.48-.86.94-1.32,1.39-.31.3-.63.59-.95.88-.01.01-.02.02-.03.03-.17.15-.33.29-.51.44-1.02.87-2.11,1.68-3.26,2.42-.29.19-.59.37-.9.55-.06.04-.11.07-.17.1-.35.21-.71.41-1.07.6-.22.12-.44.24-.67.35-.28.14-.56.28-.84.41-.22.11-.44.21-.67.3-.34.16-.69.3-1.04.45-.57.23-1.14.44-1.73.64-.34.12-.68.23-1.03.34-1,.31-2.03.58-3.09.81-.52.11-1.06.21-1.6.31-.54.09-1.08.18-1.64.24-1.1.15-2.24.26-3.39.31-2.76.13-5.51.21-8.27.26-11.45.21-22.92-.13-34.38-.12-9.78.02-19.56.24-29.34.17Zm131.79,322.12h0c-.02.5-.04.99-.08,1.48-.01.21-.03.42-.06.63-.03.34-.06.69-.1,1.03-.14,1.16-.35,2.29-.62,3.39-.05.24-.11.49-.18.72-.1.4-.21.79-.34,1.18-.1.35-.22.69-.34,1.03-.12.36-.26.72-.4,1.07-.1.24-.2.48-.3.71-.06.15-.13.3-.2.45-.12.27-.24.54-.38.8-.18.38-.38.76-.58,1.12-.12.22-.24.43-.37.64-.29.5-.6.98-.93,1.45-.16.25-.33.5-.51.74-.25.34-.51.68-.78,1-.19.24-.39.48-.6.7-.03.06-.08.11-.14.17-.24.28-.49.55-.76.81-.42.46-.88.89-1.35,1.31-.65.59-1.33,1.14-2.04,1.66-1.42,1.04-2.97,1.96-4.62,2.74-.82.39-1.68.74-2.56,1.06-.88.32-1.79.61-2.73.86-.47.13-.94.24-1.42.34-.48.11-.96.21-1.45.29-.98.18-1.99.32-3.03.41-.51.05-1.04.09-1.57.12-.97.05-1.93.09-2.9.12-.97.04-1.94.07-2.91.08-.94.03-1.89.04-2.83.05-4.17.04-8.34-.02-12.51-.08-3.17-.04-6.34-.08-9.51-.08-2.99,0-5.98.04-8.98.08-3.94.06-7.88.12-11.82.08-.89-.01-1.77-.02-2.66-.05-.92-.01-1.83-.04-2.75-.08-.92-.03-1.83-.07-2.75-.12-1.04-.06-2.06-.16-3.06-.31-.5-.06-.99-.14-1.48-.24-.49-.09-.97-.19-1.45-.3-.48-.1-.95-.22-1.41-.35-.97-.27-1.9-.57-2.81-.92-.41-.15-.82-.31-1.21-.49-.52-.22-1.03-.45-1.53-.7-.25-.12-.49-.24-.73-.38-.59-.3-1.17-.64-1.73-.99-.32-.19-.63-.39-.93-.6-.22-.14-.44-.29-.65-.46-.21-.14-.41-.29-.61-.45-.02-.01-.04-.02-.06-.04-.09-.07-.18-.14-.27-.21-.03-.02-.06-.04-.08-.07-.19-.14-.38-.3-.56-.45-.19-.15-.37-.3-.55-.47-.2-.18-.4-.35-.59-.53-.21-.19-.42-.39-.62-.6-.27-.27-.54-.55-.8-.83-.26-.28-.51-.57-.76-.86s-.49-.59-.72-.89c-.23-.27-.44-.56-.64-.85-.05-.05-.08-.1-.11-.16-.19-.24-.36-.49-.51-.75-.09-.12-.17-.24-.23-.36-.02-.01-.03-.02-.02-.03-.15-.23-.29-.46-.43-.7-.2-.33-.39-.67-.57-1.01,0-.01-.02-.02-.02-.03-.18-.33-.35-.66-.51-1.01-.33-.7-.63-1.41-.91-2.14-.12-.31-.23-.61-.33-.92-.06-.12-.1-.25-.13-.38-.1-.29-.18-.57-.26-.86t-.01-.02s-.03-.09-.04-.13c-.02-.04-.03-.09-.03-.13-.09-.32-.17-.63-.25-.95-.03-.07-.04-.14-.05-.21-.08-.33-.15-.65-.22-.99-.08-.4-.15-.8-.21-1.2-.06-.33-.11-.66-.14-1-.03-.19-.05-.38-.06-.57-.04-.33-.07-.66-.09-.99-.01-.04-.01-.08-.01-.12-.04-.46-.06-.93-.07-1.4-.03-1.07.01-2.14.1-3.2.03-.35.07-.71.12-1.07.03-.26.06-.51.1-.77.03-.19.06-.38.09-.56.05-.28.1-.57.16-.85.03-.19.07-.38.12-.57.04-.19.09-.38.13-.56h0c.08-.33.16-.65.25-.97.09-.32.18-.65.29-.97.05-.19.11-.38.17-.56.23-.69.49-1.37.77-2.05.07-.17.14-.34.22-.51.25-.58.52-1.15.81-1.72.13-.24.26-.49.39-.73.3-.56.62-1.1.96-1.64.13-.2.25-.4.38-.59.03-.05.06-.09.1-.14.15-.24.32-.48.49-.72.21-.3.43-.6.66-.89.23-.29.45-.58.7-.86.58-.72,1.21-1.4,1.88-2.06.62-.61,1.26-1.19,1.93-1.74,1.34-1.1,2.78-2.07,4.31-2.88,3.06-1.64,6.48-2.66,10.15-2.88,13.81-.81,27.72-1.13,41.6-.91,1.38.01,2.76.04,4.14.08,1.17.02,2.34.05,3.51.09.21.01.41.02.62.02,1.43.04,2.85.09,4.27.15,1.57.06,3.13.13,4.69.21,2.52.11,5.04.25,7.55.41.49.03.98.08,1.46.13.43.05.85.11,1.27.19.45.07.89.16,1.33.26.31.06.61.14.91.22.23.06.45.13.68.19.74.22,1.47.47,2.17.75,3.22,1.29,6.07,3.21,8.48,5.61.11.11.22.22.33.34.13.11.23.22.33.34.44.46.86.94,1.26,1.44.24.29.47.59.7.89.23.3.44.6.65.91.3.44.59.89.87,1.34.15.23.28.45.41.69.13.24.27.47.39.71.35.63.66,1.28.95,1.93.15.33.3.67.43,1t0,.01c.11.27.22.55.32.83.07.18.14.37.2.55.16.46.31.93.45,1.4.14.48.27.96.39,1.44.12.47.22.94.31,1.42.01.05.02.11.03.16.07.39.14.79.2,1.19.02.07.03.14.03.21.06.41.11.83.16,1.25.01.09.02.18.02.27.03.24.05.49.06.73.03.24.04.49.05.74.01.24.02.49.02.73.02.57.02,1.14,0,1.71Zm-83.84-88.75c-.61,0-1.21-.02-1.81-.05-.55-.02-1.09-.05-1.63-.1l-.36-.03c-.36-.03-.7-.07-1.05-.11-.14-.01-.28-.03-.42-.05-.11-.01-.22-.02-.33-.04-1.05-.14-2.07-.32-3.07-.53-.54-.11-1.07-.24-1.6-.38-.53-.13-1.05-.28-1.57-.44-.46-.14-.9-.28-1.34-.44-.56-.2-1.11-.4-1.64-.62-.96-.39-1.89-.83-2.78-1.29-.05-.03-.09-.05-.13-.08-.41-.21-.81-.43-1.2-.67-.87-.5-1.69-1.04-2.48-1.63-1.19-.87-2.3-1.81-3.31-2.83-.34-.33-.67-.68-.99-1.04-.32-.35-.63-.71-.93-1.08-.59-.74-1.15-1.51-1.67-2.31-.27-.42-.53-.84-.78-1.28-.22-.38-.43-.77-.63-1.17-.01-.01-.01-.02-.02-.04-.21-.41-.4-.82-.59-1.25-.02-.04-.03-.08-.05-.12-.18-.41-.35-.82-.5-1.24-.15-.38-.28-.76-.4-1.15-.06-.16-.11-.31-.15-.48-.02-.04-.03-.08-.04-.12-.1-.31-.19-.62-.27-.94-.04-.12-.07-.25-.09-.37-.09-.32-.16-.64-.23-.96-.04-.17-.07-.35-.1-.53-.06-.26-.1-.52-.14-.79-.04-.18-.07-.37-.09-.56-.06-.36-.1-.73-.14-1.1-.02-.14-.03-.29-.04-.44-.03-.31-.05-.63-.07-.95-.02-.19-.03-.39-.03-.59-.02-.43-.03-.85-.03-1.28v-.49c.01-.45.02-.9.05-1.35.01-.25.03-.5.05-.74,0-.16.02-.32.04-.48.06-.71.15-1.41.26-2.09.07-.44.15-.89.25-1.32.03-.15.06-.29.09-.42.06-.3.13-.58.21-.87.05-.19.09-.37.15-.55.11-.39.22-.79.35-1.17.14-.42.28-.83.44-1.23.2-.54.42-1.07.66-1.59.13-.28.26-.56.41-.83.2-.43.43-.85.67-1.26.13-.23.27-.46.41-.69.12-.2.25-.41.38-.6.06-.1.12-.2.19-.29.24-.37.5-.73.76-1.08.28-.37.57-.74.88-1.1.3-.36.61-.71.94-1.06.32-.35.65-.69,1-1.02.68-.65,1.41-1.28,2.18-1.87.76-.6,1.56-1.16,2.4-1.68.42-.26.85-.52,1.29-.75.44-.26.88-.49,1.34-.71.45-.24.92-.45,1.39-.65,3.78-1.67,8.12-2.74,12.94-3.12,1.2-.11,2.44-.16,3.7-.17,6.83-.06,13.67-.09,20.5-.09,9.12-.02,18.24,0,27.35.02,6.84.01,13.68.02,20.52.02,5.45.01,10.89,0,16.34-.01,4.22-.01,8.44-.02,12.66-.03,4.03-.01,8.07-.02,12.1-.02,3.75,0,7.5,0,11.25.02,3.57.01,7.13.03,10.7.06,2.34.03,4.68.05,7.02.08.19,0,.38,0,.56.01.27,0,.53,0,.79.03.44.01.89.04,1.33.07.44.03.87.07,1.3.11.4.03.79.08,1.18.14.16.02.32.04.48.07.44.05.87.12,1.29.2.02-.01.04,0,.06.01.55.09,1.08.19,1.61.31,1.08.24,2.14.52,3.16.83.08.02.17.05.25.08.34.11.68.22,1.01.34.6.21,1.2.43,1.78.68.31.12.62.25.93.4,0,0,.02,0,.03.01.21.09.42.19.63.29.81.37,1.59.78,2.35,1.22.32.19.62.37.93.56.34.21.67.43,1,.65.27.17.54.36.8.55.38.27.74.55,1.1.83h.01c.38.31.75.62,1.11.94.29.25.58.52.86.79.42.39.82.8,1.21,1.22.18.18.35.37.5.56.16.16.3.33.44.5.25.3.5.61.74.93.1.14.2.27.3.41.03.03.05.06.07.09.13.17.25.34.36.51.16.21.31.43.44.65.15.21.28.42.4.63.03.03.05.06.06.1.1.16.2.33.29.49.52.87.97,1.77,1.36,2.7.14.29.26.59.38.89.15.39.3.79.43,1.2.04.11.07.21.1.32.02.04.04.09.04.14.11.29.19.6.28.91.11.39.21.78.29,1.17.04.17.08.34.11.52.05.23.1.46.13.69.05.23.09.46.12.69.01.03.01.07.01.1.06.34.11.69.14,1.04.01.09.02.18.03.27.04.38.07.76.09,1.15.01.11.01.21.01.31.03.44.04.88.04,1.32,0,.25,0,.51-.01.76-.01.5-.04,1-.08,1.49-.02.33-.05.66-.09.98-.06.73-.16,1.45-.29,2.16-.06.34-.12.67-.2,1-.01.09-.03.18-.06.26-.02.15-.05.29-.09.43-.01.04-.01.08-.03.12-.07.32-.15.64-.25.95-.11.42-.23.84-.37,1.24-.08.25-.16.49-.25.73-.07.2-.14.4-.22.6-.11.29-.23.57-.35.85-.03.09-.06.18-.11.26-.16.37-.32.74-.51,1.1-.46.97-.99,1.9-1.58,2.79-.12.2-.25.4-.39.59-.44.65-.92,1.29-1.42,1.89-.1.13-.21.25-.31.37-1.2,1.41-2.56,2.7-4.05,3.87-.77.61-1.58,1.17-2.42,1.7-.51.32-1.03.63-1.57.92-.26.16-.53.3-.81.43-.12.07-.24.13-.36.19-.42.21-.85.42-1.29.61-1.42.64-2.92,1.18-4.48,1.64-.53.15-1.05.3-1.59.43-1.07.26-2.18.49-3.31.67-2.27.36-4.65.56-7.13.57-46.16.21-92.31.25-138.47-.02Zm405.67,90.92c-.06.56-.13,1.12-.21,1.67-.07.51-.16,1.01-.26,1.5-.08.41-.18.81-.28,1.21-.14.56-.3,1.12-.48,1.67-.3.94-.65,1.84-1.04,2.72-.39.88-.83,1.73-1.31,2.55-.48.82-1.01,1.61-1.59,2.37-.29.38-.59.76-.9,1.12-.31.37-.62.72-.96,1.07-.32.35-.66.69-1.01,1.02,0,0,0-.01-.01,0-.32.31-.64.6-.98.88-.66.57-1.36,1.11-2.09,1.62-.16.11-.32.22-.48.33-.29.2-.59.4-.89.58-.21.13-.41.26-.62.38-.17.1-.34.2-.51.29-.25.15-.51.29-.77.42-.35.19-.7.37-1.07.55-.94.46-1.91.88-2.92,1.25-1.01.38-2.07.72-3.15,1.02-2.17.61-4.48,1.05-6.92,1.32-.77.09-1.56.16-2.36.21-.21.02-.42.03-.64.04-.04,0-.09.01-.13,0-.36.03-.72.04-1.09.05-.49.02-.98.03-1.47.03-13.69.07-27.38.09-41.07.09-18.83,0-37.64-.04-56.46-.04s-36.74.04-55.1.04c-14.15,0-28.3-.02-42.45-.11-.4,0-.81,0-1.2-.03-.3,0-.59-.01-.89-.03-.23-.01-.46-.02-.68-.04-.31-.01-.61-.03-.91-.06-.48-.03-.96-.08-1.44-.14-.33-.03-.66-.07-.98-.12-.02.01-.05,0-.07-.01-.24-.02-.47-.05-.7-.09-.07-.01-.14-.02-.21-.04-.33-.05-.65-.1-.96-.16-.64-.11-1.26-.23-1.88-.38-.3-.06-.6-.13-.9-.21-2.98-.74-5.73-1.79-8.21-3.12-.13-.06-.27-.13-.4-.21-.3-.16-.6-.34-.89-.51-.23-.14-.47-.28-.69-.43-.53-.32-1.04-.67-1.54-1.04-.12-.08-.25-.17-.37-.27-.09-.05-.17-.12-.26-.19-.19-.14-.38-.29-.56-.44-.23-.18-.47-.37-.69-.57-.21-.17-.41-.35-.61-.54-.17-.14-.33-.29-.49-.45-.31-.28-.6-.58-.89-.88-.33-.34-.66-.69-.97-1.06-.62-.72-1.2-1.47-1.74-2.25-.27-.39-.53-.79-.77-1.19-.26-.4-.49-.81-.71-1.23-.23-.41-.45-.84-.65-1.27-.18-.37-.34-.74-.5-1.12-.07-.18-.15-.36-.22-.55-.08-.19-.15-.39-.22-.59-.09-.22-.16-.45-.24-.67-.12-.37-.24-.74-.35-1.12-.28-.93-.5-1.89-.67-2.88-.27-1.47-.42-3-.46-4.57-.02-.77-.01-1.53.04-2.28.01-.25.03-.51.05-.77.01-.26.04-.51.07-.76.08-.77.19-1.51.33-2.25.13-.74.3-1.47.51-2.18.13-.47.27-.94.43-1.41.07-.23.15-.46.24-.69.16-.46.34-.91.54-1.35.09-.22.19-.45.3-.67.61-1.32,1.33-2.58,2.14-3.78.27-.4.55-.78.85-1.17t0-.01c.29-.38.59-.75.92-1.12.25-.29.5-.57.76-.85.08-.08.16-.16.22-.24.5-.53,1.03-1.05,1.59-1.54.19-.16.37-.32.56-.49.37-.32.76-.64,1.16-.94h.01c.4-.31.8-.61,1.22-.89.62-.43,1.27-.85,1.94-1.24.34-.2.68-.39,1.02-.57,1.03-.56,2.11-1.08,3.23-1.54.5-.21,1.01-.41,1.52-.59,1.29-.47,2.63-.87,4.02-1.21.28-.07.56-.14.84-.2.17-.03.34-.07.52-.11.39-.08.79-.16,1.19-.23,1.15-.21,2.34-.37,3.55-.49.3-.03.6-.06.91-.08.31-.03.62-.05.93-.06.93-.06,1.87-.09,2.83-.09,33.47-.08,66.94-.13,100.41-.13,31.56,0,63.12.04,94.68.13.62,0,1.23.02,1.84.05.61.02,1.21.06,1.81.11.6.04,1.19.1,1.77.17.58.07,1.16.15,1.74.24,1.13.18,2.24.4,3.31.67.48.11.95.24,1.41.38.62.17,1.23.36,1.83.57.48.16.95.34,1.41.52.41.15.81.32,1.2.49.15.06.29.12.43.19.42.19.83.38,1.23.59,1.41.7,2.73,1.49,3.97,2.36.38.26.76.54,1.12.82.32.25.64.5.94.76.82.68,1.58,1.41,2.3,2.17.32.33.64.69.93,1.04.02.01.03.02.04.04.31.36.6.72.89,1.1.32.42.63.85.93,1.29.23.35.47.71.68,1.07.28.45.54.92.79,1.4.2.36.38.74.56,1.12.2.43.4.87.58,1.32.36.9.67,1.81.94,2.75.27.95.49,1.91.66,2.9.08.49.16.99.22,1.49.13,1.01.2,2.03.22,3.08.03,1.27-.02,2.51-.14,3.72Zm-137.82-90.87h-1.24c-.75,0-1.49-.01-2.22-.03-1.22-.04-2.42-.11-3.58-.22-.01,0-.01,0-.01,0-.23-.02-.47-.04-.7-.07-.55-.05-1.1-.11-1.63-.18-.64-.08-1.27-.17-1.88-.27-.62-.1-1.23-.21-1.82-.34-.43-.08-.84-.17-1.25-.28-.06,0-.12-.02-.18-.04-.33-.08-.66-.16-.99-.25-.51-.13-1-.27-1.49-.41-.77-.23-1.51-.48-2.24-.76-.26-.09-.5-.19-.75-.28-.34-.14-.68-.28-1.01-.43-.2-.08-.39-.17-.57-.26-.29-.12-.57-.26-.85-.4-.17-.08-.34-.17-.5-.25h-.01c-.3-.16-.59-.31-.87-.48-.44-.24-.87-.49-1.28-.76-.17-.1-.34-.21-.5-.32-.37-.24-.73-.49-1.08-.75-.37-.28-.74-.56-1.09-.85-.28-.22-.54-.45-.8-.68-.28-.25-.55-.5-.82-.78-.17-.15-.34-.32-.51-.51-.25-.26-.49-.52-.73-.79s-.47-.55-.7-.83c-.22-.28-.44-.56-.65-.85-.45-.6-.86-1.22-1.23-1.86-.12-.18-.22-.37-.32-.55,0,0-.01-.01-.01-.02-.15-.26-.3-.52-.43-.79-.07-.14-.14-.27-.2-.41-.25-.48-.47-.98-.67-1.48-.04-.09-.08-.17-.1-.26-.01-.01-.02-.03-.01-.04-.24-.59-.46-1.2-.65-1.82-.04-.12-.08-.26-.12-.39-.06-.15-.1-.29-.13-.44-.05-.13-.08-.27-.11-.4-.01-.02-.02-.03-.01-.05-.07-.24-.12-.49-.19-.74-.16-.69-.3-1.4-.41-2.12-.06-.36-.11-.72-.16-1.09-.05-.35-.09-.7-.12-1.06-.03-.35-.06-.71-.08-1.08,0,0-.01,0,0-.01-.02-.05-.02-.11-.01-.16,0,0-.01,0,0-.01-.03-.36-.04-.72-.05-1.09-.02-.57-.03-1.14-.02-1.73,0-.16,0-.32.01-.48,0-.29,0-.58.03-.86,0-.21.01-.41.03-.61-.01-.03-.01-.06,0-.09.01-.29.03-.58.07-.86.02-.31.05-.62.09-.92-.01,0-.01-.02,0-.03.03-.3.06-.58.11-.87,0-.05,0-.09.02-.13.02-.17.05-.34.07-.51.11-.73.24-1.44.41-2.12.06-.26.12-.52.18-.77.07-.28.14-.56.23-.83.07-.25.14-.48.21-.72,0-.02.01-.03.01-.04.13-.41.27-.81.42-1.21.15-.4.3-.79.48-1.18.04-.11.09-.21.14-.32.17-.4.35-.79.55-1.17.22-.43.45-.85.7-1.26.21-.36.43-.72.67-1.06.03-.06.06-.11.1-.16.26-.39.53-.77.82-1.13.58-.75,1.21-1.46,1.88-2.14.29-.29.59-.58.9-.85.09-.09.18-.17.28-.25.3-.27.62-.53.94-.79.06-.05.12-.1.19-.14.33-.26.67-.51,1.02-.75.41-.28.82-.56,1.25-.82.42-.27.86-.52,1.32-.77.38-.2.76-.4,1.16-.59.16-.09.33-.16.5-.24,0-.01.01,0,.01,0,.37-.18.74-.35,1.13-.51.85-.36,1.74-.69,2.67-.99.44-.14.88-.28,1.34-.41.07-.03.14-.05.21-.06.27-.08.55-.15.83-.23.07-.03.15-.05.22-.06.26-.07.53-.14.8-.2.06-.02.13-.03.19-.04.25-.06.5-.12.75-.17.34-.08.68-.15,1.02-.21.29-.06.59-.11.89-.16,1.43-.26,2.92-.46,4.47-.61.01,0,.02,0,.03,0,.31-.04.63-.07.94-.09,1.06-.09,2.14-.15,3.26-.19.36-.02.73-.03,1.1-.03.62-.02,1.25-.03,1.89-.03,26.35-.03,52.71-.04,79.06-.04,30.11,0,60.23.01,90.34.01s59-.01,88.51-.01c25.82,0,51.64.01,77.46.04.68,0,1.35.01,2,.03.28,0,.55.01.82.03.06-.01.13-.01.19,0,.3,0,.6.02.9.04.28.01.56.03.83.05.57.03,1.14.07,1.69.11,1.36.12,2.68.27,3.95.46,1.27.2,2.49.42,3.67.69,1.18.26,2.31.57,3.4.91.54.17,1.07.35,1.59.55.52.18,1.03.38,1.53.59.5.2.98.42,1.45.65.01.01.01,0,.01,0,.45.22.9.44,1.32.68.05.03.1.05.14.08.43.22.84.46,1.24.72.86.51,1.67,1.08,2.43,1.69.38.29.75.6,1.11.93.36.31.71.64,1.04.98.33.34.66.68.97,1.04.26.3.53.62.77.94.1.11.19.22.26.34.24.29.45.6.66.91.03.03.05.06.07.1.26.38.5.76.73,1.16.25.41.48.83.69,1.26.23.43.43.87.62,1.31.2.44.38.89.55,1.35h0s.01.01,0,.02c.03.06.05.12.06.18.16.4.3.81.42,1.23.15.48.29.97.41,1.47.12.49.24.99.33,1.5,0,.01.02.02,0,.04.31,1.55.52,3.18.6,4.89.04.57.06,1.14.07,1.73.01.77-.01,1.53-.05,2.28-.02.57-.06,1.13-.11,1.69-.04.55-.1,1.1-.18,1.63-.07.51-.14,1.01-.24,1.5,0,.06-.01.12-.03.18-.07.39-.14.77-.24,1.14.01,0,0,0,0,0-.04.19-.08.38-.14.57,0,.02,0,.04-.01.06-.06.27-.13.54-.22.81-.03.15-.07.29-.12.43-.13.45-.27.88-.42,1.31-.28.78-.59,1.54-.95,2.27-.12.26-.24.51-.37.75-.02.07-.05.13-.09.19-.13.27-.28.53-.43.79-.8,1.42-1.75,2.74-2.84,3.95-.22.26-.45.51-.69.75-.55.57-1.14,1.12-1.76,1.64-.18.15-.37.3-.55.44-.13.12-.27.23-.42.33-.15.12-.31.24-.48.36-.06.05-.12.09-.19.14-.19.14-.38.27-.58.4-.06.04-.12.08-.18.11-.17.12-.35.23-.53.34-.67.43-1.37.83-2.09,1.19-.25.14-.5.26-.75.37-.02.02-.04.03-.06.03-.11.07-.22.12-.33.16-.26.13-.53.24-.8.36-.48.21-.97.41-1.48.6-.39.15-.78.29-1.19.43-1.12.38-2.29.71-3.52,1.01-.55.13-1.1.26-1.67.37-.6.12-1.21.23-1.83.32-2.36.39-4.88.62-7.55.71-.27.01-.55.02-.82.03-.56.02-1.13.02-1.7.02h-1.24c-111.52.09-223.07.09-334.61,0Zm576.4,88.57c-.02.46-.04.9-.07,1.35,0,.02,0,.05,0,.07-.02.34-.05.67-.09.99,0,.16-.03.33-.05.49-.03.27-.06.53-.11.79,0,.05,0,.09-.02.14-.03.23-.06.46-.11.69-.17,1.04-.4,2.06-.68,3.04-.04.15-.09.29-.13.44-.12.42-.25.83-.4,1.24-.14.4-.29.8-.45,1.18-.03.08-.06.15-.1.23-.13.31-.27.62-.41.92-.07.15-.15.3-.22.45-.15.32-.32.64-.49.95-.07.14-.15.27-.24.41-.1.2-.22.4-.35.59-.34.58-.72,1.15-1.13,1.7-.17.23-.35.47-.54.7-.08.1-.16.21-.25.31-.32.4-.66.8-1.02,1.18-.19.22-.4.43-.62.64-.04.05-.09.11-.16.16-.12.12-.25.25-.38.36-1.2,1.15-2.52,2.18-3.97,3.1-.28.17-.55.34-.83.5-.03.03-.05.04-.08.05-.29.18-.59.35-.89.51-.69.38-1.41.74-2.16,1.07-.24.12-.49.22-.74.32-.29.13-.58.25-.88.37-.15.06-.3.12-.45.17-.06.03-.12.05-.18.07-.37.14-.75.27-1.14.4-.39.13-.79.26-1.2.38-.22.07-.45.14-.68.19-.89.26-1.81.48-2.75.68-.26.06-.52.11-.78.16-.73.14-1.48.27-2.24.38-1.05.16-2.12.29-3.23.38-.76.07-1.53.12-2.32.16-.24,0-.48.02-.73.03-.33.02-.67.03-1.01.03-.49.01-.99.02-1.5.02-102.67.07-205.33.07-308,0-.84,0-1.66-.02-2.47-.05-.48-.02-.95-.04-1.42-.07-.06,0-.13-.01-.2-.01-.65-.04-1.3-.1-1.93-.16-1.19-.12-2.35-.28-3.47-.47-.3-.05-.61-.1-.91-.16-.38-.06-.76-.14-1.14-.22-.31-.07-.61-.14-.91-.21-.36-.08-.71-.17-1.06-.26-.36-.08-.71-.18-1.06-.29-.32-.09-.64-.19-.96-.29-.36-.1-.72-.22-1.08-.35-.43-.15-.85-.3-1.27-.46-.16-.07-.31-.13-.47-.19-.35-.13-.69-.28-1.02-.43-.21-.09-.41-.18-.61-.28-.02,0-.04,0-.05-.02-.07-.02-.14-.05-.21-.1-.01.01-.01,0-.02-.01-.34-.15-.67-.31-.99-.48-.02-.01-.04-.02-.06-.03-.27-.14-.54-.28-.8-.44-.08-.03-.16-.07-.24-.13-.12-.06-.25-.13-.37-.21-.38-.21-.74-.43-1.1-.66-.03-.02-.06-.04-.09-.06-.4-.26-.79-.52-1.17-.8-.34-.24-.67-.48-.99-.75-.13-.1-.27-.2-.39-.31-.01,0-.02,0-.02-.01-.32-.25-.62-.52-.92-.79-.37-.32-.72-.66-1.07-1-1.14-1.15-2.16-2.39-3.05-3.72-.12-.17-.23-.33-.33-.5-.01-.01-.01-.02-.02-.03-.09-.14-.18-.27-.26-.41,0-.01-.01-.03-.02-.04-.22-.35-.42-.7-.6-1.06-.24-.42-.45-.85-.65-1.29-.2-.43-.39-.87-.56-1.31-.01-.01-.01-.02-.02-.04-.18-.45-.35-.9-.49-1.36-.16-.46-.3-.94-.43-1.42-.13-.46-.25-.93-.34-1.41-.01-.06-.03-.13-.04-.21-.48-2.25-.67-4.64-.59-7.16.08-2.71.49-5.26,1.19-7.63,0,0,.01-.01.01-.02.14-.47.29-.94.46-1.4.16-.44.32-.88.51-1.31.01-.04.03-.09.06-.13.17-.42.35-.84.56-1.24.2-.44.43-.86.66-1.28.23-.41.48-.82.74-1.23.5-.8,1.05-1.57,1.65-2.3.01,0,.01-.01.02-.02.29-.36.61-.73.93-1.09.32-.36.66-.71,1-1.04.24-.24.5-.48.76-.71.15-.15.31-.29.47-.42.31-.27.63-.54.96-.8.39-.31.78-.6,1.19-.89.4-.29.82-.57,1.25-.84.42-.27.86-.54,1.31-.79.39-.23.8-.45,1.22-.66.11-.06.22-.12.34-.17.4-.2.81-.4,1.23-.58.28-.13.57-.26.87-.37.3-.13.6-.25.91-.37.73-.29,1.48-.55,2.25-.79.58-.19,1.18-.35,1.78-.51.24-.07.48-.13.73-.19.92-.24,1.87-.44,2.85-.61.21-.04.41-.08.63-.11,1.1-.2,2.23-.35,3.39-.47.62-.06,1.25-.12,1.89-.16.05,0,.09,0,.13-.01.61-.03,1.23-.07,1.86-.08.66-.03,1.33-.04,2.01-.04,11.42-.03,22.83-.04,34.25-.05,40.49-.03,80.97.01,121.45.01h0c50.76,0,101.53-.08,152.29.04,1.03,0,2.04.03,3.03.08.41.02.8.05,1.2.08.46.04.91.08,1.36.12.25.02.49.05.74.07.47.05.94.11,1.39.18.35.05.7.1,1.04.15.37.06.74.13,1.11.2.31.05.62.11.92.18.22.04.44.09.66.14.29.06.58.13.87.2.47.11.93.23,1.39.36.31.09.63.18.94.27.07.02.13.04.2.06.36.11.71.22,1.05.34.19.06.39.13.58.2.53.19,1.04.38,1.55.59.26.1.51.21.76.32.5.22.99.44,1.47.68s.95.48,1.42.73c.46.26.91.52,1.35.79.45.27.88.55,1.3.84.42.29.83.59,1.23.9.4.3.79.62,1.17.94.37.33.74.66,1.1,1,.35.34.69.68,1.03,1.04.01.01,0,.01,0,.01.34.35.66.72.97,1.09.15.17.29.34.42.52.27.33.52.67.77,1.01.05.06.09.13.14.19.2.28.39.57.57.86.02.02.03.03.04.05.22.35.44.71.64,1.07.4.7.77,1.42,1.1,2.16.16.36.32.73.46,1.1.17.41.32.82.46,1.24.16.47.3.94.43,1.43.08.3.16.6.23.91.07.3.14.61.2.92.05.23.09.45.14.69.06.41.13.83.19,1.25.02.19.04.39.06.59.08.75.14,1.52.16,2.31,0,.33.02.67.02,1.01s0,.7-.02,1.06Z"/><path class="cls-6" d="m662.06,344.68c-17.78,18.51-35.98,36.63-54.4,54.53-14.49,14.06-31.78,14.4-43.88,1.68-11.65-12.22-11.04-28.68,2.52-42.49,11.52-11.72,23.85-22.63,37.61-35.6-13.97-13.42-26.12-24.48-37.57-36.27-13.28-13.65-13.78-30.55-2.06-42.54,11.58-11.84,29.37-11.81,42.79,1.11,18.9,18.19,37.55,36.71,55.65,55.72,13.6,14.28,13.29,29.34-.66,43.86Z"/><path class="cls-6" d="m497.52,265.82c-2.09,5.45-4.02,12.01-7.02,18.08-17.12,34.7-34.41,69.34-51.83,103.89-10.24,20.28-26.44,27.41-42.61,19.24-16.33-8.27-19.92-24.9-9.56-45.79,17.94-36.21,35.86-72.42,54.19-108.42,7.32-14.35,19.26-20.83,35.44-16.31,13.99,3.89,19.39,14.65,21.39,29.31Z"/><path class="cls-6" d="m312.95,401.3c-12.26,12.45-29.28,11.9-43.91-2.29-18.37-17.85-36.54-35.98-54.28-54.47-13.65-14.26-13.88-29.71-.36-43.86,18.1-18.97,36.66-37.48,55.58-55.6,13.58-13.04,30.91-12.97,42.63-1,11.58,11.81,11.15,29.03-1.98,42.63-11.06,11.47-22.96,22.1-37.41,35.89,13.75,12.97,25.6,23.53,36.71,34.82,14.26,14.49,15.13,31.62,3.02,43.88Z"/><path class="cls-5" d="m761.83,702.72c55.33,0,110.65-.05,165.98.02,23.96.03,36.29,9.82,36.52,28.67.24,19.09-12.19,29.65-35.6,29.67-112.36.07-224.72.08-337.08,0-23.24-.02-36.01-10.83-35.75-29.66.25-18.85,12.6-28.64,36.55-28.67,56.47-.07,112.93-.02,169.4-.02Z"/><path class="cls-1" d="m981.15,819.67c50.76,0,101.52-.08,152.29.04,22.37.05,36.42,11.98,35.84,29.93-.57,17.55-13.67,27.98-35.79,28-102.67.07-205.33.07-308,0-22.69-.02-36.44-11.57-35.87-29.67.55-17.33,14.09-28.21,35.82-28.26,51.9-.11,103.81-.04,155.71-.04Z"/><path class="cls-5" d="m584.25,527.54c-37.67,0-75.33.11-113-.06-14.33-.06-26.11-5.63-30.75-19.92-3.96-12.2-2.04-24.52,9.37-32.09,5.75-3.82,13.68-6.05,20.64-6.09,75.9-.42,151.8-.38,227.7-.19,20.35.05,33.02,11.88,32.63,29.23-.39,16.92-13.64,28.85-33.6,29.02-37.66.33-75.33.09-113,.09Z"/><path class="cls-3" d="m439.1,585.92c37.1,0,74.19-.14,111.29.05,21.99.11,34.11,11.01,33.75,29.63-.34,17.53-12.68,28.61-33.42,28.66-74.76.21-149.53.19-224.29,0-20.98-.05-34.44-12.38-34.08-30.11.35-17.38,12.83-28.07,33.75-28.18,37.67-.19,75.34-.06,113-.06Z"/><path class="cls-5" d="m599.02,877.85c-32.51,0-65.03.15-97.54-.06-20.04-.13-33.51-11.7-33.91-28.46-.41-17.22,13.69-29.75,34.43-29.81,65.03-.16,130.05-.17,195.08,0,19.92.06,33.43,11.94,33.76,28.69.35,17.71-13.03,29.47-34.27,29.58-32.51.18-65.03.05-97.54.04Z"/><path class="cls-3" d="m394.13,702.72c23.36,0,46.73-.22,70.09.07,19.57.24,33.32,12.82,32.89,29.4-.44,16.98-13.75,28.76-33.61,28.85-46.15.21-92.31.24-138.46-.02-19.72-.11-32.96-12.54-32.71-29.57.25-17.13,13.27-28.5,33.42-28.68,22.79-.2,45.58-.05,68.38-.04Z"/><path class="cls-3" d="m306.42,527.48c-13.65.02-27.31.44-40.94-.09-19.48-.76-32.14-13.5-31.46-30.79.66-16.83,12.56-27.26,32.37-27.48,27.29-.3,54.59-.32,81.89.03,18.7.24,31.72,12.28,31.82,28.41.1,16.33-12.5,28.89-31.03,29.77-14.18.67-28.43.13-42.64.15Z"/><path class="cls-1" d="m1097.29,702.93c14.23.02,28.47-.4,42.68.13,17.12.64,29.59,13.45,29.34,29.2-.24,15.15-12.08,27.98-28.48,28.38-29.58.72-59.2.71-88.77.02-16.42-.39-28.28-13.18-28.56-28.36-.29-15.76,12.13-28.14,29.4-29.3,1.13-.08,2.28-.07,3.41-.07,13.66,0,27.32,0,40.98.02Z"/><path class="cls-3" d="m349.77,877.77c-9.65,0-19.33.44-28.96-.1-16.67-.94-28.09-12.51-28.47-28.04-.35-14.45,10.35-28.6,25.28-29.47,22.06-1.29,44.33-1.35,66.38.04,15.23.96,25.32,14.72,24.86,29.59-.48,15.8-11.56,26.99-28.44,27.89-10.19.54-20.44.1-30.66.1Z"/></g></svg>