<?xml version="1.0" encoding="UTF-8"?><svg id="Layer_2" xmlns="http://www.w3.org/2000/svg" viewBox="0 0 1007.78 1157.45"><defs><style>.cls-1{fill:#fed15f;}.cls-1,.cls-2,.cls-3,.cls-4,.cls-5{stroke-width:0px;}.cls-2{fill:#fefefe;}.cls-3{fill:#fed05c;}.cls-4{fill:#354b5f;}.cls-5{fill:#425b6b;}</style></defs><g id="Layer_2-2"><path class="cls-4" d="m637.11,1057.96c-1.79,9.12-2.01,18.94-5.69,27.22-7.45,16.72-22.25,24.29-40.01,23.91-10.32-.22-15.72,3.36-21.04,11.96-11.08,17.92-27.85,28.96-48.37,34.14-1.6.4-3.03,1.5-4.55,2.27h-29.39c-10.5-5.32-22.03-9.31-31.21-16.35-8.98-6.88-15.47-16.98-23.29-25.45-2.27-2.46-5.18-5.64-8.09-5.99-39.77-4.76-47.58-12.25-52.77-51.64,88.14-.02,176.27-.04,264.41-.06Z"/><path class="cls-3" d="m373.41,883.18c-16.82-52.07-48.82-93.07-89.65-128.93-63.6-55.86-100.77-126.67-109.94-211.11-11.45-105.47,22.1-195.78,95.51-271.36,50.36-51.84,111.92-84.43,183.35-94.42,100.94-14.12,191.89,10.81,269.58,78.39,57.34,49.88,94.42,112.36,107.68,187.08,21.89,123.41-14.41,228.37-107.18,312.65-39.38,35.78-69.07,77.16-86.04,127.59-4.48-.25-8.97-.68-13.45-.72-27.76-.23-55.53-.37-83.3-.55,17.53-66.89,35.07-133.78,52.59-200.67,14.28-54.53,28.69-109.03,42.51-163.68,1.15-4.56-1.77-10.15-2.8-15.26-4.76.98-10.2.8-14.14,3.14-12.37,7.36-20.21,7.25-32.93-2.14-25.06-18.51-37-18.49-61.26.07-13.63,10.43-23.33,10.15-36.36-1.05-20.1-17.28-40.02-16.95-60.28.98-10.25,9.07-21.55,9.77-32.01,3.28-4.2-2.61-10.65-5.28-14.6-3.85-7.94,2.88-4.93,10.3-3.32,16.56,30.97,120.86,61.89,241.74,92.82,362.61-4.87.17-9.73.45-14.6.51-27.38.32-54.77.59-82.15.87Z"/><path class="cls-5" d="m637.11,1057.96c-88.14.02-176.27.04-264.41.06-15.68-2.26-25.18-12.08-25.15-26.01.03-13.83,9.4-23.46,25.29-25.99,88.06.02,176.12.03,264.18.05,15.07,3.9,23.19,12.99,23.21,25.96.02,13.07-8.26,22.36-23.11,25.93Z"/><path class="cls-5" d="m373.15,974.27c-12.98-2.14-22.63-8.32-25.06-22.12-2.04-11.58,2.37-20.82,12.46-26.73,3.36-1.97,7.74-2.2,11.66-3.22,88.42.04,176.83.07,265.25.11,13.69,2.54,21.85,11.07,22.62,23.64.84,13.7-6.54,22.64-23.35,28.29-87.86,0-175.72.02-263.58.03Z"/><path class="cls-4" d="m637.46,922.31c-88.42-.04-176.83-.07-265.25-.11.4-13.01.8-26.03,1.2-39.03,27.38-.28,54.77-.55,82.15-.87,4.87-.06,9.73-.33,14.6-.51,7.2.05,14.4.1,21.6.16,8.88,0,17.76,0,26.64-.01,7.19-.05,14.37-.09,21.56-.14,27.77.17,55.53.32,83.3.55,4.49.04,8.97.47,13.45.72.25,13.08.49,26.16.74,39.24Z"/><path class="cls-4" d="m373.15,974.27c87.86,0,175.72-.02,263.58-.03.1,10.61.19,21.22.29,31.83-88.06-.02-176.12-.03-264.18-.05.1-10.58.2-21.17.31-31.75Z"/><path class="cls-1" d="m528.39,66.51c0,12.41.34,24.84-.09,37.24-.56,16.2-9.76,26.39-23.31,26.7-14.24.32-25.25-10.91-25.51-27.24-.39-25.2-.33-50.41,0-75.61.14-10.63,3.72-19.81,14.34-24.88,8.83-4.21,18.1-3.75,24.08,2.93,5.28,5.9,9.03,14.63,10.06,22.54,1.63,12.58.44,25.52.43,38.31Z"/><path class="cls-1" d="m943.24,479.59c11.65,0,23.3-.12,34.95.03,17.93.23,29.39,9.69,29.59,24.19.2,14.52-11.3,24.59-29.01,24.76-24.05.22-48.1.2-72.15,0-11.5-.1-21.62-3.58-26.82-14.99-4.14-9.09-3.1-18.74,4.27-24.8,5.86-4.83,14.34-7.91,22-8.8,12.24-1.42,24.76-.38,37.16-.38Z"/><path class="cls-1" d="m64.82,528.6c-12.42.01-24.86.32-37.27-.06-16.44-.51-27.28-10.23-27.55-24.01-.28-14.13,11.01-24.62,27.81-24.85,24.84-.33,49.69-.32,74.54,0,15.72.2,28.07,11.84,27.86,25.31-.2,12.51-11.44,22.75-26.99,23.48-12.77.6-25.59.12-38.39.13Z"/><path class="cls-1" d="m218.05,246.09c-3.74-2.27-10.91-5.13-16.11-10.07-17.7-16.81-34.88-34.19-51.91-51.69-10.73-11.03-12.75-21.62-7.04-31.41,8.71-14.94,25.21-17.4,39.14-4.36,18.92,17.7,36.86,36.45,55.12,54.85,2.09,2.1,3.79,4.7,5.24,7.3,8.71,15.64-3.12,35.5-24.46,35.38Z"/><path class="cls-1" d="m788.32,246.11c-20.07-.04-31.93-20-22.89-35.46,2.79-4.78,6.79-8.97,10.71-12.96,15.56-15.79,31.14-31.56,47.03-47.01,12.59-12.24,24.39-13.75,35.04-5.26,10.6,8.45,13.86,21.86,4.78,31.7-20.32,22.04-41.95,42.89-63.45,63.81-3.23,3.14-8.63,4.04-11.22,5.18Z"/><path class="cls-2" d="m539.97,881.8c-7.19.05-14.37.09-21.55.14.68-3.32,1.2-6.67,2.05-9.94,28.01-106.87,56.06-213.72,84.05-320.59,1.65-6.29,2.87-12.69,4.29-19.05l-3.44,2.46c-12.69-6.53-25.77-12.43-37.98-19.75-12.7-7.62-21.05-7.98-31.77,1.04-23.49,19.75-39.74,19.66-63.94-.37-9.71-8.04-20.45-9.47-29.79-1.59-12.25,10.33-25.7,16.64-42.79,17.31.85,4.64,1.26,8.28,2.19,11.77,7.44,27.96,15.02,55.89,22.49,83.84,22.68,84.95,45.32,169.92,67.98,254.88-7.2-.05-14.4-.1-21.6-.16-30.93-120.87-61.85-241.75-92.82-362.61-1.6-6.26-4.62-13.68,3.32-16.56,3.95-1.43,10.4,1.24,14.6,3.85,10.46,6.5,21.77,5.8,32.01-3.28,20.26-17.93,40.18-18.26,60.28-.98,13.03,11.2,22.73,11.48,36.36,1.05,24.26-18.56,36.2-18.57,61.26-.07,12.72,9.39,20.56,9.5,32.93,2.14,3.94-2.34,9.38-2.17,14.14-3.14,1.03,5.11,3.95,10.7,2.8,15.26-13.82,54.65-28.23,109.15-42.51,163.68-17.52,66.89-35.06,133.78-52.59,200.67Z"/><path class="cls-3" d="m491.77,881.95c-22.66-84.96-45.3-169.92-67.98-254.88-7.46-27.96-15.04-55.88-22.49-83.84-.93-3.49-1.34-7.12-2.19-11.77,17.09-.67,30.55-6.97,42.79-17.31,9.34-7.88,20.08-6.45,29.79,1.59,24.19,20.03,40.45,20.12,63.94.37,10.72-9.02,19.07-8.65,31.77-1.04,12.22,7.33,25.29,13.23,37.98,19.75l3.44-2.46c-1.42,6.35-2.64,12.75-4.29,19.05-27.99,106.87-56.04,213.73-84.05,320.59-.86,3.27-1.37,6.63-2.05,9.94-8.89,0-17.77,0-26.65,0Z"/></g></svg>