<?xml version="1.0" encoding="UTF-8"?><svg id="Layer_2" xmlns="http://www.w3.org/2000/svg" viewBox="0 0 1162.14 881.19"><defs><style>.cls-1{fill:#b8d1e5;}.cls-1,.cls-2,.cls-3,.cls-4,.cls-5,.cls-6{stroke-width:0px;}.cls-2{fill:#fed05c;}.cls-3{fill:#1c2541;}.cls-4{fill:#425b6b;}.cls-5{fill:#f8f4f9;}.cls-6{fill:#34495e;}</style></defs><g id="Layer_2-2"><rect class="cls-5" x="162.47" y="37.08" width="956" height="624"/><path class="cls-4" d="m209.99,394.57v-48.89h257.94v147.47h-159.36c-54.44,0-98.58-44.14-98.58-98.58Z"/><path class="cls-1" d="m630.41,607.77c-140.59,0-281.18-.15-421.76.21-15.86.04-22-2.2-21.09-13.04,1.46-17.34,1.41-34.8.01-52.15-.84-10.45,5.15-12.47,20.26-12.42,107.37.39,214.74.21,322.1.21,174.4,0,348.8.15,523.2-.23,16.75-.04,22.93,2.42,21.98,13.64-1.47,17.34-1.25,34.8-.05,52.15.68,9.82-5.07,11.85-19.34,11.82-141.77-.3-283.55-.18-425.32-.18Z"/><rect class="cls-5" x="22.47" y="417.08" width="260" height="387"/><path class="cls-6" d="m1162.14,676.74c-10.28,14.8-25.15,16.15-41.7,16.09-121.89-.41-243.78-.23-365.68-.21-4.15,0-8.29.19-12.44.3-67.38.05-134.77.1-202.15.16-.76,0-1.52,0-2.29,0-78.67-.13-157.33-.25-236-.34-1.04,0-2.08.52-4.15,1.07,0,3.62,0,7.3,0,10.98,0,44.26.07,88.51-.02,132.77-.06,28.7-14.74,43.54-43.05,43.57-70.36.06-140.71.06-211.07,0-28.48-.02-43.55-14.95-43.56-43.19-.04-153.57-.04-307.14,0-460.72,0-28.36,14.99-43.27,43.4-43.35,24.16-.07,48.32-.01,73.17-.01.36-8,.96-15.13.97-22.26.06-92.29.03-184.59.05-276.88,0-26.46,8.04-34.47,34.57-34.47C477.1.23,802.03.3,1126.95,0c15.82-.01,27.76,4.14,35.19,18.5v658.24ZM288.25,345.97c.7.77,1.39,1.54,2.09,2.31,2.43,10.46,6.7,20.87,6.98,31.38,1,38.52.67,77.07.84,115.62,0,9.75-.01,19.49-.02,29.24-.01,9.18-.03,18.35-.04,27.53.02,9.73.03,19.46.05,29.19,0,8.43,0,16.87,0,25.3v33.67h12.81c69.75,0,139.49.04,209.24-.02,24.11-.02,48.23-.32,72.34-.49,170.56.06,341.12.13,511.68.16,1.42,0,2.84-.49,4.66-.82V52.76h-13.94c-303.31,0-606.62,0-909.93,0-4.16,0-8.31.13-12.47.21-.67.61-1.34,1.22-2,1.83.03,89.27.06,178.54.08,267.81v11.23c27.92,0,54.64.41,81.33-.17,13.89-.3,26,2.9,36.3,12.3Zm-12.5,452.23v-381.1H22.58v381.1h253.17Z"/><path class="cls-1" d="m838.47,860.46c-20.79.39-41.58.12-62.38.11-5.99-29.01-12.09-58-17.94-87.04-5.41-26.84-10.56-53.74-15.83-80.61-67.38.05-134.77.1-202.15.16-.76,0-1.52,0-2.29,0-.69,3.3-1.38,6.59-2.05,9.9-9.98,49.3-19.97,98.6-29.89,147.91-1.36,6.76-4.25,10.2-12.1,9.91-17.37-.64-34.78.1-52.16-.34-7.6-.19-10.86,1.76-10.66,10.05.18,7.4,1.63,10.69,10.03,10.68,132.7-.23,265.39-.23,398.09,0,8.43.01,9.8-3.34,10-10.7.22-8.32-3.11-10.16-10.67-10.02Z"/><path class="cls-1" d="m172.53,52.97c-.67.61-1.34,1.22-2,1.83.67-.61,1.34-1.22,2-1.83Z"/><path class="cls-2" d="m202.24,314.82c0-38.57-.17-75.98.36-113.38.04-2.71,4.9-5.91,8.15-7.79,1.98-1.15,5.17-.23,7.82-.23,280.62,0,561.23,0,841.85,0h14.52v121.41H202.24Z"/><path class="cls-1" d="m792.7,163.77c-89.61,0-179.22-.15-268.82.21-10.11.04-14.02-2.2-13.44-13.04.93-17.34.9-34.8,0-52.15-.54-10.45,3.28-12.47,12.92-12.42,68.43.39,136.87.21,205.3.21,111.16,0,222.32.15,333.48-.23,10.68-.04,14.61,2.42,14.01,13.64-.93,17.34-.8,34.8-.03,52.15.43,9.82-3.23,11.85-12.32,11.82-90.36-.3-180.73-.18-271.09-.18Z"/><path class="cls-4" d="m510.99,493.15v-147.47h257.94v147.47h-257.94Z"/><path class="cls-4" d="m1075.28,493.18h-257.31v-147.53h257.31v147.53Z"/><path class="cls-3" d="m209.67,163.11v-76.43h259.01v76.43H209.67Z"/><path class="cls-2" d="m255.94,563.66v166.99H41.82v-166.99h214.12Z"/><path class="cls-1" d="m255.62,548.93H41.65v-66.55h213.97v66.55Z"/><path class="cls-3" d="m41.4,468.53v-31.43h214.38v31.43H41.4Z"/><path class="cls-4" d="m148.17,778.88c-32.11,0-64.22.08-96.33-.1-4.3-.02-11.37,2.37-10.37-5.75.27-2.2,6.31-5.25,9.71-5.26,64.98-.31,129.96-.31,194.93,0,3.43.02,9.49,2.97,9.8,5.18,1.13,8.13-5.95,5.82-10.27,5.84-32.49.17-64.98.09-97.47.09Z"/><path class="cls-4" d="m148.14,753.95c-32.1,0-64.21.15-96.31-.21-3.56-.04-7.09-3.01-10.63-4.62,3.34-1.43,6.68-4.1,10.02-4.11,64.96-.25,129.92-.25,194.88,0,3.36.01,6.7,2.66,10.06,4.07-3.53,1.62-7.04,4.61-10.59,4.65-32.48.36-64.96.21-97.44.21Z"/></g></svg>